<svg xmlns="http://www.w3.org/2000/svg" width="527" height="93" viewBox="0 0 527 93" version="1.1"><path d="M 150.500 3.890 C 143.466 7.137, 138.984 14.093, 139.015 21.718 C 139.033 26.155, 140.140 28.256, 142.652 28.625 C 143.648 28.771, 144.622 29.366, 144.815 29.946 C 145.008 30.525, 146.029 31, 147.083 31 C 148.802 31, 149 30.225, 149 23.500 C 149 15.083, 147.805 14.006, 143.173 18.250 L 140.718 20.500 141.427 17.500 C 142.412 13.328, 144.349 10.599, 148.652 7.317 C 151.694 4.996, 153.339 4.500, 157.995 4.500 C 165.060 4.500, 170.102 7.599, 173.129 13.802 C 175.384 18.423, 175.194 20.051, 172.690 17.548 C 171.839 16.696, 170.436 16, 169.571 16 C 168.283 16, 168 17.348, 168 23.500 C 168 30.333, 168.178 31, 170 31 C 171.100 31, 172 30.550, 172 30 C 172 29.450, 172.848 29, 173.883 29 C 175.994 29, 176.966 26.436, 176.986 20.815 C 177.014 13.460, 172.822 7.286, 165.500 3.896 C 160.425 1.546, 155.582 1.544, 150.500 3.890 M 495 32.797 L 495 61.595 488.599 61.187 C 480.351 60.662, 475.986 62.167, 471.566 67.059 C 468.569 70.376, 468 71.738, 468 75.599 C 468 83.627, 472.745 88.809, 481.998 90.888 C 488.733 92.402, 495.424 90.610, 500.416 85.955 L 504.500 82.147 504.800 57.573 C 505.142 29.509, 504.987 29.891, 512.849 37.753 C 518.478 43.383, 520.590 49.374, 519.673 57.116 C 519.171 61.351, 519.299 61.997, 520.450 61.042 C 523.076 58.862, 526 51.066, 525.994 46.261 C 525.982 35.512, 521.286 28.114, 508.110 18.084 C 502.455 13.779, 499.646 10.871, 498.387 8.015 C 497.412 5.807, 496.252 4, 495.808 4 C 495.363 4, 495 16.959, 495 32.797 M 155.385 22.765 C 153.730 23.856, 152.919 27.299, 153.936 28.919 C 154.593 29.965, 153.996 30.753, 151.663 31.919 C 148.722 33.389, 148.479 33.910, 148.198 39.330 C 147.932 44.451, 148.138 45.223, 149.891 45.682 C 152.350 46.325, 152.803 48.552, 153.195 61.928 L 153.500 72.356 150.250 73.207 C 147.229 73.997, 147 74.356, 147 78.288 C 147 81.436, 146.488 82.839, 145 83.768 C 143.900 84.455, 143 85.428, 143 85.931 C 143 88.923, 162.050 90.459, 169.336 88.054 C 173.067 86.823, 174.162 84.660, 171.560 83.661 C 170.693 83.329, 169.997 81.398, 169.810 78.804 C 169.527 74.869, 169.200 74.403, 166 73.366 C 162.524 72.239, 162.502 72.195, 162.764 66.866 C 163.622 49.461, 164.143 46.196, 166.148 45.671 C 167.855 45.225, 168.066 44.415, 167.802 39.330 C 167.520 33.889, 167.289 33.400, 164.336 32 C 161.642 30.723, 161.251 30.091, 161.710 27.752 C 162.561 23.417, 158.844 20.486, 155.385 22.765" stroke="none" fill="#040404" fill-rule="evenodd"/><path d="M 3 61.945 L 3 85 8.500 85 L 14 85 14 72.780 L 14 60.559 19.750 69.947 C 25.763 79.764, 27.682 81.720, 30.311 80.711 C 31.182 80.377, 34.613 75.468, 37.937 69.802 L 43.980 59.500 43.990 72.250 L 44 85 49.500 85 L 55 85 55 62 L 55 39 50.221 39 L 45.443 39 37.518 52.500 C 33.160 59.925, 29.348 65.998, 29.047 65.995 C 28.746 65.993, 24.900 60.030, 20.500 52.745 L 12.500 39.500 7.750 39.195 L 3 38.890 3 61.945 M 238 61.945 L 238 85 243.500 85 L 249 85 249 72.780 L 249 60.559 254.750 69.947 C 260.763 79.764, 262.682 81.720, 265.311 80.711 C 266.182 80.377, 269.613 75.468, 272.937 69.802 L 278.980 59.500 278.990 72.250 L 279 85 284.500 85 L 290 85 290 62 L 290 39 285.221 39 L 280.443 39 272.518 52.500 C 268.160 59.925, 264.348 65.998, 264.047 65.995 C 263.746 65.993, 259.900 60.030, 255.500 52.745 L 247.500 39.500 242.750 39.195 L 238 38.890 238 61.945 M 375 45.930 C 375 49.245, 374.647 49.911, 372.750 50.180 C 370.880 50.446, 370.448 51.217, 370.193 54.750 C 369.908 58.682, 370.069 59, 372.346 59 C 374.762 59, 374.813 59.172, 375.153 68.429 C 375.436 76.109, 375.891 78.381, 377.607 80.678 C 380.509 84.562, 385.785 86.409, 391.516 85.550 C 396.735 84.767, 397.768 83.268, 396.011 79.028 C 394.941 76.444, 394.429 76.164, 391.747 76.701 C 387.316 77.587, 386 75.207, 386 66.309 L 386 59 390.557 59 L 395.115 59 394.807 54.750 C 394.501 50.521, 394.479 50.499, 390.250 50.193 C 386.021 49.886, 386 49.866, 386 45.943 L 386 42 380.500 42 L 375 42 375 45.930 M 115.869 50.113 C 110.240 51.709, 106.513 56.206, 106.645 61.242 C 106.787 66.655, 109.989 69.467, 117.715 70.966 C 125.727 72.521, 128.083 73.619, 127.373 75.470 C 126.597 77.492, 117.232 77.542, 112.461 75.548 L 108.987 74.096 107.500 77.654 C 106.682 79.611, 106.255 81.603, 106.550 82.080 C 107.368 83.404, 116.909 86.001, 120.932 85.994 C 130.750 85.979, 138.024 80.998, 137.968 74.327 C 137.951 72.222, 137.342 69.717, 136.616 68.761 C 134.917 66.524, 129.746 64.426, 123.832 63.574 C 118.785 62.847, 115.946 60.654, 117.737 58.863 C 118.850 57.750, 129.381 58.101, 132.050 59.341 C 133.187 59.869, 134.065 59.087, 135.343 56.407 C 136.302 54.397, 136.954 52.644, 136.793 52.512 C 133.459 49.771, 121.793 48.433, 115.869 50.113 M 190.500 50.207 C 186.090 51.748, 181.217 55.680, 179.428 59.140 C 178.564 60.810, 177.857 64.572, 177.857 67.500 C 177.857 73.808, 179.801 78.008, 184.249 81.310 C 193.262 88.002, 205.808 87.145, 211.882 79.423 L 214.106 76.595 209.818 74.407 L 205.529 72.219 202.688 74.609 C 193.891 82.012, 183.740 69.106, 191.923 60.923 C 195.488 57.358, 198.884 57.190, 202.688 60.391 L 205.529 62.781 209.818 60.593 L 214.106 58.405 211.882 55.577 C 207.513 50.023, 197.919 47.613, 190.500 50.207 M 308 49.583 C 307.175 49.884, 304.596 50.809, 302.268 51.640 L 298.037 53.151 300.014 57.027 L 301.991 60.902 305.463 59.451 C 310.426 57.377, 315.604 57.604, 318 60 C 321.163 63.163, 320.403 64, 314.366 64 C 302.866 64, 297 67.735, 297 75.058 C 297 83.710, 308.237 88.723, 317.289 84.108 C 320.220 82.613, 321 82.508, 321 83.608 C 321 84.612, 322.394 85, 326 85 L 331 85 330.996 72.250 C 330.992 57.890, 329.840 54.520, 323.882 51.439 C 320.615 49.750, 310.718 48.593, 308 49.583 M 345.500 50.503 C 339.951 52.466, 337 56.146, 337 61.101 C 337 66.631, 340.068 69.479, 347.603 70.943 C 355.198 72.418, 358.258 73.722, 357.750 75.264 C 357.144 77.100, 346.817 77.368, 342.716 75.655 L 339.268 74.214 337.553 77.811 C 335.943 81.187, 335.942 81.484, 337.529 82.645 C 339.454 84.052, 347.763 86.003, 351.799 85.994 C 359.634 85.978, 367.307 81.407, 368.310 76.158 C 369.594 69.440, 364.667 65.160, 353.832 63.582 C 348.798 62.849, 346.632 61.213, 347.925 59.121 C 348.800 57.706, 358.954 57.918, 362.255 59.419 C 363.655 60.056, 364.320 59.478, 365.537 56.565 C 366.377 54.556, 366.820 52.518, 366.523 52.037 C 365.834 50.922, 356.895 48.986, 352.701 49.044 C 350.940 49.068, 347.700 49.725, 345.500 50.503 M 410.655 50.459 C 394.097 56.362, 394.519 79.513, 411.276 84.489 C 419.479 86.925, 426.630 85.942, 431.561 81.701 L 434.126 79.495 431.172 76.665 C 428.307 73.920, 428.128 73.883, 425.159 75.418 C 420.920 77.610, 415.789 77.409, 412.635 74.927 C 411.186 73.788, 410 72.438, 410 71.927 C 410 71.405, 415.678 71, 423 71 L 436 71 436 66.968 C 436 58.909, 430.920 52.183, 423.219 50.044 C 418.345 48.690, 415.336 48.790, 410.655 50.459 M 456.711 50.892 C 453.780 52.387, 453 52.492, 453 51.392 C 453 50.371, 451.533 50, 447.500 50 L 442 50 442 67.500 L 442 85 447.500 85 L 453 85 453 75.547 C 453 70.348, 453.500 64.998, 454.110 63.657 C 455.352 60.931, 458.851 59, 462.547 59 C 464.824 59, 465 58.641, 465 54 C 465 49.457, 464.791 49, 462.711 49 C 461.453 49, 458.753 49.851, 456.711 50.892 M 64.002 62.250 C 64.003 75.630, 65.155 79.641, 70.014 83.198 C 73.938 86.070, 81.733 86.540, 86.250 84.177 C 89.182 82.644, 90 82.519, 90 83.608 C 90 84.629, 91.467 85, 95.500 85 L 101 85 101 67.500 L 101 50 95 50 L 89 50 89 60.777 C 89 73.780, 87.979 76, 82 76 C 76.021 76, 75 73.780, 75 60.777 L 75 50 69.500 50 L 64 50 64.002 62.250 M 411.388 60.531 C 410.475 61.923, 409.960 63.293, 410.242 63.575 C 410.524 63.858, 414.228 63.956, 418.473 63.794 L 426.190 63.500 424.023 60.750 C 422.245 58.494, 421.063 58, 417.450 58 C 413.841 58, 412.747 58.457, 411.388 60.531 M 308.384 72.442 C 307.129 75.712, 308.447 77.494, 312.356 77.816 C 316.617 78.167, 320 75.967, 320 72.845 C 320 71.274, 319.178 71, 314.469 71 C 310.574 71, 308.774 71.427, 308.384 72.442" stroke="none" fill="#3c74fc" fill-rule="evenodd"/></svg>