<svg width="120" height="115" viewBox="0 0 120 115" fill="none" xmlns="http://www.w3.org/2000/svg">
<rect width="120" height="115" fill="#FFEDFB"/>
<path d="M31.503 20.2C30.7163 20.2 30.0696 20.1467 29.563 20.04C29.0563 19.9467 28.6496 19.8067 28.343 19.62C28.0496 19.42 27.843 19.1733 27.723 18.88C27.6163 18.5867 27.563 18.24 27.563 17.84C27.563 17.72 27.5696 17.5533 27.583 17.34C27.5963 17.1133 27.6163 16.8 27.643 16.4C27.6696 16 27.703 15.4867 27.743 14.86C27.7963 14.22 27.863 13.42 27.943 12.46C28.0363 11.2733 28.1096 10.3333 28.163 9.64C28.2163 8.94667 28.2563 8.41333 28.283 8.04C28.3096 7.65333 28.323 7.38667 28.323 7.24C28.3363 7.08 28.343 6.94667 28.343 6.84C28.343 6.62667 28.343 6.45333 28.343 6.32C28.3563 6.18667 28.3696 6.08667 28.383 6.02C28.4096 5.94 28.443 5.88667 28.483 5.86C28.5363 5.82 28.6096 5.8 28.703 5.8C29.4896 5.74667 30.1563 5.70667 30.703 5.68C31.263 5.65333 31.7496 5.64 32.163 5.64C33.1763 5.64 34.043 5.72667 34.763 5.9C35.4963 6.06 36.0896 6.29333 36.543 6.6C36.9963 6.90667 37.3296 7.28667 37.543 7.74C37.7563 8.19333 37.863 8.70667 37.863 9.28C37.863 9.6 37.8296 9.93333 37.763 10.28C37.6963 10.6133 37.583 10.9333 37.423 11.24C37.263 11.5467 37.043 11.82 36.763 12.06C36.4963 12.2867 36.1563 12.4533 35.743 12.56C36.5163 12.8 37.063 13.2 37.383 13.76C37.703 14.3067 37.863 14.96 37.863 15.72C37.863 16.3333 37.763 16.9133 37.563 17.46C37.363 17.9933 37.0163 18.4667 36.523 18.88C36.0296 19.28 35.3763 19.6 34.563 19.84C33.7496 20.08 32.7296 20.2 31.503 20.2ZM32.643 14C32.4963 14 32.3163 14.0133 32.103 14.04C31.8896 14.0533 31.6696 14.08 31.443 14.12L31.223 17.38C31.703 17.5267 32.1363 17.6 32.523 17.6C32.9363 17.6 33.2696 17.54 33.523 17.42C33.7763 17.3 33.9696 17.1533 34.103 16.98C34.2496 16.7933 34.343 16.5933 34.383 16.38C34.4363 16.1533 34.463 15.9467 34.463 15.76C34.463 15.2667 34.323 14.8533 34.043 14.52C33.7763 14.1733 33.3096 14 32.643 14ZM31.803 8.5C31.7763 8.84667 31.7496 9.25333 31.723 9.72C31.7096 10.1867 31.683 10.6933 31.643 11.24C32.0696 11.3467 32.4496 11.4 32.783 11.4C33.183 11.4 33.503 11.3533 33.743 11.26C33.983 11.1667 34.1696 11.0467 34.303 10.9C34.4496 10.7533 34.543 10.5933 34.583 10.42C34.6363 10.2467 34.663 10.08 34.663 9.92C34.663 9.50667 34.523 9.15333 34.243 8.86C33.9763 8.55333 33.5096 8.4 32.843 8.4C32.6963 8.4 32.5296 8.41333 32.343 8.44C32.1696 8.45333 31.9896 8.47333 31.803 8.5ZM43.2923 10.7C43.2923 10.98 43.2657 11.3733 43.2123 11.88C43.1723 12.3867 43.1257 12.9133 43.0723 13.46C43.0323 14.0067 42.9857 14.52 42.9323 15C42.8923 15.48 42.8723 15.8267 42.8723 16.04C42.8723 16.5067 42.9857 16.8733 43.2123 17.14C43.4523 17.3933 43.779 17.52 44.1923 17.52C44.5523 17.52 44.8523 17.38 45.0923 17.1C45.3457 16.8067 45.5457 16.4333 45.6923 15.98C45.8523 15.5133 45.979 14.9867 46.0723 14.4C46.1657 13.8133 46.2323 13.22 46.2723 12.62C46.3257 12.02 46.3657 11.44 46.3923 10.88C46.4323 10.3067 46.4723 9.81333 46.5123 9.4C46.5257 9.29333 46.5657 9.2 46.6323 9.12C46.699 9.04 46.8057 9 46.9523 9H47.6723C48.0857 9 48.419 9.04667 48.6723 9.14C48.939 9.22 49.1457 9.34 49.2923 9.5C49.4523 9.66 49.559 9.86 49.6123 10.1C49.679 10.3267 49.7123 10.5933 49.7123 10.9C49.7123 11.1 49.699 11.3867 49.6723 11.76C49.659 12.12 49.6257 12.6267 49.5723 13.28C49.519 13.92 49.4523 14.74 49.3723 15.74C49.3057 16.7267 49.219 17.9533 49.1123 19.42C49.0857 19.7 49.0523 19.8667 49.0123 19.92C48.9857 19.9733 48.879 20 48.6923 20H47.9123C47.5123 20 47.179 19.9533 46.9123 19.86C46.659 19.7667 46.4523 19.6467 46.2923 19.5C46.1323 19.3533 46.019 19.18 45.9523 18.98C45.8857 18.78 45.8457 18.5733 45.8323 18.36C45.6323 18.7067 45.4057 19 45.1523 19.24C44.9123 19.48 44.659 19.6733 44.3923 19.82C44.1257 19.9533 43.8523 20.0467 43.5723 20.1C43.2923 20.1667 43.019 20.2 42.7523 20.2C42.2457 20.2 41.7923 20.12 41.3923 19.96C40.9923 19.7867 40.6523 19.56 40.3723 19.28C40.1057 19 39.899 18.6667 39.7523 18.28C39.6057 17.8933 39.5323 17.48 39.5323 17.04C39.5323 16.8667 39.539 16.5867 39.5523 16.2C39.579 15.8 39.6057 15.3533 39.6323 14.86C39.6723 14.3667 39.7123 13.8467 39.7523 13.3C39.7923 12.74 39.8257 12.2133 39.8523 11.72C39.8923 11.2267 39.9257 10.7933 39.9523 10.42C39.9923 10.0467 40.019 9.78 40.0323 9.62C40.059 9.38 40.1123 9.22 40.1923 9.14C40.2723 9.04667 40.4057 9 40.5923 9H41.2323C41.6457 9 41.9857 9.04 42.2523 9.12C42.519 9.2 42.7257 9.31333 42.8723 9.46C43.0323 9.60667 43.139 9.78667 43.1923 10C43.259 10.2 43.2923 10.4333 43.2923 10.7ZM50.9045 20C50.7579 20 50.6845 19.9267 50.6845 19.78L50.7445 18.7C50.7579 18.34 50.8779 17.9933 51.1045 17.66C51.3445 17.3267 51.6779 16.9133 52.1045 16.42C52.5312 15.9267 53.0579 15.3067 53.6845 14.56C54.3112 13.8 55.0379 12.8133 55.8645 11.6H52.1045C51.9979 11.6 51.9312 11.58 51.9045 11.54C51.8912 11.4867 51.8845 11.4133 51.8845 11.32L51.9445 10.4C51.9579 10.2267 51.9779 10.06 52.0045 9.9C52.0445 9.72667 52.1112 9.57333 52.2045 9.44C52.3112 9.30667 52.4579 9.2 52.6445 9.12C52.8312 9.04 53.0779 9 53.3845 9H60.2245C60.3045 9 60.3779 9.02 60.4445 9.06C60.5112 9.1 60.5445 9.17333 60.5445 9.28L60.4645 10.36C60.4512 10.6933 60.3179 11.0467 60.0645 11.42C60.0245 11.4867 59.8512 11.7 59.5445 12.06C59.2379 12.42 58.8579 12.88 58.4045 13.44C57.9645 13.9867 57.4712 14.6067 56.9245 15.3C56.3912 15.98 55.8645 16.68 55.3445 17.4H59.6245C59.7045 17.4 59.7779 17.42 59.8445 17.46C59.9112 17.5 59.9445 17.5733 59.9445 17.68L59.8645 18.66C59.8379 19.06 59.7245 19.3867 59.5245 19.64C59.3379 19.88 58.9445 20 58.3445 20H50.9045ZM61.1584 20C61.0118 20 60.9384 19.9267 60.9384 19.78L60.9984 18.7C61.0118 18.34 61.1318 17.9933 61.3584 17.66C61.5984 17.3267 61.9318 16.9133 62.3584 16.42C62.7851 15.9267 63.3118 15.3067 63.9384 14.56C64.5651 13.8 65.2918 12.8133 66.1184 11.6H62.3584C62.2518 11.6 62.1851 11.58 62.1584 11.54C62.1451 11.4867 62.1384 11.4133 62.1384 11.32L62.1984 10.4C62.2118 10.2267 62.2318 10.06 62.2584 9.9C62.2984 9.72667 62.3651 9.57333 62.4584 9.44C62.5651 9.30667 62.7118 9.2 62.8984 9.12C63.0851 9.04 63.3318 9 63.6384 9H70.4784C70.5584 9 70.6318 9.02 70.6984 9.06C70.7651 9.1 70.7984 9.17333 70.7984 9.28L70.7184 10.36C70.7051 10.6933 70.5718 11.0467 70.3184 11.42C70.2784 11.4867 70.1051 11.7 69.7984 12.06C69.4918 12.42 69.1118 12.88 68.6584 13.44C68.2184 13.9867 67.7251 14.6067 67.1784 15.3C66.6451 15.98 66.1184 16.68 65.5984 17.4H69.8784C69.9584 17.4 70.0318 17.42 70.0984 17.46C70.1651 17.5 70.1984 17.5733 70.1984 17.68L70.1184 18.66C70.0918 19.06 69.9784 19.3867 69.7784 19.64C69.5918 19.88 69.1984 20 68.5984 20H61.1584ZM78.3292 20C77.9159 20 77.5759 19.96 77.3092 19.88C77.0559 19.7867 76.8492 19.66 76.6892 19.5C76.5426 19.34 76.4359 19.1467 76.3692 18.92C76.3159 18.68 76.2892 18.4067 76.2892 18.1C76.2892 17.9 76.2959 17.62 76.3092 17.26C76.3359 16.8867 76.3759 16.38 76.4292 15.74C76.4826 15.0867 76.5426 14.2667 76.6092 13.28C76.6892 12.28 76.7826 11.0467 76.8892 9.58C76.9026 9.28667 76.9359 9.11333 76.9892 9.06C77.0292 9.02 77.1359 9 77.3092 9H78.0892C78.5026 9 78.8359 9.04 79.0892 9.12C79.3559 9.2 79.5626 9.32 79.7092 9.48C79.8692 9.64 79.9759 9.83333 80.0292 10.06C80.0959 10.2867 80.1292 10.54 80.1292 10.82C80.1292 11.02 80.1159 11.32 80.0892 11.72C80.0626 12.12 80.0226 12.6667 79.9692 13.36C79.9292 14.04 79.8692 14.8933 79.7892 15.92C79.7092 16.9333 79.6092 18.16 79.4892 19.6C79.4759 19.76 79.4426 19.8667 79.3892 19.92C79.3359 19.9733 79.2226 20 79.0492 20H78.3292ZM76.9092 6.64C76.9092 6.10667 77.1026 5.68667 77.4892 5.38C77.8759 5.07333 78.3959 4.92 79.0492 4.92C79.6226 4.92 80.0359 5.04 80.2892 5.28C80.5559 5.50667 80.6892 5.81333 80.6892 6.2C80.6892 6.69333 80.5026 7.10667 80.1292 7.44C79.7692 7.76 79.2359 7.92 78.5292 7.92C77.4492 7.92 76.9092 7.49333 76.9092 6.64ZM88.7142 18.24C88.7142 17.9467 88.7342 17.5667 88.7742 17.1C88.8276 16.62 88.8742 16.12 88.9142 15.6C88.9676 15.0667 89.0142 14.5533 89.0542 14.06C89.1076 13.5667 89.1342 13.1533 89.1342 12.82C89.1342 12.4733 89.0476 12.1667 88.8742 11.9C88.7142 11.62 88.3942 11.48 87.9142 11.48C87.4476 11.48 87.0609 11.5933 86.7542 11.82C86.4476 12.0467 86.1876 12.46 85.9742 13.06C85.7742 13.66 85.6076 14.4867 85.4742 15.54C85.3409 16.5933 85.2142 17.9467 85.0942 19.6C85.0809 19.76 85.0476 19.8667 84.9942 19.92C84.9409 19.9733 84.8276 20 84.6542 20H83.9342C83.5209 20 83.1809 19.96 82.9142 19.88C82.6609 19.7867 82.4542 19.66 82.2942 19.5C82.1476 19.34 82.0409 19.1467 81.9742 18.92C81.9209 18.68 81.8942 18.4067 81.8942 18.1C81.8942 17.9 81.9009 17.62 81.9142 17.26C81.9409 16.8867 81.9809 16.38 82.0342 15.74C82.0876 15.0867 82.1476 14.2667 82.2142 13.28C82.2942 12.28 82.3876 11.0467 82.4942 9.58C82.5076 9.28667 82.5409 9.11333 82.5942 9.06C82.6342 9.02 82.7409 9 82.9142 9H83.6942C84.0942 9 84.4209 9.04667 84.6742 9.14C84.9409 9.23333 85.1542 9.36 85.3142 9.52C85.4742 9.66667 85.5876 9.84667 85.6542 10.06C85.7209 10.26 85.7609 10.4667 85.7742 10.68C86.1876 9.97333 86.6609 9.48667 87.1942 9.22C87.7276 8.94 88.3942 8.8 89.1942 8.8C89.7542 8.8 90.2409 8.86 90.6542 8.98C91.0676 9.1 91.4076 9.30667 91.6742 9.6C91.9542 9.88 92.1609 10.2533 92.2942 10.72C92.4276 11.1733 92.4942 11.74 92.4942 12.42C92.4942 12.6333 92.4809 12.94 92.4542 13.34C92.4276 13.74 92.3942 14.18 92.3542 14.66C92.3142 15.1267 92.2676 15.62 92.2142 16.14C92.1742 16.6467 92.1342 17.12 92.0942 17.56C92.0542 18 92.0209 18.3867 91.9942 18.72C91.9676 19.0533 91.9542 19.2733 91.9542 19.38C91.9542 19.6733 91.9209 19.8533 91.8542 19.92C91.7876 19.9733 91.6409 20 91.4142 20H90.7742C90.3476 20 90.0009 19.96 89.7342 19.88C89.4676 19.8 89.2609 19.6867 89.1142 19.54C88.9676 19.3933 88.8609 19.2133 88.7942 19C88.7409 18.7733 88.7142 18.52 88.7142 18.24ZM20.7548 35.7C20.7148 36.2067 20.6681 36.7067 20.6148 37.2C20.5748 37.6933 20.5348 38.16 20.4948 38.6C20.4548 39.04 20.4214 39.4333 20.3948 39.78C20.3814 40.1267 20.3748 40.3933 20.3748 40.58C20.3748 40.9267 20.4148 41.16 20.4948 41.28C20.5748 41.3867 20.7081 41.44 20.8948 41.44C21.0414 41.44 21.1681 41.4133 21.2748 41.36C21.3814 41.3067 21.4814 41.2467 21.5748 41.18C21.6681 41.1133 21.7481 41.0533 21.8148 41C21.8948 40.9467 21.9814 40.92 22.0748 40.92C22.1681 40.92 22.2548 40.9733 22.3348 41.08C22.4148 41.1867 22.4548 41.4333 22.4548 41.82C22.4548 42.5533 22.2548 43.1333 21.8548 43.56C21.4548 43.9867 20.7681 44.2 19.7948 44.2C18.8348 44.2 18.1214 43.98 17.6548 43.54C17.2014 43.0867 16.9748 42.4 16.9748 41.48C16.9748 41.28 16.9814 41.0467 16.9948 40.78C17.0214 40.5 17.0548 40.14 17.0948 39.7C17.1348 39.26 17.1814 38.72 17.2348 38.08C17.3014 37.44 17.3681 36.6467 17.4348 35.7H16.3748C16.2681 35.7 16.2014 35.68 16.1748 35.64C16.1614 35.5867 16.1548 35.5133 16.1548 35.42L16.2148 34.4C16.2281 34.2267 16.2481 34.06 16.2748 33.9C16.3148 33.7267 16.3814 33.5733 16.4748 33.44C16.5814 33.3067 16.7281 33.2 16.9148 33.12C17.1014 33.04 17.3481 33 17.6548 33C17.7481 32.76 17.8548 32.4733 17.9748 32.14C18.0948 31.8067 18.2148 31.4867 18.3348 31.18C18.4548 30.86 18.5681 30.5933 18.6748 30.38C18.7948 30.1667 18.9014 30.06 18.9948 30.06H19.5748C20.1348 30.06 20.5214 30.2333 20.7348 30.58C20.9481 30.9267 21.0548 31.34 21.0548 31.82C21.0548 32.0867 21.0348 32.48 20.9948 33H23.0948C23.3081 33 23.4148 33.0933 23.4148 33.28L23.3348 34.36C23.3081 34.76 23.1948 35.0867 22.9948 35.34C22.8081 35.58 22.4148 35.7 21.8148 35.7H20.7548ZM35.163 41.86C35.3364 40.8867 35.483 40.04 35.603 39.32C35.7364 38.5867 35.843 37.9533 35.923 37.42C36.0164 36.8867 36.0897 36.4267 36.143 36.04C36.2097 35.6533 36.263 35.3133 36.303 35.02C36.3564 34.7133 36.3964 34.4467 36.423 34.22C36.463 33.98 36.503 33.7333 36.543 33.48C36.5697 33.3333 36.6364 33.22 36.743 33.14C36.863 33.06 37.083 33.02 37.403 33.02C37.5764 33.02 37.8164 33.0333 38.123 33.06C38.443 33.0733 38.7564 33.12 39.063 33.2C39.3697 33.28 39.6297 33.4067 39.843 33.58C40.0697 33.74 40.183 33.9667 40.183 34.26C40.183 34.4733 40.123 34.7933 40.003 35.22C39.883 35.6333 39.7297 36.1133 39.543 36.66C39.3564 37.2067 39.143 37.7933 38.903 38.42C38.663 39.0333 38.4164 39.6467 38.163 40.26C37.923 40.86 37.6897 41.4333 37.463 41.98C37.2364 42.5267 37.043 43 36.883 43.4C36.7764 43.64 36.6697 43.8 36.563 43.88C36.4697 43.96 36.2964 44 36.043 44H34.863C34.4897 44 34.183 43.9533 33.943 43.86C33.703 43.7667 33.5097 43.64 33.363 43.48C33.2164 43.32 33.103 43.14 33.023 42.94C32.943 42.7267 32.883 42.5 32.843 42.26C32.7097 41.58 32.5697 40.6667 32.423 39.52C32.2764 38.3733 32.143 37.02 32.023 35.46C31.9564 35.7533 31.8764 36.1467 31.783 36.64C31.703 37.1333 31.6097 37.6667 31.503 38.24C31.4097 38.8133 31.3097 39.4 31.203 40C31.0964 40.6 30.9964 41.16 30.903 41.68C30.8097 42.1867 30.723 42.6267 30.643 43C30.563 43.36 30.4964 43.5933 30.443 43.7C30.3764 43.8333 30.2897 43.92 30.183 43.96C30.0897 43.9867 29.9497 44 29.763 44H28.363C28.0164 44 27.7164 43.9533 27.463 43.86C27.223 43.7533 27.0097 43.62 26.823 43.46C26.6497 43.3 26.503 43.12 26.383 42.92C26.2764 42.7067 26.1964 42.4867 26.143 42.26C25.4097 39.4067 24.8564 37.2533 24.483 35.8C24.123 34.3467 23.943 33.5667 23.943 33.46C23.943 33.34 24.003 33.2333 24.123 33.14C24.243 33.0467 24.3964 33 24.583 33C25.1564 33 25.6497 33.0267 26.063 33.08C26.4764 33.12 26.8164 33.2 27.083 33.32C27.363 33.44 27.5764 33.6067 27.723 33.82C27.8697 34.0333 27.963 34.3133 28.003 34.66C28.0164 34.8467 28.043 35.2267 28.083 35.8C28.123 36.3733 28.163 37.0267 28.203 37.76C28.2564 38.48 28.303 39.2133 28.343 39.96C28.3964 40.7067 28.443 41.34 28.483 41.86C28.643 41.0333 28.7697 40.3733 28.863 39.88C28.9697 39.3867 29.0564 38.9733 29.123 38.64C29.1897 38.3067 29.243 38.0133 29.283 37.76C29.3364 37.5067 29.3964 37.2067 29.463 36.86C29.5297 36.5133 29.603 36.08 29.683 35.56C29.7764 35.04 29.903 34.3467 30.063 33.48C30.1164 33.16 30.4697 33 31.123 33C31.5364 33 31.923 33.0133 32.283 33.04C32.643 33.0667 32.963 33.1333 33.243 33.24C33.523 33.3333 33.763 33.48 33.963 33.68C34.163 33.8667 34.303 34.1267 34.383 34.46C34.4097 34.5533 34.4297 34.6467 34.443 34.74C34.4697 34.8333 34.4964 34.9667 34.523 35.14C34.5497 35.3133 34.5764 35.5533 34.603 35.86C34.643 36.1667 34.683 36.58 34.723 37.1C34.7764 37.62 34.8364 38.2667 34.903 39.04C34.9697 39.8133 35.0564 40.7533 35.163 41.86ZM43.2804 44C42.8671 44 42.5271 43.96 42.2604 43.88C42.0071 43.7867 41.8004 43.66 41.6404 43.5C41.4937 43.34 41.3871 43.1467 41.3204 42.92C41.2671 42.68 41.2404 42.4067 41.2404 42.1C41.2404 41.9 41.2471 41.62 41.2604 41.26C41.2871 40.8867 41.3271 40.38 41.3804 39.74C41.4337 39.0867 41.4937 38.2667 41.5604 37.28C41.6404 36.28 41.7337 35.0467 41.8404 33.58C41.8537 33.2867 41.8871 33.1133 41.9404 33.06C41.9804 33.02 42.0871 33 42.2604 33H43.0404C43.4537 33 43.7871 33.04 44.0404 33.12C44.3071 33.2 44.5137 33.32 44.6604 33.48C44.8204 33.64 44.9271 33.8333 44.9804 34.06C45.0471 34.2867 45.0804 34.54 45.0804 34.82C45.0804 35.02 45.0671 35.32 45.0404 35.72C45.0137 36.12 44.9737 36.6667 44.9204 37.36C44.8804 38.04 44.8204 38.8933 44.7404 39.92C44.6604 40.9333 44.5604 42.16 44.4404 43.6C44.4271 43.76 44.3937 43.8667 44.3404 43.92C44.2871 43.9733 44.1737 44 44.0004 44H43.2804ZM41.8604 30.64C41.8604 30.1067 42.0537 29.6867 42.4404 29.38C42.8271 29.0733 43.3471 28.92 44.0004 28.92C44.5737 28.92 44.9871 29.04 45.2404 29.28C45.5071 29.5067 45.6404 29.8133 45.6404 30.2C45.6404 30.6933 45.4537 31.1067 45.0804 31.44C44.7204 31.76 44.1871 31.92 43.4804 31.92C42.4004 31.92 41.8604 31.4933 41.8604 30.64ZM51.8854 41.54C52.2721 41.54 52.6054 41.4867 52.8854 41.38C53.1787 41.2733 53.4321 41.1533 53.6454 41.02C53.8587 40.8867 54.0387 40.7667 54.1854 40.66C54.3321 40.5533 54.4654 40.5 54.5854 40.5C54.8921 40.5 55.0454 40.7 55.0454 41.1C55.0454 41.1933 55.0254 41.3267 54.9854 41.5C54.9454 41.66 54.8921 41.8333 54.8254 42.02C54.7587 42.1933 54.6854 42.36 54.6054 42.52C54.5387 42.68 54.4721 42.8 54.4054 42.88C54.3387 42.9467 54.2187 43.0533 54.0454 43.2C53.8854 43.3467 53.6654 43.4933 53.3854 43.64C53.1054 43.7867 52.7787 43.9133 52.4054 44.02C52.0321 44.14 51.6187 44.2 51.1654 44.2C50.6587 44.2 50.1321 44.1267 49.5854 43.98C49.0521 43.82 48.5654 43.5533 48.1254 43.18C47.6854 42.7933 47.3187 42.28 47.0254 41.64C46.7454 40.9867 46.6054 40.1733 46.6054 39.2C46.6054 38.8533 46.6254 38.46 46.6654 38.02C46.7187 37.5667 46.8187 37.1067 46.9654 36.64C47.1121 36.16 47.3054 35.6933 47.5454 35.24C47.7987 34.7733 48.1321 34.36 48.5454 34C48.9587 33.64 49.4521 33.3533 50.0254 33.14C50.6121 32.9133 51.3054 32.8 52.1054 32.8C52.7587 32.8 53.3187 32.88 53.7854 33.04C54.2654 33.1867 54.6587 33.3933 54.9654 33.66C55.2721 33.9133 55.4987 34.2133 55.6454 34.56C55.8054 34.9067 55.8854 35.28 55.8854 35.68C55.8854 36.4 55.6587 36.9333 55.2054 37.28C54.7521 37.6133 54.1121 37.78 53.2854 37.78C53.0854 37.78 52.9454 37.7667 52.8654 37.74C52.7987 37.7 52.7654 37.62 52.7654 37.5C52.7654 37.18 52.7587 36.8933 52.7454 36.64C52.7321 36.3867 52.6921 36.1733 52.6254 36C52.5721 35.8267 52.4854 35.6933 52.3654 35.6C52.2454 35.5067 52.0721 35.46 51.8454 35.46C51.4321 35.46 51.0987 35.5933 50.8454 35.86C50.6054 36.1267 50.4187 36.4533 50.2854 36.84C50.1654 37.2133 50.0854 37.6 50.0454 38C50.0187 38.4 50.0054 38.7333 50.0054 39C50.0054 39.9467 50.1521 40.6067 50.4454 40.98C50.7521 41.3533 51.2321 41.54 51.8854 41.54ZM61.6216 44.2C61.035 44.2 60.4483 44.1267 59.8616 43.98C59.2883 43.8333 58.7683 43.58 58.3016 43.22C57.8483 42.86 57.475 42.38 57.1816 41.78C56.8883 41.18 56.7416 40.4267 56.7416 39.52C56.7416 39.1867 56.7683 38.7867 56.8216 38.32C56.875 37.8533 56.975 37.3733 57.1216 36.88C57.2816 36.3867 57.495 35.9 57.7616 35.42C58.0416 34.9267 58.4016 34.4867 58.8416 34.1C59.2816 33.7133 59.815 33.4 60.4416 33.16C61.0683 32.92 61.815 32.8 62.6816 32.8C63.375 32.8 63.9616 32.88 64.4416 33.04C64.9216 33.2 65.3083 33.42 65.6016 33.7C65.895 33.9667 66.1083 34.28 66.2416 34.64C66.375 35 66.4416 35.3867 66.4416 35.8C66.4416 36.4133 66.315 36.9333 66.0616 37.36C65.8216 37.7867 65.5016 38.1467 65.1016 38.44C64.715 38.72 64.2816 38.94 63.8016 39.1C63.3216 39.26 62.8483 39.3867 62.3816 39.48C61.915 39.56 61.4816 39.6133 61.0816 39.64C60.695 39.6533 60.395 39.66 60.1816 39.66C60.1816 39.9133 60.215 40.1667 60.2816 40.42C60.3616 40.66 60.475 40.8733 60.6216 41.06C60.7683 41.2467 60.9616 41.4 61.2016 41.52C61.4416 41.64 61.735 41.7 62.0816 41.7C62.4283 41.7 62.695 41.6467 62.8816 41.54C63.0816 41.42 63.2416 41.2933 63.3616 41.16C63.4816 41.0133 63.5816 40.8867 63.6616 40.78C63.755 40.66 63.875 40.6 64.0216 40.6C64.0883 40.6 64.2016 40.62 64.3616 40.66C64.535 40.6867 64.7083 40.7533 64.8816 40.86C65.055 40.9667 65.2083 41.1133 65.3416 41.3C65.475 41.4867 65.5416 41.7267 65.5416 42.02C65.5416 42.4067 65.4216 42.74 65.1816 43.02C64.9416 43.3 64.6283 43.5267 64.2416 43.7C63.8683 43.8733 63.4483 44 62.9816 44.08C62.515 44.16 62.0616 44.2 61.6216 44.2ZM62.0016 35.46C61.7083 35.46 61.455 35.5467 61.2416 35.72C61.0416 35.88 60.8683 36.0867 60.7216 36.34C60.5883 36.5933 60.4816 36.8733 60.4016 37.18C60.335 37.4867 60.2816 37.78 60.2416 38.06C61.0683 38.0467 61.735 37.9067 62.2416 37.64C62.7616 37.3733 63.0216 36.9933 63.0216 36.5C63.0216 36.2333 62.935 35.9933 62.7616 35.78C62.6016 35.5667 62.3483 35.46 62.0016 35.46ZM74.003 44C73.5897 44 73.2497 43.96 72.983 43.88C72.7297 43.7867 72.523 43.66 72.363 43.5C72.2164 43.34 72.1097 43.1467 72.043 42.92C71.9897 42.68 71.963 42.4067 71.963 42.1C71.963 41.9 71.9697 41.62 71.983 41.26C72.0097 40.8867 72.0497 40.38 72.103 39.74C72.1564 39.0867 72.2164 38.2667 72.283 37.28C72.363 36.28 72.4564 35.0467 72.563 33.58C72.5764 33.2867 72.6097 33.1133 72.663 33.06C72.703 33.02 72.8097 33 72.983 33H73.763C74.1764 33 74.5097 33.04 74.763 33.12C75.0297 33.2 75.2364 33.32 75.383 33.48C75.543 33.64 75.6497 33.8333 75.703 34.06C75.7697 34.2867 75.803 34.54 75.803 34.82C75.803 35.02 75.7897 35.32 75.763 35.72C75.7364 36.12 75.6964 36.6667 75.643 37.36C75.603 38.04 75.543 38.8933 75.463 39.92C75.383 40.9333 75.283 42.16 75.163 43.6C75.1497 43.76 75.1164 43.8667 75.063 43.92C75.0097 43.9733 74.8964 44 74.723 44H74.003ZM72.583 30.64C72.583 30.1067 72.7764 29.6867 73.163 29.38C73.5497 29.0733 74.0697 28.92 74.723 28.92C75.2964 28.92 75.7097 29.04 75.963 29.28C76.2297 29.5067 76.363 29.8133 76.363 30.2C76.363 30.6933 76.1764 31.1067 75.803 31.44C75.443 31.76 74.9097 31.92 74.203 31.92C73.123 31.92 72.583 31.4933 72.583 30.64ZM84.388 42.24C84.388 41.9467 84.408 41.5667 84.448 41.1C84.5014 40.62 84.548 40.12 84.588 39.6C84.6414 39.0667 84.688 38.5533 84.728 38.06C84.7814 37.5667 84.808 37.1533 84.808 36.82C84.808 36.4733 84.7214 36.1667 84.548 35.9C84.388 35.62 84.068 35.48 83.588 35.48C83.1214 35.48 82.7347 35.5933 82.428 35.82C82.1214 36.0467 81.8614 36.46 81.648 37.06C81.448 37.66 81.2814 38.4867 81.148 39.54C81.0147 40.5933 80.888 41.9467 80.768 43.6C80.7547 43.76 80.7214 43.8667 80.668 43.92C80.6147 43.9733 80.5014 44 80.328 44H79.608C79.1947 44 78.8547 43.96 78.588 43.88C78.3347 43.7867 78.128 43.66 77.968 43.5C77.8214 43.34 77.7147 43.1467 77.648 42.92C77.5947 42.68 77.568 42.4067 77.568 42.1C77.568 41.9 77.5747 41.62 77.588 41.26C77.6147 40.8867 77.6547 40.38 77.708 39.74C77.7614 39.0867 77.8214 38.2667 77.888 37.28C77.968 36.28 78.0614 35.0467 78.168 33.58C78.1814 33.2867 78.2147 33.1133 78.268 33.06C78.308 33.02 78.4147 33 78.588 33H79.368C79.768 33 80.0947 33.0467 80.348 33.14C80.6147 33.2333 80.828 33.36 80.988 33.52C81.148 33.6667 81.2614 33.8467 81.328 34.06C81.3947 34.26 81.4347 34.4667 81.448 34.68C81.8614 33.9733 82.3347 33.4867 82.868 33.22C83.4014 32.94 84.068 32.8 84.868 32.8C85.428 32.8 85.9147 32.86 86.328 32.98C86.7414 33.1 87.0814 33.3067 87.348 33.6C87.628 33.88 87.8347 34.2533 87.968 34.72C88.1014 35.1733 88.168 35.74 88.168 36.42C88.168 36.6333 88.1547 36.94 88.128 37.34C88.1014 37.74 88.068 38.18 88.028 38.66C87.988 39.1267 87.9414 39.62 87.888 40.14C87.848 40.6467 87.808 41.12 87.768 41.56C87.728 42 87.6947 42.3867 87.668 42.72C87.6414 43.0533 87.628 43.2733 87.628 43.38C87.628 43.6733 87.5947 43.8533 87.528 43.92C87.4614 43.9733 87.3147 44 87.088 44H86.448C86.0214 44 85.6747 43.96 85.408 43.88C85.1414 43.8 84.9347 43.6867 84.788 43.54C84.6414 43.3933 84.5347 43.2133 84.468 43C84.4147 42.7733 84.388 42.52 84.388 42.24ZM93.6477 41.54C93.6477 40.34 94.1877 39.4 95.2677 38.72C96.3477 38.04 97.9411 37.6733 100.048 37.62C100.061 37.4733 100.068 37.3533 100.068 37.26C100.081 37.1533 100.088 37.0267 100.088 36.88C100.088 36.4533 100.008 36.1133 99.8477 35.86C99.6877 35.6067 99.3544 35.48 98.8477 35.48C98.5677 35.48 98.3411 35.52 98.1677 35.6C97.9944 35.68 97.8544 35.7933 97.7477 35.94C97.6411 36.0733 97.5544 36.24 97.4877 36.44C97.4211 36.64 97.3611 36.86 97.3077 37.1C97.2811 37.22 97.2211 37.3 97.1277 37.34C97.0344 37.3667 96.8877 37.38 96.6877 37.38C95.3277 37.38 94.6477 36.8667 94.6477 35.84C94.6477 35.4267 94.7411 35.0333 94.9277 34.66C95.1277 34.2867 95.4144 33.9667 95.7877 33.7C96.1744 33.42 96.6544 33.2 97.2277 33.04C97.8011 32.88 98.4677 32.8 99.2277 32.8C100.708 32.8 101.781 33.1067 102.448 33.72C103.114 34.3333 103.448 35.2 103.448 36.32C103.448 36.4667 103.428 36.7333 103.388 37.12C103.361 37.4933 103.321 37.8933 103.268 38.32C103.228 38.7333 103.188 39.1267 103.148 39.5C103.121 39.8733 103.108 40.1333 103.108 40.28C103.108 40.6133 103.168 40.8533 103.288 41C103.408 41.1333 103.541 41.2267 103.688 41.28C103.848 41.3333 103.988 41.3733 104.108 41.4C104.228 41.4267 104.288 41.4933 104.288 41.6C104.288 41.8933 104.248 42.1933 104.168 42.5C104.088 42.8067 103.954 43.0867 103.768 43.34C103.594 43.5933 103.348 43.8 103.028 43.96C102.721 44.12 102.341 44.2 101.888 44.2C101.248 44.2 100.768 44.0467 100.448 43.74C100.128 43.4333 99.9144 43.0067 99.8077 42.46C99.4877 42.9267 99.0677 43.3333 98.5477 43.68C98.0411 44.0267 97.3744 44.2 96.5477 44.2C96.1477 44.2 95.7677 44.1533 95.4077 44.06C95.0611 43.9667 94.7544 43.8133 94.4877 43.6C94.2344 43.3867 94.0277 43.1133 93.8677 42.78C93.7211 42.4333 93.6477 42.02 93.6477 41.54ZM99.8677 39.26C99.5211 39.26 99.1811 39.2867 98.8477 39.34C98.5144 39.3933 98.2144 39.48 97.9477 39.6C97.6944 39.7067 97.4877 39.8533 97.3277 40.04C97.1677 40.2267 97.0877 40.4533 97.0877 40.72C97.0877 41.0267 97.1811 41.24 97.3677 41.36C97.5677 41.48 97.7811 41.54 98.0077 41.54C98.2211 41.54 98.4344 41.4933 98.6477 41.4C98.8611 41.3067 99.0477 41.1667 99.2077 40.98C99.3811 40.78 99.5277 40.54 99.6477 40.26C99.7677 39.98 99.8411 39.6467 99.8677 39.26ZM30.1902 61.78C30.1102 61.78 30.0168 61.78 29.9102 61.78C29.8168 61.7667 29.7235 61.7533 29.6302 61.74C29.5368 61.7133 29.4568 61.6867 29.3902 61.66C29.3235 61.62 29.2902 61.5733 29.2902 61.52C29.2902 61.3467 29.2968 61.1867 29.3102 61.04C29.3235 60.8933 29.3302 60.74 29.3302 60.58C29.3302 60.2867 29.2902 60.0467 29.2102 59.86C29.1302 59.6733 28.9702 59.58 28.7302 59.58C28.3568 59.58 28.0435 59.8267 27.7902 60.32C27.5502 60.8 27.3968 61.5267 27.3302 62.5C27.3035 62.9267 27.2635 63.4133 27.2102 63.96C27.1702 64.4933 27.1302 65.0133 27.0902 65.52C27.0502 66.0133 27.0168 66.4533 26.9902 66.84C26.9635 67.2267 26.9502 67.48 26.9502 67.6C26.9502 67.7333 26.9035 67.8333 26.8102 67.9C26.7168 67.9667 26.6168 68 26.5102 68H25.7902C25.3768 68 25.0368 67.96 24.7702 67.88C24.5168 67.7867 24.3102 67.66 24.1502 67.5C24.0035 67.34 23.8968 67.1467 23.8302 66.92C23.7768 66.68 23.7502 66.4067 23.7502 66.1C23.7502 65.9 23.7568 65.62 23.7702 65.26C23.7968 64.8867 23.8368 64.38 23.8902 63.74C23.9435 63.0867 24.0035 62.2667 24.0702 61.28C24.1502 60.28 24.2435 59.0467 24.3502 57.58C24.3768 57.1933 24.5168 57 24.7702 57H25.5502C25.9235 57 26.2368 57.04 26.4902 57.12C26.7435 57.2 26.9502 57.3133 27.1102 57.46C27.2702 57.5933 27.3835 57.7533 27.4502 57.94C27.5302 58.1267 27.5835 58.32 27.6102 58.52C27.7702 58.2133 27.9568 57.9533 28.1702 57.74C28.3968 57.5133 28.6302 57.3333 28.8702 57.2C29.1102 57.0533 29.3568 56.9533 29.6102 56.9C29.8635 56.8333 30.0968 56.8 30.3102 56.8C30.5635 56.8 30.8168 56.8467 31.0702 56.94C31.3368 57.0333 31.5768 57.1733 31.7902 57.36C32.0035 57.5467 32.1702 57.7867 32.2902 58.08C32.4235 58.3733 32.4902 58.72 32.4902 59.12C32.4902 59.48 32.4368 59.82 32.3302 60.14C32.2235 60.46 32.0702 60.7467 31.8702 61C31.6702 61.24 31.4235 61.4333 31.1302 61.58C30.8502 61.7133 30.5368 61.78 30.1902 61.78ZM37.7805 68.2C36.8605 68.2 36.0938 68.0733 35.4805 67.82C34.8805 67.5533 34.4005 67.1933 34.0405 66.74C33.6805 66.2867 33.4271 65.76 33.2805 65.16C33.1338 64.5467 33.0605 63.8933 33.0605 63.2C33.0605 62.4 33.1538 61.62 33.3405 60.86C33.5405 60.0867 33.8738 59.4 34.3405 58.8C34.8071 58.2 35.4205 57.72 36.1805 57.36C36.9538 56.9867 37.9138 56.8 39.0605 56.8C40.7405 56.8 41.9405 57.2133 42.6605 58.04C43.3938 58.8533 43.7605 60 43.7605 61.48C43.7605 61.8933 43.7271 62.3533 43.6605 62.86C43.6071 63.3533 43.4938 63.8467 43.3205 64.34C43.1605 64.8333 42.9338 65.3133 42.6405 65.78C42.3605 66.2467 42.0005 66.66 41.5605 67.02C41.1205 67.38 40.5871 67.6667 39.9605 67.88C39.3471 68.0933 38.6205 68.2 37.7805 68.2ZM38.7205 59.46C38.2138 59.46 37.8071 59.5933 37.5005 59.86C37.2071 60.1133 36.9805 60.4267 36.8205 60.8C36.6738 61.16 36.5738 61.5467 36.5205 61.96C36.4805 62.36 36.4605 62.7 36.4605 62.98C36.4605 63.86 36.6005 64.5067 36.8805 64.92C37.1605 65.3333 37.5605 65.54 38.0805 65.54C38.5471 65.54 38.9271 65.3933 39.2205 65.1C39.5271 64.8067 39.7605 64.4533 39.9205 64.04C40.0938 63.6267 40.2071 63.1933 40.2605 62.74C40.3271 62.2867 40.3605 61.9067 40.3605 61.6C40.3605 60.9333 40.2338 60.4133 39.9805 60.04C39.7405 59.6533 39.3205 59.46 38.7205 59.46ZM55.8369 65.86C56.0102 64.8867 56.1569 64.04 56.2769 63.32C56.4102 62.5867 56.5169 61.9533 56.5969 61.42C56.6902 60.8867 56.7635 60.4267 56.8169 60.04C56.8835 59.6533 56.9369 59.3133 56.9769 59.02C57.0302 58.7133 57.0702 58.4467 57.0969 58.22C57.1369 57.98 57.1769 57.7333 57.2169 57.48C57.2435 57.3333 57.3102 57.22 57.4169 57.14C57.5369 57.06 57.7569 57.02 58.0769 57.02C58.2502 57.02 58.4902 57.0333 58.7969 57.06C59.1169 57.0733 59.4302 57.12 59.7369 57.2C60.0435 57.28 60.3035 57.4067 60.5169 57.58C60.7435 57.74 60.8569 57.9667 60.8569 58.26C60.8569 58.4733 60.7969 58.7933 60.6769 59.22C60.5569 59.6333 60.4035 60.1133 60.2169 60.66C60.0302 61.2067 59.8169 61.7933 59.5769 62.42C59.3369 63.0333 59.0902 63.6467 58.8369 64.26C58.5969 64.86 58.3635 65.4333 58.1369 65.98C57.9102 66.5267 57.7169 67 57.5569 67.4C57.4502 67.64 57.3435 67.8 57.2369 67.88C57.1435 67.96 56.9702 68 56.7169 68H55.5369C55.1635 68 54.8569 67.9533 54.6169 67.86C54.3769 67.7667 54.1835 67.64 54.0369 67.48C53.8902 67.32 53.7769 67.14 53.6969 66.94C53.6169 66.7267 53.5569 66.5 53.5169 66.26C53.3835 65.58 53.2435 64.6667 53.0969 63.52C52.9502 62.3733 52.8169 61.02 52.6969 59.46C52.6302 59.7533 52.5502 60.1467 52.4569 60.64C52.3769 61.1333 52.2835 61.6667 52.1769 62.24C52.0835 62.8133 51.9835 63.4 51.8769 64C51.7702 64.6 51.6702 65.16 51.5769 65.68C51.4835 66.1867 51.3969 66.6267 51.3169 67C51.2369 67.36 51.1702 67.5933 51.1169 67.7C51.0502 67.8333 50.9635 67.92 50.8569 67.96C50.7635 67.9867 50.6235 68 50.4369 68H49.0369C48.6902 68 48.3902 67.9533 48.1369 67.86C47.8969 67.7533 47.6835 67.62 47.4969 67.46C47.3235 67.3 47.1769 67.12 47.0569 66.92C46.9502 66.7067 46.8702 66.4867 46.8169 66.26C46.0835 63.4067 45.5302 61.2533 45.1569 59.8C44.7969 58.3467 44.6169 57.5667 44.6169 57.46C44.6169 57.34 44.6769 57.2333 44.7969 57.14C44.9169 57.0467 45.0702 57 45.2569 57C45.8302 57 46.3235 57.0267 46.7369 57.08C47.1502 57.12 47.4902 57.2 47.7569 57.32C48.0369 57.44 48.2502 57.6067 48.3969 57.82C48.5435 58.0333 48.6369 58.3133 48.6769 58.66C48.6902 58.8467 48.7169 59.2267 48.7569 59.8C48.7969 60.3733 48.8369 61.0267 48.8769 61.76C48.9302 62.48 48.9769 63.2133 49.0169 63.96C49.0702 64.7067 49.1169 65.34 49.1569 65.86C49.3169 65.0333 49.4435 64.3733 49.5369 63.88C49.6435 63.3867 49.7302 62.9733 49.7969 62.64C49.8635 62.3067 49.9169 62.0133 49.9569 61.76C50.0102 61.5067 50.0702 61.2067 50.1369 60.86C50.2035 60.5133 50.2769 60.08 50.3569 59.56C50.4502 59.04 50.5769 58.3467 50.7369 57.48C50.7902 57.16 51.1435 57 51.7969 57C52.2102 57 52.5969 57.0133 52.9569 57.04C53.3169 57.0667 53.6369 57.1333 53.9169 57.24C54.1969 57.3333 54.4369 57.48 54.6369 57.68C54.8369 57.8667 54.9769 58.1267 55.0569 58.46C55.0835 58.5533 55.1035 58.6467 55.1169 58.74C55.1435 58.8333 55.1702 58.9667 55.1969 59.14C55.2235 59.3133 55.2502 59.5533 55.2769 59.86C55.3169 60.1667 55.3569 60.58 55.3969 61.1C55.4502 61.62 55.5102 62.2667 55.5769 63.04C55.6435 63.8133 55.7302 64.7533 55.8369 65.86ZM72.7595 56.8C74.0129 56.8 74.9529 57.1867 75.5795 57.96C76.2195 58.7333 76.5395 59.9533 76.5395 61.62C76.5395 62.66 76.4195 63.5867 76.1795 64.4C75.9395 65.2133 75.6062 65.9067 75.1795 66.48C74.7529 67.04 74.2529 67.4667 73.6795 67.76C73.1062 68.0533 72.4862 68.2 71.8195 68.2C71.1129 68.2 70.5595 68.0467 70.1595 67.74C69.7595 67.4333 69.4462 67 69.2195 66.44C69.1795 66.92 69.1462 67.2867 69.1195 67.54C69.0929 67.7933 69.0729 67.9933 69.0595 68.14C69.0462 68.3 69.0329 68.44 69.0195 68.56C69.0195 68.68 69.0062 68.84 68.9795 69.04C68.9662 69.24 68.9462 69.5133 68.9195 69.86C68.8929 70.2067 68.8529 70.6867 68.7995 71.3C68.7862 71.46 68.7529 71.5667 68.6995 71.62C68.6462 71.6733 68.5329 71.7 68.3595 71.7H67.6395C67.2262 71.7 66.8862 71.6533 66.6195 71.56C66.3662 71.48 66.1595 71.36 65.9995 71.2C65.8529 71.04 65.7462 70.84 65.6795 70.6C65.6262 70.3733 65.5995 70.1067 65.5995 69.8C65.5995 69.6667 65.6195 69.3067 65.6595 68.72C65.6995 68.1333 65.7462 67.4333 65.7995 66.62C65.8662 65.7933 65.9329 64.9067 65.9995 63.96C66.0795 63.0133 66.1529 62.1133 66.2195 61.26C66.2862 60.3933 66.3395 59.6267 66.3795 58.96C66.4329 58.2933 66.4729 57.8333 66.4995 57.58C66.5129 57.2867 66.5462 57.1133 66.5995 57.06C66.6395 57.02 66.7462 57 66.9195 57H67.6995C68.4195 57 68.9395 57.1533 69.2595 57.46C69.5929 57.7533 69.7595 58.1067 69.7595 58.52C70.0662 57.9067 70.4595 57.4667 70.9395 57.2C71.4329 56.9333 72.0395 56.8 72.7595 56.8ZM71.2995 59.46C70.6195 59.46 70.1195 59.7533 69.7995 60.34C69.4795 60.9267 69.3195 61.7267 69.3195 62.74C69.3195 63.0867 69.3395 63.4267 69.3795 63.76C69.4329 64.0933 69.5195 64.3933 69.6395 64.66C69.7595 64.9267 69.9195 65.14 70.1195 65.3C70.3329 65.46 70.5995 65.54 70.9195 65.54C71.4929 65.54 71.9729 65.26 72.3595 64.7C72.7462 64.14 72.9395 63.26 72.9395 62.06C72.9395 61.7267 72.9129 61.4067 72.8595 61.1C72.8195 60.78 72.7395 60.5 72.6195 60.26C72.4995 60.02 72.3329 59.8267 72.1195 59.68C71.9062 59.5333 71.6329 59.46 71.2995 59.46ZM82.7056 68.2C82.119 68.2 81.5323 68.1267 80.9456 67.98C80.3723 67.8333 79.8523 67.58 79.3856 67.22C78.9323 66.86 78.559 66.38 78.2656 65.78C77.9723 65.18 77.8256 64.4267 77.8256 63.52C77.8256 63.1867 77.8523 62.7867 77.9056 62.32C77.959 61.8533 78.059 61.3733 78.2056 60.88C78.3656 60.3867 78.579 59.9 78.8456 59.42C79.1256 58.9267 79.4856 58.4867 79.9256 58.1C80.3656 57.7133 80.899 57.4 81.5256 57.16C82.1523 56.92 82.899 56.8 83.7656 56.8C84.459 56.8 85.0456 56.88 85.5256 57.04C86.0056 57.2 86.3923 57.42 86.6856 57.7C86.979 57.9667 87.1923 58.28 87.3256 58.64C87.459 59 87.5256 59.3867 87.5256 59.8C87.5256 60.4133 87.399 60.9333 87.1456 61.36C86.9056 61.7867 86.5856 62.1467 86.1856 62.44C85.799 62.72 85.3656 62.94 84.8856 63.1C84.4056 63.26 83.9323 63.3867 83.4656 63.48C82.999 63.56 82.5656 63.6133 82.1656 63.64C81.779 63.6533 81.479 63.66 81.2656 63.66C81.2656 63.9133 81.299 64.1667 81.3656 64.42C81.4456 64.66 81.559 64.8733 81.7056 65.06C81.8523 65.2467 82.0456 65.4 82.2856 65.52C82.5256 65.64 82.819 65.7 83.1656 65.7C83.5123 65.7 83.779 65.6467 83.9656 65.54C84.1656 65.42 84.3256 65.2933 84.4456 65.16C84.5656 65.0133 84.6656 64.8867 84.7456 64.78C84.839 64.66 84.959 64.6 85.1056 64.6C85.1723 64.6 85.2856 64.62 85.4456 64.66C85.619 64.6867 85.7923 64.7533 85.9656 64.86C86.139 64.9667 86.2923 65.1133 86.4256 65.3C86.559 65.4867 86.6256 65.7267 86.6256 66.02C86.6256 66.4067 86.5056 66.74 86.2656 67.02C86.0256 67.3 85.7123 67.5267 85.3256 67.7C84.9523 67.8733 84.5323 68 84.0656 68.08C83.599 68.16 83.1456 68.2 82.7056 68.2ZM83.0856 59.46C82.7923 59.46 82.539 59.5467 82.3256 59.72C82.1256 59.88 81.9523 60.0867 81.8056 60.34C81.6723 60.5933 81.5656 60.8733 81.4856 61.18C81.419 61.4867 81.3656 61.78 81.3256 62.06C82.1523 62.0467 82.819 61.9067 83.3256 61.64C83.8456 61.3733 84.1056 60.9933 84.1056 60.5C84.1056 60.2333 84.019 59.9933 83.8456 59.78C83.6856 59.5667 83.4323 59.46 83.0856 59.46ZM95.1902 61.78C95.1102 61.78 95.0168 61.78 94.9102 61.78C94.8168 61.7667 94.7235 61.7533 94.6302 61.74C94.5368 61.7133 94.4568 61.6867 94.3902 61.66C94.3235 61.62 94.2902 61.5733 94.2902 61.52C94.2902 61.3467 94.2968 61.1867 94.3102 61.04C94.3235 60.8933 94.3302 60.74 94.3302 60.58C94.3302 60.2867 94.2902 60.0467 94.2102 59.86C94.1302 59.6733 93.9702 59.58 93.7302 59.58C93.3568 59.58 93.0435 59.8267 92.7902 60.32C92.5502 60.8 92.3968 61.5267 92.3302 62.5C92.3035 62.9267 92.2635 63.4133 92.2102 63.96C92.1702 64.4933 92.1302 65.0133 92.0902 65.52C92.0502 66.0133 92.0168 66.4533 91.9902 66.84C91.9635 67.2267 91.9502 67.48 91.9502 67.6C91.9502 67.7333 91.9035 67.8333 91.8102 67.9C91.7168 67.9667 91.6168 68 91.5102 68H90.7902C90.3768 68 90.0368 67.96 89.7702 67.88C89.5168 67.7867 89.3102 67.66 89.1502 67.5C89.0035 67.34 88.8968 67.1467 88.8302 66.92C88.7768 66.68 88.7502 66.4067 88.7502 66.1C88.7502 65.9 88.7568 65.62 88.7702 65.26C88.7968 64.8867 88.8368 64.38 88.8902 63.74C88.9435 63.0867 89.0035 62.2667 89.0702 61.28C89.1502 60.28 89.2435 59.0467 89.3502 57.58C89.3768 57.1933 89.5168 57 89.7702 57H90.5502C90.9235 57 91.2368 57.04 91.4902 57.12C91.7435 57.2 91.9502 57.3133 92.1102 57.46C92.2702 57.5933 92.3835 57.7533 92.4502 57.94C92.5302 58.1267 92.5835 58.32 92.6102 58.52C92.7702 58.2133 92.9568 57.9533 93.1702 57.74C93.3968 57.5133 93.6302 57.3333 93.8702 57.2C94.1102 57.0533 94.3568 56.9533 94.6102 56.9C94.8635 56.8333 95.0968 56.8 95.3102 56.8C95.5635 56.8 95.8168 56.8467 96.0702 56.94C96.3368 57.0333 96.5768 57.1733 96.7902 57.36C97.0035 57.5467 97.1702 57.7867 97.2902 58.08C97.4235 58.3733 97.4902 58.72 97.4902 59.12C97.4902 59.48 97.4368 59.82 97.3302 60.14C97.2235 60.46 97.0702 60.7467 96.8702 61C96.6702 61.24 96.4235 61.4333 96.1302 61.58C95.8502 61.7133 95.5368 61.78 95.1902 61.78ZM38.2468 85.78C38.1668 85.78 38.0735 85.78 37.9668 85.78C37.8735 85.7667 37.7801 85.7533 37.6868 85.74C37.5935 85.7133 37.5135 85.6867 37.4468 85.66C37.3801 85.62 37.3468 85.5733 37.3468 85.52C37.3468 85.3467 37.3535 85.1867 37.3668 85.04C37.3801 84.8933 37.3868 84.74 37.3868 84.58C37.3868 84.2867 37.3468 84.0467 37.2668 83.86C37.1868 83.6733 37.0268 83.58 36.7868 83.58C36.4135 83.58 36.1001 83.8267 35.8468 84.32C35.6068 84.8 35.4535 85.5267 35.3868 86.5C35.3601 86.9267 35.3201 87.4133 35.2668 87.96C35.2268 88.4933 35.1868 89.0133 35.1468 89.52C35.1068 90.0133 35.0735 90.4533 35.0468 90.84C35.0201 91.2267 35.0068 91.48 35.0068 91.6C35.0068 91.7333 34.9601 91.8333 34.8668 91.9C34.7735 91.9667 34.6735 92 34.5668 92H33.8468C33.4335 92 33.0935 91.96 32.8268 91.88C32.5735 91.7867 32.3668 91.66 32.2068 91.5C32.0601 91.34 31.9535 91.1467 31.8868 90.92C31.8335 90.68 31.8068 90.4067 31.8068 90.1C31.8068 89.9 31.8135 89.62 31.8268 89.26C31.8535 88.8867 31.8935 88.38 31.9468 87.74C32.0001 87.0867 32.0601 86.2667 32.1268 85.28C32.2068 84.28 32.3001 83.0467 32.4068 81.58C32.4335 81.1933 32.5735 81 32.8268 81H33.6068C33.9801 81 34.2935 81.04 34.5468 81.12C34.8001 81.2 35.0068 81.3133 35.1668 81.46C35.3268 81.5933 35.4401 81.7533 35.5068 81.94C35.5868 82.1267 35.6401 82.32 35.6668 82.52C35.8268 82.2133 36.0135 81.9533 36.2268 81.74C36.4535 81.5133 36.6868 81.3333 36.9268 81.2C37.1668 81.0533 37.4135 80.9533 37.6668 80.9C37.9201 80.8333 38.1535 80.8 38.3668 80.8C38.6201 80.8 38.8735 80.8467 39.1268 80.94C39.3935 81.0333 39.6335 81.1733 39.8468 81.36C40.0601 81.5467 40.2268 81.7867 40.3468 82.08C40.4801 82.3733 40.5468 82.72 40.5468 83.12C40.5468 83.48 40.4935 83.82 40.3868 84.14C40.2801 84.46 40.1268 84.7467 39.9268 85C39.7268 85.24 39.4801 85.4333 39.1868 85.58C38.9068 85.7133 38.5935 85.78 38.2468 85.78ZM45.8371 92.2C44.9171 92.2 44.1504 92.0733 43.5371 91.82C42.9371 91.5533 42.4571 91.1933 42.0971 90.74C41.7371 90.2867 41.4838 89.76 41.3371 89.16C41.1904 88.5467 41.1171 87.8933 41.1171 87.2C41.1171 86.4 41.2104 85.62 41.3971 84.86C41.5971 84.0867 41.9304 83.4 42.3971 82.8C42.8638 82.2 43.4771 81.72 44.2371 81.36C45.0104 80.9867 45.9704 80.8 47.1171 80.8C48.7971 80.8 49.9971 81.2133 50.7171 82.04C51.4504 82.8533 51.8171 84 51.8171 85.48C51.8171 85.8933 51.7838 86.3533 51.7171 86.86C51.6638 87.3533 51.5504 87.8467 51.3771 88.34C51.2171 88.8333 50.9904 89.3133 50.6971 89.78C50.4171 90.2467 50.0571 90.66 49.6171 91.02C49.1771 91.38 48.6438 91.6667 48.0171 91.88C47.4038 92.0933 46.6771 92.2 45.8371 92.2ZM46.7771 83.46C46.2704 83.46 45.8638 83.5933 45.5571 83.86C45.2638 84.1133 45.0371 84.4267 44.8771 84.8C44.7304 85.16 44.6304 85.5467 44.5771 85.96C44.5371 86.36 44.5171 86.7 44.5171 86.98C44.5171 87.86 44.6571 88.5067 44.9371 88.92C45.2171 89.3333 45.6171 89.54 46.1371 89.54C46.6038 89.54 46.9838 89.3933 47.2771 89.1C47.5838 88.8067 47.8171 88.4533 47.9771 88.04C48.1504 87.6267 48.2638 87.1933 48.3171 86.74C48.3838 86.2867 48.4171 85.9067 48.4171 85.6C48.4171 84.9333 48.2904 84.4133 48.0371 84.04C47.7971 83.6533 47.3771 83.46 46.7771 83.46ZM57.1302 82.7C57.1302 82.98 57.1036 83.3733 57.0502 83.88C57.0102 84.3867 56.9636 84.9133 56.9102 85.46C56.8702 86.0067 56.8236 86.52 56.7702 87C56.7302 87.48 56.7102 87.8267 56.7102 88.04C56.7102 88.5067 56.8236 88.8733 57.0502 89.14C57.2902 89.3933 57.6169 89.52 58.0302 89.52C58.3902 89.52 58.6902 89.38 58.9302 89.1C59.1836 88.8067 59.3836 88.4333 59.5302 87.98C59.6902 87.5133 59.8169 86.9867 59.9102 86.4C60.0036 85.8133 60.0702 85.22 60.1102 84.62C60.1636 84.02 60.2036 83.44 60.2302 82.88C60.2702 82.3067 60.3102 81.8133 60.3502 81.4C60.3636 81.2933 60.4036 81.2 60.4702 81.12C60.5369 81.04 60.6436 81 60.7902 81H61.5102C61.9236 81 62.2569 81.0467 62.5102 81.14C62.7769 81.22 62.9836 81.34 63.1302 81.5C63.2902 81.66 63.3969 81.86 63.4502 82.1C63.5169 82.3267 63.5502 82.5933 63.5502 82.9C63.5502 83.1 63.5369 83.3867 63.5102 83.76C63.4969 84.12 63.4636 84.6267 63.4102 85.28C63.3569 85.92 63.2902 86.74 63.2102 87.74C63.1436 88.7267 63.0569 89.9533 62.9502 91.42C62.9236 91.7 62.8902 91.8667 62.8502 91.92C62.8236 91.9733 62.7169 92 62.5302 92H61.7502C61.3502 92 61.0169 91.9533 60.7502 91.86C60.4969 91.7667 60.2902 91.6467 60.1302 91.5C59.9702 91.3533 59.8569 91.18 59.7902 90.98C59.7236 90.78 59.6836 90.5733 59.6702 90.36C59.4702 90.7067 59.2436 91 58.9902 91.24C58.7502 91.48 58.4969 91.6733 58.2302 91.82C57.9636 91.9533 57.6902 92.0467 57.4102 92.1C57.1302 92.1667 56.8569 92.2 56.5902 92.2C56.0836 92.2 55.6302 92.12 55.2302 91.96C54.8302 91.7867 54.4902 91.56 54.2102 91.28C53.9436 91 53.7369 90.6667 53.5902 90.28C53.4436 89.8933 53.3702 89.48 53.3702 89.04C53.3702 88.8667 53.3769 88.5867 53.3902 88.2C53.4169 87.8 53.4436 87.3533 53.4702 86.86C53.5102 86.3667 53.5502 85.8467 53.5902 85.3C53.6302 84.74 53.6636 84.2133 53.6902 83.72C53.7302 83.2267 53.7636 82.7933 53.7902 82.42C53.8302 82.0467 53.8569 81.78 53.8702 81.62C53.8969 81.38 53.9502 81.22 54.0302 81.14C54.1102 81.0467 54.2436 81 54.4302 81H55.0702C55.4836 81 55.8236 81.04 56.0902 81.12C56.3569 81.2 56.5636 81.3133 56.7102 81.46C56.8702 81.6067 56.9769 81.7867 57.0302 82C57.0969 82.2 57.1302 82.4333 57.1302 82.7ZM72.1224 90.24C72.1224 89.9467 72.1424 89.5667 72.1824 89.1C72.2358 88.62 72.2824 88.12 72.3224 87.6C72.3758 87.0667 72.4224 86.5533 72.4624 86.06C72.5158 85.5667 72.5424 85.1533 72.5424 84.82C72.5424 84.4733 72.4558 84.1667 72.2824 83.9C72.1224 83.62 71.8024 83.48 71.3224 83.48C70.8558 83.48 70.4691 83.5933 70.1624 83.82C69.8558 84.0467 69.5958 84.46 69.3824 85.06C69.1824 85.66 69.0158 86.4867 68.8824 87.54C68.7491 88.5933 68.6224 89.9467 68.5024 91.6C68.4891 91.76 68.4558 91.8667 68.4024 91.92C68.3491 91.9733 68.2358 92 68.0624 92H67.3424C66.9291 92 66.5891 91.96 66.3224 91.88C66.0691 91.7867 65.8624 91.66 65.7024 91.5C65.5558 91.34 65.4491 91.1467 65.3824 90.92C65.3291 90.68 65.3024 90.4067 65.3024 90.1C65.3024 89.9 65.3091 89.62 65.3224 89.26C65.3491 88.8867 65.3891 88.38 65.4424 87.74C65.4958 87.0867 65.5558 86.2667 65.6224 85.28C65.7024 84.28 65.7958 83.0467 65.9024 81.58C65.9158 81.2867 65.9491 81.1133 66.0024 81.06C66.0424 81.02 66.1491 81 66.3224 81H67.1024C67.5024 81 67.8291 81.0467 68.0824 81.14C68.3491 81.2333 68.5624 81.36 68.7224 81.52C68.8824 81.6667 68.9958 81.8467 69.0624 82.06C69.1291 82.26 69.1691 82.4667 69.1824 82.68C69.5958 81.9733 70.0691 81.4867 70.6024 81.22C71.1358 80.94 71.8024 80.8 72.6024 80.8C73.1624 80.8 73.6491 80.86 74.0624 80.98C74.4758 81.1 74.8158 81.3067 75.0824 81.6C75.3624 81.88 75.5691 82.2533 75.7024 82.72C75.8358 83.1733 75.9024 83.74 75.9024 84.42C75.9024 84.6333 75.8891 84.94 75.8624 85.34C75.8358 85.74 75.8024 86.18 75.7624 86.66C75.7224 87.1267 75.6758 87.62 75.6224 88.14C75.5824 88.6467 75.5424 89.12 75.5024 89.56C75.4624 90 75.4291 90.3867 75.4024 90.72C75.3758 91.0533 75.3624 91.2733 75.3624 91.38C75.3624 91.6733 75.3291 91.8533 75.2624 91.92C75.1958 91.9733 75.0491 92 74.8224 92H74.1824C73.7558 92 73.4091 91.96 73.1424 91.88C72.8758 91.8 72.6691 91.6867 72.5224 91.54C72.3758 91.3933 72.2691 91.2133 72.2024 91C72.1491 90.7733 72.1224 90.52 72.1224 90.24ZM81.3452 92.2C80.8252 92.2 80.3252 92.1067 79.8452 91.92C79.3786 91.7333 78.9652 91.44 78.6052 91.04C78.2586 90.64 77.9786 90.1333 77.7652 89.52C77.5652 88.9067 77.4652 88.1667 77.4652 87.3C77.4652 86.9133 77.4919 86.4867 77.5452 86.02C77.5986 85.54 77.6919 85.06 77.8252 84.58C77.9586 84.1 78.1452 83.6333 78.3852 83.18C78.6252 82.7267 78.9252 82.3267 79.2852 81.98C79.6586 81.62 80.0986 81.3333 80.6052 81.12C81.1252 80.9067 81.7319 80.8 82.4252 80.8C83.0919 80.8 83.6252 80.92 84.0252 81.16C84.4386 81.3867 84.6986 81.7867 84.8052 82.36C84.8319 81.84 84.8586 81.3867 84.8852 81C84.9119 80.6133 84.9319 80.2533 84.9452 79.92C84.9719 79.5867 84.9986 79.2533 85.0252 78.92C85.0519 78.5867 85.0786 78.2067 85.1052 77.78C85.1186 77.4867 85.1519 77.3133 85.2052 77.26C85.2319 77.2333 85.2652 77.22 85.3052 77.22C85.3452 77.2067 85.4186 77.2 85.5252 77.2H86.3052C86.7052 77.2 87.0386 77.2467 87.3052 77.34C87.5719 77.4333 87.7852 77.56 87.9452 77.72C88.1052 77.88 88.2186 78.0667 88.2852 78.28C88.3519 78.48 88.3852 78.6933 88.3852 78.92C88.3852 78.92 88.3719 79.0867 88.3452 79.42C88.3186 79.7533 88.2852 80.2 88.2452 80.76C88.2052 81.3067 88.1586 81.9333 88.1052 82.64C88.0519 83.3467 87.9986 84.08 87.9452 84.84C87.8919 85.5867 87.8386 86.3333 87.7852 87.08C87.7319 87.8133 87.6786 88.4933 87.6252 89.12C87.5719 89.7333 87.5252 90.2667 87.4852 90.72C87.4586 91.16 87.4386 91.4533 87.4252 91.6C87.3986 91.76 87.3652 91.8667 87.3252 91.92C87.2852 91.9733 87.1719 92 86.9852 92H86.2652C85.9852 92 85.7186 91.98 85.4652 91.94C85.2252 91.8867 85.0119 91.8067 84.8252 91.7C84.6519 91.58 84.5119 91.4267 84.4052 91.24C84.3119 91.04 84.2652 90.7867 84.2652 90.48C84.0252 90.9867 83.6586 91.4 83.1652 91.72C82.6852 92.04 82.0786 92.2 81.3452 92.2ZM83.0852 83.46C82.4052 83.46 81.8986 83.76 81.5652 84.36C81.2452 84.9467 81.0852 85.74 81.0852 86.74C81.0852 87.0867 81.1052 87.4267 81.1452 87.76C81.1986 88.0933 81.2852 88.3933 81.4052 88.66C81.5252 88.9267 81.6852 89.14 81.8852 89.3C82.0986 89.46 82.3652 89.54 82.6852 89.54C83.2586 89.54 83.7386 89.26 84.1252 88.7C84.5119 88.14 84.7052 87.26 84.7052 86.06C84.7052 85.7267 84.6852 85.4067 84.6452 85.1C84.6052 84.78 84.5252 84.5 84.4052 84.26C84.2852 84.02 84.1186 83.8267 83.9052 83.68C83.6919 83.5333 83.4186 83.46 83.0852 83.46Z" fill="black"/>
</svg>
