<svg width="120" height="115" viewBox="0 0 120 115" fill="none" xmlns="http://www.w3.org/2000/svg">
<rect width="120" height="115" fill="#FFEDFB"/>
<path d="M10.727 20C9.98029 20 9.44695 19.8533 9.12695 19.56C8.80695 19.2667 8.64695 18.8467 8.64695 18.3C8.64695 18.0333 8.66695 17.58 8.70695 16.94C8.74695 16.2867 8.80029 15.5467 8.86695 14.72C8.93362 13.8933 9.00029 13.02 9.06695 12.1C9.13362 11.18 9.20029 10.3133 9.26695 9.5C9.33362 8.68667 9.38695 7.97333 9.42695 7.36C9.46695 6.74667 9.48695 6.32667 9.48695 6.1C9.48695 5.9 9.59362 5.8 9.80695 5.8H10.907C11.6536 5.8 12.167 5.94667 12.447 6.24C12.7403 6.52 12.887 6.94 12.887 7.5C12.887 7.56667 12.8803 7.62667 12.867 7.68C12.867 7.73333 12.867 7.79333 12.867 7.86L12.207 17.2H15.807C15.887 17.2 15.9603 17.2267 16.027 17.28C16.0936 17.32 16.127 17.3867 16.127 17.48L16.047 18.66C16.0203 19.06 15.907 19.3867 15.707 19.64C15.5203 19.88 15.127 20 14.527 20H10.727ZM21.7941 20.2C20.8741 20.2 20.1075 20.0733 19.4941 19.82C18.8941 19.5533 18.4141 19.1933 18.0541 18.74C17.6941 18.2867 17.4408 17.76 17.2941 17.16C17.1475 16.5467 17.0741 15.8933 17.0741 15.2C17.0741 14.4 17.1675 13.62 17.3541 12.86C17.5541 12.0867 17.8875 11.4 18.3541 10.8C18.8208 10.2 19.4341 9.72 20.1941 9.36C20.9675 8.98667 21.9275 8.8 23.0741 8.8C24.7541 8.8 25.9541 9.21333 26.6741 10.04C27.4075 10.8533 27.7741 12 27.7741 13.48C27.7741 13.8933 27.7408 14.3533 27.6741 14.86C27.6208 15.3533 27.5075 15.8467 27.3341 16.34C27.1741 16.8333 26.9475 17.3133 26.6541 17.78C26.3741 18.2467 26.0141 18.66 25.5741 19.02C25.1341 19.38 24.6008 19.6667 23.9741 19.88C23.3608 20.0933 22.6341 20.2 21.7941 20.2ZM22.7341 11.46C22.2275 11.46 21.8208 11.5933 21.5141 11.86C21.2208 12.1133 20.9941 12.4267 20.8341 12.8C20.6875 13.16 20.5875 13.5467 20.5341 13.96C20.4941 14.36 20.4741 14.7 20.4741 14.98C20.4741 15.86 20.6141 16.5067 20.8941 16.92C21.1741 17.3333 21.5741 17.54 22.0941 17.54C22.5608 17.54 22.9408 17.3933 23.2341 17.1C23.5408 16.8067 23.7741 16.4533 23.9341 16.04C24.1075 15.6267 24.2208 15.1933 24.2741 14.74C24.3408 14.2867 24.3741 13.9067 24.3741 13.6C24.3741 12.9333 24.2475 12.4133 23.9941 12.04C23.7541 11.6533 23.3341 11.46 22.7341 11.46ZM33.9273 8.8C35.0606 8.8 35.8939 9.02667 36.4273 9.48C36.9606 9.92 37.2273 10.4867 37.2273 11.18C37.2273 11.7667 37.0406 12.2133 36.6673 12.52C36.3073 12.8267 35.7806 12.98 35.0873 12.98C34.9006 12.98 34.7739 12.96 34.7073 12.92C34.6406 12.88 34.6073 12.8067 34.6073 12.7C34.6073 12.58 34.5939 12.4467 34.5673 12.3C34.5539 12.14 34.5073 11.9933 34.4273 11.86C34.3606 11.7133 34.2473 11.5933 34.0873 11.5C33.9406 11.4067 33.7273 11.36 33.4473 11.36C33.0739 11.36 32.7739 11.4533 32.5473 11.64C32.3206 11.8133 32.2073 12.0333 32.2073 12.3C32.2073 12.58 32.3206 12.8067 32.5473 12.98C32.7873 13.14 33.0806 13.2933 33.4273 13.44C33.7873 13.5867 34.1739 13.74 34.5873 13.9C35.0006 14.0467 35.3806 14.2467 35.7273 14.5C36.0873 14.7533 36.3806 15.0733 36.6073 15.46C36.8473 15.8333 36.9673 16.32 36.9673 16.92C36.9673 17.88 36.6273 18.6667 35.9473 19.28C35.2673 19.8933 34.2473 20.2 32.8873 20.2C32.5139 20.2 32.0806 20.1667 31.5873 20.1C31.1073 20.0467 30.6473 19.96 30.2073 19.84C29.7673 19.7067 29.3939 19.5333 29.0873 19.32C28.7939 19.1067 28.6473 18.84 28.6473 18.52C28.6473 18.4 28.6673 18.2533 28.7073 18.08C28.7606 17.9067 28.8339 17.74 28.9273 17.58C29.0339 17.42 29.1539 17.2867 29.2873 17.18C29.4339 17.06 29.6073 17 29.8073 17C29.9673 17 30.1139 17.04 30.2473 17.12C30.3806 17.2 30.5339 17.2867 30.7073 17.38C30.8939 17.46 31.1206 17.54 31.3873 17.62C31.6539 17.7 32.0073 17.74 32.4473 17.74C32.7806 17.74 33.0739 17.7 33.3273 17.62C33.5939 17.54 33.7273 17.36 33.7273 17.08C33.7273 16.8267 33.6206 16.6267 33.4073 16.48C33.1939 16.32 32.9206 16.1733 32.5873 16.04C32.2673 15.9067 31.9139 15.7667 31.5273 15.62C31.1539 15.46 30.8006 15.2533 30.4673 15C30.1473 14.7467 29.8806 14.4267 29.6673 14.04C29.4539 13.64 29.3473 13.1267 29.3473 12.5C29.3473 11.82 29.4806 11.2467 29.7473 10.78C30.0273 10.3 30.3806 9.91333 30.8073 9.62C31.2473 9.32667 31.7406 9.12 32.2873 9C32.8339 8.86667 33.3806 8.8 33.9273 8.8ZM43.2818 20.2C42.6951 20.2 42.1085 20.1267 41.5218 19.98C40.9485 19.8333 40.4285 19.58 39.9618 19.22C39.5085 18.86 39.1351 18.38 38.8418 17.78C38.5485 17.18 38.4018 16.4267 38.4018 15.52C38.4018 15.1867 38.4285 14.7867 38.4818 14.32C38.5351 13.8533 38.6351 13.3733 38.7818 12.88C38.9418 12.3867 39.1551 11.9 39.4218 11.42C39.7018 10.9267 40.0618 10.4867 40.5018 10.1C40.9418 9.71333 41.4751 9.4 42.1018 9.16C42.7285 8.92 43.4751 8.8 44.3418 8.8C45.0351 8.8 45.6218 8.88 46.1018 9.04C46.5818 9.2 46.9685 9.42 47.2618 9.7C47.5551 9.96667 47.7685 10.28 47.9018 10.64C48.0351 11 48.1018 11.3867 48.1018 11.8C48.1018 12.4133 47.9751 12.9333 47.7218 13.36C47.4818 13.7867 47.1618 14.1467 46.7618 14.44C46.3751 14.72 45.9418 14.94 45.4618 15.1C44.9818 15.26 44.5085 15.3867 44.0418 15.48C43.5751 15.56 43.1418 15.6133 42.7418 15.64C42.3551 15.6533 42.0551 15.66 41.8418 15.66C41.8418 15.9133 41.8751 16.1667 41.9418 16.42C42.0218 16.66 42.1351 16.8733 42.2818 17.06C42.4285 17.2467 42.6218 17.4 42.8618 17.52C43.1018 17.64 43.3951 17.7 43.7418 17.7C44.0885 17.7 44.3551 17.6467 44.5418 17.54C44.7418 17.42 44.9018 17.2933 45.0218 17.16C45.1418 17.0133 45.2418 16.8867 45.3218 16.78C45.4151 16.66 45.5351 16.6 45.6818 16.6C45.7485 16.6 45.8618 16.62 46.0218 16.66C46.1951 16.6867 46.3685 16.7533 46.5418 16.86C46.7151 16.9667 46.8685 17.1133 47.0018 17.3C47.1351 17.4867 47.2018 17.7267 47.2018 18.02C47.2018 18.4067 47.0818 18.74 46.8418 19.02C46.6018 19.3 46.2885 19.5267 45.9018 19.7C45.5285 19.8733 45.1085 20 44.6418 20.08C44.1751 20.16 43.7218 20.2 43.2818 20.2ZM43.6618 11.46C43.3685 11.46 43.1151 11.5467 42.9018 11.72C42.7018 11.88 42.5285 12.0867 42.3818 12.34C42.2485 12.5933 42.1418 12.8733 42.0618 13.18C41.9951 13.4867 41.9418 13.78 41.9018 14.06C42.7285 14.0467 43.3951 13.9067 43.9018 13.64C44.4218 13.3733 44.6818 12.9933 44.6818 12.5C44.6818 12.2333 44.5951 11.9933 44.4218 11.78C44.2618 11.5667 44.0085 11.46 43.6618 11.46ZM60.5232 8.8C61.7765 8.8 62.7165 9.18667 63.3432 9.96C63.9832 10.7333 64.3032 11.9533 64.3032 13.62C64.3032 14.66 64.1832 15.5867 63.9432 16.4C63.7032 17.2133 63.3699 17.9067 62.9432 18.48C62.5165 19.04 62.0165 19.4667 61.4432 19.76C60.8699 20.0533 60.2499 20.2 59.5832 20.2C58.8765 20.2 58.3232 20.0467 57.9232 19.74C57.5232 19.4333 57.2099 19 56.9832 18.44C56.9432 18.92 56.9099 19.2867 56.8832 19.54C56.8565 19.7933 56.8365 19.9933 56.8232 20.14C56.8099 20.3 56.7965 20.44 56.7832 20.56C56.7832 20.68 56.7699 20.84 56.7432 21.04C56.7299 21.24 56.7099 21.5133 56.6832 21.86C56.6565 22.2067 56.6165 22.6867 56.5632 23.3C56.5499 23.46 56.5165 23.5667 56.4632 23.62C56.4099 23.6733 56.2965 23.7 56.1232 23.7H55.4032C54.9899 23.7 54.6499 23.6533 54.3832 23.56C54.1299 23.48 53.9232 23.36 53.7632 23.2C53.6165 23.04 53.5099 22.84 53.4432 22.6C53.3899 22.3733 53.3632 22.1067 53.3632 21.8C53.3632 21.6667 53.3832 21.3067 53.4232 20.72C53.4632 20.1333 53.5099 19.4333 53.5632 18.62C53.6299 17.7933 53.6965 16.9067 53.7632 15.96C53.8432 15.0133 53.9165 14.1133 53.9832 13.26C54.0499 12.3933 54.1032 11.6267 54.1432 10.96C54.1965 10.2933 54.2365 9.83333 54.2632 9.58C54.2765 9.28667 54.3099 9.11333 54.3632 9.06C54.4032 9.02 54.5099 9 54.6832 9H55.4632C56.1832 9 56.7032 9.15333 57.0232 9.46C57.3565 9.75333 57.5232 10.1067 57.5232 10.52C57.8299 9.90667 58.2232 9.46667 58.7032 9.2C59.1965 8.93333 59.8032 8.8 60.5232 8.8ZM59.0632 11.46C58.3832 11.46 57.8832 11.7533 57.5632 12.34C57.2432 12.9267 57.0832 13.7267 57.0832 14.74C57.0832 15.0867 57.1032 15.4267 57.1432 15.76C57.1965 16.0933 57.2832 16.3933 57.4032 16.66C57.5232 16.9267 57.6832 17.14 57.8832 17.3C58.0965 17.46 58.3632 17.54 58.6832 17.54C59.2565 17.54 59.7365 17.26 60.1232 16.7C60.5099 16.14 60.7032 15.26 60.7032 14.06C60.7032 13.7267 60.6765 13.4067 60.6232 13.1C60.5832 12.78 60.5032 12.5 60.3832 12.26C60.2632 12.02 60.0965 11.8267 59.8832 11.68C59.6699 11.5333 59.3965 11.46 59.0632 11.46ZM70.3293 20.2C69.4093 20.2 68.6426 20.0733 68.0293 19.82C67.4293 19.5533 66.9493 19.1933 66.5893 18.74C66.2293 18.2867 65.976 17.76 65.8293 17.16C65.6826 16.5467 65.6093 15.8933 65.6093 15.2C65.6093 14.4 65.7026 13.62 65.8893 12.86C66.0893 12.0867 66.4226 11.4 66.8893 10.8C67.356 10.2 67.9693 9.72 68.7293 9.36C69.5026 8.98667 70.4626 8.8 71.6093 8.8C73.2893 8.8 74.4893 9.21333 75.2093 10.04C75.9426 10.8533 76.3093 12 76.3093 13.48C76.3093 13.8933 76.276 14.3533 76.2093 14.86C76.156 15.3533 76.0426 15.8467 75.8693 16.34C75.7093 16.8333 75.4826 17.3133 75.1893 17.78C74.9093 18.2467 74.5493 18.66 74.1093 19.02C73.6693 19.38 73.136 19.6667 72.5093 19.88C71.896 20.0933 71.1693 20.2 70.3293 20.2ZM71.2693 11.46C70.7626 11.46 70.356 11.5933 70.0493 11.86C69.756 12.1133 69.5293 12.4267 69.3693 12.8C69.2226 13.16 69.1226 13.5467 69.0693 13.96C69.0293 14.36 69.0093 14.7 69.0093 14.98C69.0093 15.86 69.1493 16.5067 69.4293 16.92C69.7093 17.3333 70.1093 17.54 70.6293 17.54C71.096 17.54 71.476 17.3933 71.7693 17.1C72.076 16.8067 72.3093 16.4533 72.4693 16.04C72.6426 15.6267 72.756 15.1933 72.8093 14.74C72.876 14.2867 72.9093 13.9067 72.9093 13.6C72.9093 12.9333 72.7826 12.4133 72.5293 12.04C72.2893 11.6533 71.8693 11.46 71.2693 11.46ZM79.8624 20C79.4491 20 79.1091 19.96 78.8424 19.88C78.5891 19.7867 78.3824 19.66 78.2224 19.5C78.0758 19.34 77.9691 19.1467 77.9024 18.92C77.8491 18.68 77.8224 18.4067 77.8224 18.1C77.8224 17.9 77.8291 17.62 77.8424 17.26C77.8691 16.8867 77.9091 16.38 77.9624 15.74C78.0158 15.0867 78.0758 14.2667 78.1424 13.28C78.2224 12.28 78.3158 11.0467 78.4224 9.58C78.4358 9.28667 78.4691 9.11333 78.5224 9.06C78.5624 9.02 78.6691 9 78.8424 9H79.6224C80.0358 9 80.3691 9.04 80.6224 9.12C80.8891 9.2 81.0958 9.32 81.2424 9.48C81.4024 9.64 81.5091 9.83333 81.5624 10.06C81.6291 10.2867 81.6624 10.54 81.6624 10.82C81.6624 11.02 81.6491 11.32 81.6224 11.72C81.5958 12.12 81.5558 12.6667 81.5024 13.36C81.4624 14.04 81.4024 14.8933 81.3224 15.92C81.2424 16.9333 81.1424 18.16 81.0224 19.6C81.0091 19.76 80.9758 19.8667 80.9224 19.92C80.8691 19.9733 80.7558 20 80.5824 20H79.8624ZM78.4424 6.64C78.4424 6.10667 78.6358 5.68667 79.0224 5.38C79.4091 5.07333 79.9291 4.92 80.5824 4.92C81.1558 4.92 81.5691 5.04 81.8224 5.28C82.0891 5.50667 82.2224 5.81333 82.2224 6.2C82.2224 6.69333 82.0358 7.10667 81.6624 7.44C81.3024 7.76 80.7691 7.92 80.0624 7.92C78.9824 7.92 78.4424 7.49333 78.4424 6.64ZM90.2474 18.24C90.2474 17.9467 90.2674 17.5667 90.3074 17.1C90.3608 16.62 90.4074 16.12 90.4474 15.6C90.5008 15.0667 90.5474 14.5533 90.5874 14.06C90.6408 13.5667 90.6674 13.1533 90.6674 12.82C90.6674 12.4733 90.5808 12.1667 90.4074 11.9C90.2474 11.62 89.9274 11.48 89.4474 11.48C88.9808 11.48 88.5941 11.5933 88.2874 11.82C87.9808 12.0467 87.7208 12.46 87.5074 13.06C87.3074 13.66 87.1408 14.4867 87.0074 15.54C86.8741 16.5933 86.7474 17.9467 86.6274 19.6C86.6141 19.76 86.5808 19.8667 86.5274 19.92C86.4741 19.9733 86.3608 20 86.1874 20H85.4674C85.0541 20 84.7141 19.96 84.4474 19.88C84.1941 19.7867 83.9874 19.66 83.8274 19.5C83.6808 19.34 83.5741 19.1467 83.5074 18.92C83.4541 18.68 83.4274 18.4067 83.4274 18.1C83.4274 17.9 83.4341 17.62 83.4474 17.26C83.4741 16.8867 83.5141 16.38 83.5674 15.74C83.6208 15.0867 83.6808 14.2667 83.7474 13.28C83.8274 12.28 83.9208 11.0467 84.0274 9.58C84.0408 9.28667 84.0741 9.11333 84.1274 9.06C84.1674 9.02 84.2741 9 84.4474 9H85.2274C85.6274 9 85.9541 9.04667 86.2074 9.14C86.4741 9.23333 86.6874 9.36 86.8474 9.52C87.0074 9.66667 87.1208 9.84667 87.1874 10.06C87.2541 10.26 87.2941 10.4667 87.3074 10.68C87.7208 9.97333 88.1941 9.48667 88.7274 9.22C89.2608 8.94 89.9274 8.8 90.7274 8.8C91.2874 8.8 91.7741 8.86 92.1874 8.98C92.6008 9.1 92.9408 9.30667 93.2074 9.6C93.4874 9.88 93.6941 10.2533 93.8274 10.72C93.9608 11.1733 94.0274 11.74 94.0274 12.42C94.0274 12.6333 94.0141 12.94 93.9874 13.34C93.9608 13.74 93.9274 14.18 93.8874 14.66C93.8474 15.1267 93.8008 15.62 93.7474 16.14C93.7074 16.6467 93.6674 17.12 93.6274 17.56C93.5874 18 93.5541 18.3867 93.5274 18.72C93.5008 19.0533 93.4874 19.2733 93.4874 19.38C93.4874 19.6733 93.4541 19.8533 93.3874 19.92C93.3208 19.9733 93.1741 20 92.9474 20H92.3074C91.8808 20 91.5341 19.96 91.2674 19.88C91.0008 19.8 90.7941 19.6867 90.6474 19.54C90.5008 19.3933 90.3941 19.2133 90.3274 19C90.2741 18.7733 90.2474 18.52 90.2474 18.24ZM100.11 11.7C100.07 12.2067 100.024 12.7067 99.9702 13.2C99.9302 13.6933 99.8902 14.16 99.8502 14.6C99.8102 15.04 99.7769 15.4333 99.7502 15.78C99.7369 16.1267 99.7302 16.3933 99.7302 16.58C99.7302 16.9267 99.7702 17.16 99.8502 17.28C99.9302 17.3867 100.064 17.44 100.25 17.44C100.397 17.44 100.524 17.4133 100.63 17.36C100.737 17.3067 100.837 17.2467 100.93 17.18C101.024 17.1133 101.104 17.0533 101.17 17C101.25 16.9467 101.337 16.92 101.43 16.92C101.524 16.92 101.61 16.9733 101.69 17.08C101.77 17.1867 101.81 17.4333 101.81 17.82C101.81 18.5533 101.61 19.1333 101.21 19.56C100.81 19.9867 100.124 20.2 99.1502 20.2C98.1902 20.2 97.4769 19.98 97.0102 19.54C96.5569 19.0867 96.3302 18.4 96.3302 17.48C96.3302 17.28 96.3369 17.0467 96.3502 16.78C96.3769 16.5 96.4102 16.14 96.4502 15.7C96.4902 15.26 96.5369 14.72 96.5902 14.08C96.6569 13.44 96.7236 12.6467 96.7902 11.7H95.7302C95.6236 11.7 95.5569 11.68 95.5302 11.64C95.5169 11.5867 95.5102 11.5133 95.5102 11.42L95.5702 10.4C95.5836 10.2267 95.6036 10.06 95.6302 9.9C95.6702 9.72667 95.7369 9.57333 95.8302 9.44C95.9369 9.30667 96.0836 9.2 96.2702 9.12C96.4569 9.04 96.7036 9 97.0102 9C97.1036 8.76 97.2102 8.47333 97.3302 8.14C97.4502 7.80667 97.5702 7.48667 97.6902 7.18C97.8102 6.86 97.9236 6.59333 98.0302 6.38C98.1502 6.16667 98.2569 6.06 98.3502 6.06H98.9302C99.4902 6.06 99.8769 6.23333 100.09 6.58C100.304 6.92667 100.41 7.34 100.41 7.82C100.41 8.08667 100.39 8.48 100.35 9H102.45C102.664 9 102.77 9.09333 102.77 9.28L102.69 10.36C102.664 10.76 102.55 11.0867 102.35 11.34C102.164 11.58 101.77 11.7 101.17 11.7H100.11ZM108.459 8.8C109.592 8.8 110.425 9.02667 110.959 9.48C111.492 9.92 111.759 10.4867 111.759 11.18C111.759 11.7667 111.572 12.2133 111.199 12.52C110.839 12.8267 110.312 12.98 109.619 12.98C109.432 12.98 109.305 12.96 109.239 12.92C109.172 12.88 109.139 12.8067 109.139 12.7C109.139 12.58 109.125 12.4467 109.099 12.3C109.085 12.14 109.039 11.9933 108.959 11.86C108.892 11.7133 108.779 11.5933 108.619 11.5C108.472 11.4067 108.259 11.36 107.979 11.36C107.605 11.36 107.305 11.4533 107.079 11.64C106.852 11.8133 106.739 12.0333 106.739 12.3C106.739 12.58 106.852 12.8067 107.079 12.98C107.319 13.14 107.612 13.2933 107.959 13.44C108.319 13.5867 108.705 13.74 109.119 13.9C109.532 14.0467 109.912 14.2467 110.259 14.5C110.619 14.7533 110.912 15.0733 111.139 15.46C111.379 15.8333 111.499 16.32 111.499 16.92C111.499 17.88 111.159 18.6667 110.479 19.28C109.799 19.8933 108.779 20.2 107.419 20.2C107.045 20.2 106.612 20.1667 106.119 20.1C105.639 20.0467 105.179 19.96 104.739 19.84C104.299 19.7067 103.925 19.5333 103.619 19.32C103.325 19.1067 103.179 18.84 103.179 18.52C103.179 18.4 103.199 18.2533 103.239 18.08C103.292 17.9067 103.365 17.74 103.459 17.58C103.565 17.42 103.685 17.2867 103.819 17.18C103.965 17.06 104.139 17 104.339 17C104.499 17 104.645 17.04 104.779 17.12C104.912 17.2 105.065 17.2867 105.239 17.38C105.425 17.46 105.652 17.54 105.919 17.62C106.185 17.7 106.539 17.74 106.979 17.74C107.312 17.74 107.605 17.7 107.859 17.62C108.125 17.54 108.259 17.36 108.259 17.08C108.259 16.8267 108.152 16.6267 107.939 16.48C107.725 16.32 107.452 16.1733 107.119 16.04C106.799 15.9067 106.445 15.7667 106.059 15.62C105.685 15.46 105.332 15.2533 104.999 15C104.679 14.7467 104.412 14.4267 104.199 14.04C103.985 13.64 103.879 13.1267 103.879 12.5C103.879 11.82 104.012 11.2467 104.279 10.78C104.559 10.3 104.912 9.91333 105.339 9.62C105.779 9.32667 106.272 9.12 106.819 9C107.365 8.86667 107.912 8.8 108.459 8.8ZM50.1651 37.08C50.1384 37.48 50.1051 37.9133 50.0651 38.38C50.0251 38.8467 49.9851 39.32 49.9451 39.8C49.9051 40.2667 49.8651 40.7267 49.8251 41.18C49.7984 41.6333 49.7717 42.0333 49.7451 42.38C49.7184 42.7267 49.6917 43.0133 49.6651 43.24C49.6517 43.4667 49.6451 43.5867 49.6451 43.6C49.6317 43.76 49.5984 43.8667 49.5451 43.92C49.4917 43.9733 49.3784 44 49.2051 44H48.4851C47.7651 44 47.2584 43.8333 46.9651 43.5C46.6851 43.1533 46.5451 42.64 46.5451 41.96C46.5451 41.88 46.5517 41.68 46.5651 41.36C46.5917 41.04 46.6184 40.66 46.6451 40.22C46.6851 39.7667 46.7251 39.2667 46.7651 38.72C46.8051 38.1733 46.8451 37.6267 46.8851 37.08H45.9451C45.7984 37.08 45.7251 37.0067 45.7251 36.86C45.7251 36.7533 45.7317 36.6 45.7451 36.4C45.7584 36.1867 45.7717 35.98 45.7851 35.78C45.7984 35.62 45.8184 35.46 45.8451 35.3C45.8851 35.1267 45.9451 34.98 46.0251 34.86C46.1184 34.7267 46.2517 34.62 46.4251 34.54C46.5984 34.4467 46.8251 34.3933 47.1051 34.38L47.1851 33.58C47.2651 32.7133 47.4251 31.9867 47.6651 31.4C47.9184 30.8133 48.2451 30.3467 48.6451 30C49.0451 29.64 49.5184 29.3867 50.0651 29.24C50.6251 29.08 51.2451 29 51.9251 29C52.5917 29 53.1584 29.06 53.6251 29.18C54.1051 29.3 54.4917 29.4667 54.7851 29.68C55.0784 29.8933 55.2917 30.1467 55.4251 30.44C55.5584 30.7333 55.6251 31.0467 55.6251 31.38C55.6251 32.0733 55.4051 32.5667 54.9651 32.86C54.5384 33.1533 53.9584 33.3 53.2251 33.3C53.0251 33.3 52.8851 33.2867 52.8051 33.26C52.7384 33.22 52.7051 33.14 52.7051 33.02C52.7051 32.58 52.6651 32.2333 52.5851 31.98C52.5051 31.7267 52.2851 31.6 51.9251 31.6C51.6584 31.6 51.4317 31.68 51.2451 31.84C51.0584 32 50.9051 32.2133 50.7851 32.48C50.6651 32.7333 50.5717 33.0267 50.5051 33.36C50.4517 33.6933 50.4051 34.0333 50.3651 34.38H52.6651C52.8784 34.38 52.9851 34.4733 52.9851 34.66L52.9051 35.74C52.8784 36.14 52.7651 36.4667 52.5651 36.72C52.3784 36.96 51.9851 37.08 51.3851 37.08H50.1651ZM58.9621 44.2C58.0421 44.2 57.2754 44.0733 56.6621 43.82C56.0621 43.5533 55.5821 43.1933 55.2221 42.74C54.8621 42.2867 54.6088 41.76 54.4621 41.16C54.3154 40.5467 54.2421 39.8933 54.2421 39.2C54.2421 38.4 54.3354 37.62 54.5221 36.86C54.7221 36.0867 55.0554 35.4 55.5221 34.8C55.9888 34.2 56.6021 33.72 57.3621 33.36C58.1354 32.9867 59.0954 32.8 60.2421 32.8C61.9221 32.8 63.1221 33.2133 63.8421 34.04C64.5754 34.8533 64.9421 36 64.9421 37.48C64.9421 37.8933 64.9088 38.3533 64.8421 38.86C64.7888 39.3533 64.6754 39.8467 64.5021 40.34C64.3421 40.8333 64.1154 41.3133 63.8221 41.78C63.5421 42.2467 63.1821 42.66 62.7421 43.02C62.3021 43.38 61.7688 43.6667 61.1421 43.88C60.5288 44.0933 59.8021 44.2 58.9621 44.2ZM59.9021 35.46C59.3954 35.46 58.9888 35.5933 58.6821 35.86C58.3888 36.1133 58.1621 36.4267 58.0021 36.8C57.8554 37.16 57.7554 37.5467 57.7021 37.96C57.6621 38.36 57.6421 38.7 57.6421 38.98C57.6421 39.86 57.7821 40.5067 58.0621 40.92C58.3421 41.3333 58.7421 41.54 59.2621 41.54C59.7288 41.54 60.1088 41.3933 60.4021 41.1C60.7088 40.8067 60.9421 40.4533 61.1021 40.04C61.2754 39.6267 61.3888 39.1933 61.4421 38.74C61.5088 38.2867 61.5421 37.9067 61.5421 37.6C61.5421 36.9333 61.4154 36.4133 61.1621 36.04C60.9221 35.6533 60.5021 35.46 59.9021 35.46ZM72.8952 37.78C72.8152 37.78 72.7219 37.78 72.6152 37.78C72.5219 37.7667 72.4286 37.7533 72.3352 37.74C72.2419 37.7133 72.1619 37.6867 72.0952 37.66C72.0286 37.62 71.9952 37.5733 71.9952 37.52C71.9952 37.3467 72.0019 37.1867 72.0152 37.04C72.0286 36.8933 72.0352 36.74 72.0352 36.58C72.0352 36.2867 71.9952 36.0467 71.9152 35.86C71.8352 35.6733 71.6752 35.58 71.4352 35.58C71.0619 35.58 70.7486 35.8267 70.4952 36.32C70.2552 36.8 70.1019 37.5267 70.0352 38.5C70.0086 38.9267 69.9686 39.4133 69.9152 39.96C69.8752 40.4933 69.8352 41.0133 69.7952 41.52C69.7552 42.0133 69.7219 42.4533 69.6952 42.84C69.6686 43.2267 69.6552 43.48 69.6552 43.6C69.6552 43.7333 69.6086 43.8333 69.5152 43.9C69.4219 43.9667 69.3219 44 69.2152 44H68.4952C68.0819 44 67.7419 43.96 67.4752 43.88C67.2219 43.7867 67.0152 43.66 66.8552 43.5C66.7086 43.34 66.6019 43.1467 66.5352 42.92C66.4819 42.68 66.4552 42.4067 66.4552 42.1C66.4552 41.9 66.4619 41.62 66.4752 41.26C66.5019 40.8867 66.5419 40.38 66.5952 39.74C66.6486 39.0867 66.7086 38.2667 66.7752 37.28C66.8552 36.28 66.9486 35.0467 67.0552 33.58C67.0819 33.1933 67.2219 33 67.4752 33H68.2552C68.6286 33 68.9419 33.04 69.1952 33.12C69.4486 33.2 69.6552 33.3133 69.8152 33.46C69.9752 33.5933 70.0886 33.7533 70.1552 33.94C70.2352 34.1267 70.2886 34.32 70.3152 34.52C70.4752 34.2133 70.6619 33.9533 70.8752 33.74C71.1019 33.5133 71.3352 33.3333 71.5752 33.2C71.8152 33.0533 72.0619 32.9533 72.3152 32.9C72.5686 32.8333 72.8019 32.8 73.0152 32.8C73.2686 32.8 73.5219 32.8467 73.7752 32.94C74.0419 33.0333 74.2819 33.1733 74.4952 33.36C74.7086 33.5467 74.8752 33.7867 74.9952 34.08C75.1286 34.3733 75.1952 34.72 75.1952 35.12C75.1952 35.48 75.1419 35.82 75.0352 36.14C74.9286 36.46 74.7752 36.7467 74.5752 37C74.3752 37.24 74.1286 37.4333 73.8352 37.58C73.5552 37.7133 73.2419 37.78 72.8952 37.78ZM18.8566 68C18.4432 68 18.1032 67.96 17.8366 67.88C17.5832 67.7867 17.3766 67.66 17.2166 67.5C17.0699 67.34 16.9632 67.1467 16.8966 66.92C16.8432 66.68 16.8166 66.4067 16.8166 66.1C16.8166 65.9 16.8232 65.62 16.8366 65.26C16.8632 64.8867 16.9032 64.38 16.9566 63.74C17.0099 63.0867 17.0699 62.2667 17.1366 61.28C17.2166 60.28 17.3099 59.0467 17.4166 57.58C17.4299 57.2867 17.4632 57.1133 17.5166 57.06C17.5566 57.02 17.6632 57 17.8366 57H18.6166C19.0299 57 19.3632 57.04 19.6166 57.12C19.8832 57.2 20.0899 57.32 20.2366 57.48C20.3966 57.64 20.5032 57.8333 20.5566 58.06C20.6232 58.2867 20.6566 58.54 20.6566 58.82C20.6566 59.02 20.6432 59.32 20.6166 59.72C20.5899 60.12 20.5499 60.6667 20.4966 61.36C20.4566 62.04 20.3966 62.8933 20.3166 63.92C20.2366 64.9333 20.1366 66.16 20.0166 67.6C20.0032 67.76 19.9699 67.8667 19.9166 67.92C19.8632 67.9733 19.7499 68 19.5766 68H18.8566ZM17.4366 54.64C17.4366 54.1067 17.6299 53.6867 18.0166 53.38C18.4032 53.0733 18.9232 52.92 19.5766 52.92C20.1499 52.92 20.5632 53.04 20.8166 53.28C21.0832 53.5067 21.2166 53.8133 21.2166 54.2C21.2166 54.6933 21.0299 55.1067 20.6566 55.44C20.2966 55.76 19.7632 55.92 19.0566 55.92C17.9766 55.92 17.4366 55.4933 17.4366 54.64ZM29.2416 66.24C29.2416 65.9467 29.2616 65.5667 29.3016 65.1C29.3549 64.62 29.4016 64.12 29.4416 63.6C29.4949 63.0667 29.5416 62.5533 29.5816 62.06C29.6349 61.5667 29.6616 61.1533 29.6616 60.82C29.6616 60.4733 29.5749 60.1667 29.4016 59.9C29.2416 59.62 28.9216 59.48 28.4416 59.48C27.9749 59.48 27.5882 59.5933 27.2816 59.82C26.9749 60.0467 26.7149 60.46 26.5016 61.06C26.3016 61.66 26.1349 62.4867 26.0016 63.54C25.8682 64.5933 25.7416 65.9467 25.6216 67.6C25.6082 67.76 25.5749 67.8667 25.5216 67.92C25.4682 67.9733 25.3549 68 25.1816 68H24.4616C24.0482 68 23.7082 67.96 23.4416 67.88C23.1882 67.7867 22.9816 67.66 22.8216 67.5C22.6749 67.34 22.5682 67.1467 22.5016 66.92C22.4482 66.68 22.4216 66.4067 22.4216 66.1C22.4216 65.9 22.4282 65.62 22.4416 65.26C22.4682 64.8867 22.5082 64.38 22.5616 63.74C22.6149 63.0867 22.6749 62.2667 22.7416 61.28C22.8216 60.28 22.9149 59.0467 23.0216 57.58C23.0349 57.2867 23.0682 57.1133 23.1216 57.06C23.1616 57.02 23.2682 57 23.4416 57H24.2216C24.6216 57 24.9482 57.0467 25.2016 57.14C25.4682 57.2333 25.6816 57.36 25.8416 57.52C26.0016 57.6667 26.1149 57.8467 26.1816 58.06C26.2482 58.26 26.2882 58.4667 26.3016 58.68C26.7149 57.9733 27.1882 57.4867 27.7216 57.22C28.2549 56.94 28.9216 56.8 29.7216 56.8C30.2816 56.8 30.7682 56.86 31.1816 56.98C31.5949 57.1 31.9349 57.3067 32.2016 57.6C32.4816 57.88 32.6882 58.2533 32.8216 58.72C32.9549 59.1733 33.0216 59.74 33.0216 60.42C33.0216 60.6333 33.0082 60.94 32.9816 61.34C32.9549 61.74 32.9216 62.18 32.8816 62.66C32.8416 63.1267 32.7949 63.62 32.7416 64.14C32.7016 64.6467 32.6616 65.12 32.6216 65.56C32.5816 66 32.5482 66.3867 32.5216 66.72C32.4949 67.0533 32.4816 67.2733 32.4816 67.38C32.4816 67.6733 32.4482 67.8533 32.3816 67.92C32.3149 67.9733 32.1682 68 31.9416 68H31.3016C30.8749 68 30.5282 67.96 30.2616 67.88C29.9949 67.8 29.7882 67.6867 29.6416 67.54C29.4949 67.3933 29.3882 67.2133 29.3216 67C29.2682 66.7733 29.2416 66.52 29.2416 66.24ZM39.8444 65.54C40.231 65.54 40.5644 65.4867 40.8444 65.38C41.1377 65.2733 41.391 65.1533 41.6044 65.02C41.8177 64.8867 41.9977 64.7667 42.1444 64.66C42.291 64.5533 42.4244 64.5 42.5444 64.5C42.851 64.5 43.0044 64.7 43.0044 65.1C43.0044 65.1933 42.9844 65.3267 42.9444 65.5C42.9044 65.66 42.851 65.8333 42.7844 66.02C42.7177 66.1933 42.6444 66.36 42.5644 66.52C42.4977 66.68 42.431 66.8 42.3644 66.88C42.2977 66.9467 42.1777 67.0533 42.0044 67.2C41.8444 67.3467 41.6244 67.4933 41.3444 67.64C41.0644 67.7867 40.7377 67.9133 40.3644 68.02C39.991 68.14 39.5777 68.2 39.1244 68.2C38.6177 68.2 38.091 68.1267 37.5444 67.98C37.011 67.82 36.5244 67.5533 36.0844 67.18C35.6444 66.7933 35.2777 66.28 34.9844 65.64C34.7044 64.9867 34.5644 64.1733 34.5644 63.2C34.5644 62.8533 34.5844 62.46 34.6244 62.02C34.6777 61.5667 34.7777 61.1067 34.9244 60.64C35.071 60.16 35.2644 59.6933 35.5044 59.24C35.7577 58.7733 36.091 58.36 36.5044 58C36.9177 57.64 37.411 57.3533 37.9844 57.14C38.571 56.9133 39.2644 56.8 40.0644 56.8C40.7177 56.8 41.2777 56.88 41.7444 57.04C42.2244 57.1867 42.6177 57.3933 42.9244 57.66C43.231 57.9133 43.4577 58.2133 43.6044 58.56C43.7644 58.9067 43.8444 59.28 43.8444 59.68C43.8444 60.4 43.6177 60.9333 43.1644 61.28C42.711 61.6133 42.071 61.78 41.2444 61.78C41.0444 61.78 40.9044 61.7667 40.8244 61.74C40.7577 61.7 40.7244 61.62 40.7244 61.5C40.7244 61.18 40.7177 60.8933 40.7044 60.64C40.691 60.3867 40.651 60.1733 40.5844 60C40.531 59.8267 40.4444 59.6933 40.3244 59.6C40.2044 59.5067 40.031 59.46 39.8044 59.46C39.391 59.46 39.0577 59.5933 38.8044 59.86C38.5644 60.1267 38.3777 60.4533 38.2444 60.84C38.1244 61.2133 38.0444 61.6 38.0044 62C37.9777 62.4 37.9644 62.7333 37.9644 63C37.9644 63.9467 38.111 64.6067 38.4044 64.98C38.711 65.3533 39.191 65.54 39.8444 65.54ZM49.4406 68.2C48.5206 68.2 47.754 68.0733 47.1406 67.82C46.5406 67.5533 46.0606 67.1933 45.7006 66.74C45.3406 66.2867 45.0873 65.76 44.9406 65.16C44.794 64.5467 44.7206 63.8933 44.7206 63.2C44.7206 62.4 44.814 61.62 45.0006 60.86C45.2006 60.0867 45.534 59.4 46.0006 58.8C46.4673 58.2 47.0806 57.72 47.8406 57.36C48.614 56.9867 49.574 56.8 50.7206 56.8C52.4006 56.8 53.6006 57.2133 54.3206 58.04C55.054 58.8533 55.4206 60 55.4206 61.48C55.4206 61.8933 55.3873 62.3533 55.3206 62.86C55.2673 63.3533 55.154 63.8467 54.9806 64.34C54.8206 64.8333 54.594 65.3133 54.3006 65.78C54.0206 66.2467 53.6606 66.66 53.2206 67.02C52.7806 67.38 52.2473 67.6667 51.6206 67.88C51.0073 68.0933 50.2806 68.2 49.4406 68.2ZM50.3806 59.46C49.874 59.46 49.4673 59.5933 49.1606 59.86C48.8673 60.1133 48.6406 60.4267 48.4806 60.8C48.334 61.16 48.234 61.5467 48.1806 61.96C48.1406 62.36 48.1206 62.7 48.1206 62.98C48.1206 63.86 48.2606 64.5067 48.5406 64.92C48.8206 65.3333 49.2206 65.54 49.7406 65.54C50.2073 65.54 50.5873 65.3933 50.8806 65.1C51.1873 64.8067 51.4206 64.4533 51.5806 64.04C51.754 63.6267 51.8673 63.1933 51.9206 62.74C51.9873 62.2867 52.0206 61.9067 52.0206 61.6C52.0206 60.9333 51.894 60.4133 51.6406 60.04C51.4006 59.6533 50.9806 59.46 50.3806 59.46ZM63.3738 61.78C63.2938 61.78 63.2004 61.78 63.0938 61.78C63.0004 61.7667 62.9071 61.7533 62.8138 61.74C62.7204 61.7133 62.6404 61.6867 62.5738 61.66C62.5071 61.62 62.4738 61.5733 62.4738 61.52C62.4738 61.3467 62.4804 61.1867 62.4938 61.04C62.5071 60.8933 62.5138 60.74 62.5138 60.58C62.5138 60.2867 62.4738 60.0467 62.3938 59.86C62.3138 59.6733 62.1538 59.58 61.9138 59.58C61.5404 59.58 61.2271 59.8267 60.9738 60.32C60.7338 60.8 60.5804 61.5267 60.5138 62.5C60.4871 62.9267 60.4471 63.4133 60.3938 63.96C60.3538 64.4933 60.3138 65.0133 60.2738 65.52C60.2338 66.0133 60.2004 66.4533 60.1738 66.84C60.1471 67.2267 60.1338 67.48 60.1338 67.6C60.1338 67.7333 60.0871 67.8333 59.9938 67.9C59.9004 67.9667 59.8004 68 59.6938 68H58.9738C58.5604 68 58.2204 67.96 57.9538 67.88C57.7004 67.7867 57.4938 67.66 57.3338 67.5C57.1871 67.34 57.0804 67.1467 57.0138 66.92C56.9604 66.68 56.9338 66.4067 56.9338 66.1C56.9338 65.9 56.9404 65.62 56.9538 65.26C56.9804 64.8867 57.0204 64.38 57.0738 63.74C57.1271 63.0867 57.1871 62.2667 57.2538 61.28C57.3338 60.28 57.4271 59.0467 57.5338 57.58C57.5604 57.1933 57.7004 57 57.9538 57H58.7337C59.1071 57 59.4204 57.04 59.6738 57.12C59.9271 57.2 60.1338 57.3133 60.2938 57.46C60.4538 57.5933 60.5671 57.7533 60.6338 57.94C60.7138 58.1267 60.7671 58.32 60.7938 58.52C60.9538 58.2133 61.1404 57.9533 61.3538 57.74C61.5804 57.5133 61.8138 57.3333 62.0538 57.2C62.2938 57.0533 62.5404 56.9533 62.7938 56.9C63.0471 56.8333 63.2804 56.8 63.4938 56.8C63.7471 56.8 64.0004 56.8467 64.2538 56.94C64.5204 57.0333 64.7604 57.1733 64.9738 57.36C65.1871 57.5467 65.3538 57.7867 65.4738 58.08C65.6071 58.3733 65.6738 58.72 65.6738 59.12C65.6738 59.48 65.6204 59.82 65.5138 60.14C65.4071 60.46 65.2538 60.7467 65.0538 61C64.8538 61.24 64.6071 61.4333 64.3138 61.58C64.0338 61.7133 63.7204 61.78 63.3738 61.78ZM72.9441 61.78C72.8641 61.78 72.7707 61.78 72.6641 61.78C72.5707 61.7667 72.4774 61.7533 72.3841 61.74C72.2907 61.7133 72.2107 61.6867 72.1441 61.66C72.0774 61.62 72.0441 61.5733 72.0441 61.52C72.0441 61.3467 72.0507 61.1867 72.0641 61.04C72.0774 60.8933 72.0841 60.74 72.0841 60.58C72.0841 60.2867 72.0441 60.0467 71.9641 59.86C71.8841 59.6733 71.7241 59.58 71.4841 59.58C71.1107 59.58 70.7974 59.8267 70.5441 60.32C70.3041 60.8 70.1507 61.5267 70.0841 62.5C70.0574 62.9267 70.0174 63.4133 69.9641 63.96C69.9241 64.4933 69.8841 65.0133 69.8441 65.52C69.8041 66.0133 69.7707 66.4533 69.7441 66.84C69.7174 67.2267 69.7041 67.48 69.7041 67.6C69.7041 67.7333 69.6574 67.8333 69.5641 67.9C69.4707 67.9667 69.3707 68 69.2641 68H68.5441C68.1307 68 67.7907 67.96 67.5241 67.88C67.2707 67.7867 67.0641 67.66 66.9041 67.5C66.7574 67.34 66.6507 67.1467 66.5841 66.92C66.5307 66.68 66.5041 66.4067 66.5041 66.1C66.5041 65.9 66.5107 65.62 66.5241 65.26C66.5507 64.8867 66.5907 64.38 66.6441 63.74C66.6974 63.0867 66.7574 62.2667 66.8241 61.28C66.9041 60.28 66.9974 59.0467 67.1041 57.58C67.1307 57.1933 67.2707 57 67.5241 57H68.3041C68.6774 57 68.9907 57.04 69.2441 57.12C69.4974 57.2 69.7041 57.3133 69.8641 57.46C70.0241 57.5933 70.1374 57.7533 70.2041 57.94C70.2841 58.1267 70.3374 58.32 70.3641 58.52C70.5241 58.2133 70.7107 57.9533 70.9241 57.74C71.1507 57.5133 71.3841 57.3333 71.6241 57.2C71.8641 57.0533 72.1107 56.9533 72.3641 56.9C72.6174 56.8333 72.8507 56.8 73.0641 56.8C73.3174 56.8 73.5707 56.8467 73.8241 56.94C74.0907 57.0333 74.3307 57.1733 74.5441 57.36C74.7574 57.5467 74.9241 57.7867 75.0441 58.08C75.1774 58.3733 75.2441 58.72 75.2441 59.12C75.2441 59.48 75.1907 59.82 75.0841 60.14C74.9774 60.46 74.8241 60.7467 74.6241 61C74.4241 61.24 74.1774 61.4333 73.8841 61.58C73.6041 61.7133 73.2907 61.78 72.9441 61.78ZM80.6744 68.2C80.0877 68.2 79.501 68.1267 78.9144 67.98C78.341 67.8333 77.821 67.58 77.3544 67.22C76.901 66.86 76.5277 66.38 76.2344 65.78C75.941 65.18 75.7944 64.4267 75.7944 63.52C75.7944 63.1867 75.821 62.7867 75.8744 62.32C75.9277 61.8533 76.0277 61.3733 76.1744 60.88C76.3344 60.3867 76.5477 59.9 76.8144 59.42C77.0944 58.9267 77.4544 58.4867 77.8944 58.1C78.3344 57.7133 78.8677 57.4 79.4944 57.16C80.121 56.92 80.8677 56.8 81.7344 56.8C82.4277 56.8 83.0144 56.88 83.4944 57.04C83.9744 57.2 84.361 57.42 84.6544 57.7C84.9477 57.9667 85.161 58.28 85.2944 58.64C85.4277 59 85.4944 59.3867 85.4944 59.8C85.4944 60.4133 85.3677 60.9333 85.1144 61.36C84.8744 61.7867 84.5544 62.1467 84.1544 62.44C83.7677 62.72 83.3344 62.94 82.8544 63.1C82.3744 63.26 81.901 63.3867 81.4344 63.48C80.9677 63.56 80.5344 63.6133 80.1344 63.64C79.7477 63.6533 79.4477 63.66 79.2344 63.66C79.2344 63.9133 79.2677 64.1667 79.3344 64.42C79.4144 64.66 79.5277 64.8733 79.6744 65.06C79.821 65.2467 80.0144 65.4 80.2544 65.52C80.4944 65.64 80.7877 65.7 81.1344 65.7C81.481 65.7 81.7477 65.6467 81.9344 65.54C82.1344 65.42 82.2944 65.2933 82.4144 65.16C82.5344 65.0133 82.6344 64.8867 82.7144 64.78C82.8077 64.66 82.9277 64.6 83.0744 64.6C83.141 64.6 83.2544 64.62 83.4144 64.66C83.5877 64.6867 83.761 64.7533 83.9344 64.86C84.1077 64.9667 84.261 65.1133 84.3944 65.3C84.5277 65.4867 84.5944 65.7267 84.5944 66.02C84.5944 66.4067 84.4744 66.74 84.2344 67.02C83.9944 67.3 83.681 67.5267 83.2944 67.7C82.921 67.8733 82.501 68 82.0344 68.08C81.5677 68.16 81.1144 68.2 80.6744 68.2ZM81.0544 59.46C80.761 59.46 80.5077 59.5467 80.2944 59.72C80.0944 59.88 79.921 60.0867 79.7744 60.34C79.641 60.5933 79.5344 60.8733 79.4544 61.18C79.3877 61.4867 79.3344 61.78 79.2944 62.06C80.121 62.0467 80.7877 61.9067 81.2944 61.64C81.8144 61.3733 82.0744 60.9933 82.0744 60.5C82.0744 60.2333 81.9877 59.9933 81.8144 59.78C81.6544 59.5667 81.401 59.46 81.0544 59.46ZM91.7389 65.54C92.1256 65.54 92.4589 65.4867 92.7389 65.38C93.0322 65.2733 93.2856 65.1533 93.4989 65.02C93.7122 64.8867 93.8922 64.7667 94.0389 64.66C94.1856 64.5533 94.3189 64.5 94.4389 64.5C94.7456 64.5 94.8989 64.7 94.8989 65.1C94.8989 65.1933 94.8789 65.3267 94.8389 65.5C94.7989 65.66 94.7456 65.8333 94.6789 66.02C94.6122 66.1933 94.5389 66.36 94.4589 66.52C94.3922 66.68 94.3256 66.8 94.2589 66.88C94.1922 66.9467 94.0722 67.0533 93.8989 67.2C93.7389 67.3467 93.5189 67.4933 93.2389 67.64C92.9589 67.7867 92.6322 67.9133 92.2589 68.02C91.8856 68.14 91.4722 68.2 91.0189 68.2C90.5122 68.2 89.9856 68.1267 89.4389 67.98C88.9056 67.82 88.4189 67.5533 87.9789 67.18C87.5389 66.7933 87.1722 66.28 86.8789 65.64C86.5989 64.9867 86.4589 64.1733 86.4589 63.2C86.4589 62.8533 86.4789 62.46 86.5189 62.02C86.5722 61.5667 86.6722 61.1067 86.8189 60.64C86.9656 60.16 87.1589 59.6933 87.3989 59.24C87.6522 58.7733 87.9856 58.36 88.3989 58C88.8122 57.64 89.3056 57.3533 89.8789 57.14C90.4656 56.9133 91.1589 56.8 91.9589 56.8C92.6122 56.8 93.1722 56.88 93.6389 57.04C94.1189 57.1867 94.5122 57.3933 94.8189 57.66C95.1256 57.9133 95.3522 58.2133 95.4989 58.56C95.6589 58.9067 95.7389 59.28 95.7389 59.68C95.7389 60.4 95.5122 60.9333 95.0589 61.28C94.6056 61.6133 93.9656 61.78 93.1389 61.78C92.9389 61.78 92.7989 61.7667 92.7189 61.74C92.6522 61.7 92.6189 61.62 92.6189 61.5C92.6189 61.18 92.6122 60.8933 92.5989 60.64C92.5856 60.3867 92.5456 60.1733 92.4789 60C92.4256 59.8267 92.3389 59.6933 92.2189 59.6C92.0989 59.5067 91.9256 59.46 91.6989 59.46C91.2856 59.46 90.9522 59.5933 90.6989 59.86C90.4589 60.1267 90.2722 60.4533 90.1389 60.84C90.0189 61.2133 89.9389 61.6 89.8989 62C89.8722 62.4 89.8589 62.7333 89.8589 63C89.8589 63.9467 90.0056 64.6067 90.2989 64.98C90.6056 65.3533 91.0856 65.54 91.7389 65.54ZM101.155 59.7C101.115 60.2067 101.068 60.7067 101.015 61.2C100.975 61.6933 100.935 62.16 100.895 62.6C100.855 63.04 100.822 63.4333 100.795 63.78C100.782 64.1267 100.775 64.3933 100.775 64.58C100.775 64.9267 100.815 65.16 100.895 65.28C100.975 65.3867 101.108 65.44 101.295 65.44C101.442 65.44 101.568 65.4133 101.675 65.36C101.782 65.3067 101.882 65.2467 101.975 65.18C102.068 65.1133 102.148 65.0533 102.215 65C102.295 64.9467 102.382 64.92 102.475 64.92C102.568 64.92 102.655 64.9733 102.735 65.08C102.815 65.1867 102.855 65.4333 102.855 65.82C102.855 66.5533 102.655 67.1333 102.255 67.56C101.855 67.9867 101.168 68.2 100.195 68.2C99.2352 68.2 98.5218 67.98 98.0552 67.54C97.6018 67.0867 97.3752 66.4 97.3752 65.48C97.3752 65.28 97.3818 65.0467 97.3952 64.78C97.4218 64.5 97.4552 64.14 97.4952 63.7C97.5352 63.26 97.5818 62.72 97.6352 62.08C97.7018 61.44 97.7685 60.6467 97.8352 59.7H96.7752C96.6685 59.7 96.6018 59.68 96.5752 59.64C96.5618 59.5867 96.5552 59.5133 96.5552 59.42L96.6152 58.4C96.6285 58.2267 96.6485 58.06 96.6752 57.9C96.7152 57.7267 96.7818 57.5733 96.8752 57.44C96.9818 57.3067 97.1285 57.2 97.3152 57.12C97.5018 57.04 97.7485 57 98.0552 57C98.1485 56.76 98.2552 56.4733 98.3752 56.14C98.4952 55.8067 98.6152 55.4867 98.7352 55.18C98.8552 54.86 98.9685 54.5933 99.0752 54.38C99.1952 54.1667 99.3018 54.06 99.3952 54.06H99.9752C100.535 54.06 100.922 54.2333 101.135 54.58C101.348 54.9267 101.455 55.34 101.455 55.82C101.455 56.0867 101.435 56.48 101.395 57H103.495C103.708 57 103.815 57.0933 103.815 57.28L103.735 58.36C103.708 58.76 103.595 59.0867 103.395 59.34C103.208 59.58 102.815 59.7 102.215 59.7H101.155ZM30.5534 89.64C30.22 90.24 29.8134 90.6867 29.3334 90.98C28.8534 91.26 28.2534 91.4 27.5334 91.4C26.9867 91.4 26.4867 91.3133 26.0334 91.14C25.58 90.9667 25.1934 90.6933 24.8734 90.32C24.5534 89.9467 24.3 89.48 24.1134 88.92C23.94 88.3467 23.8534 87.6667 23.8534 86.88C23.8534 86.24 23.92 85.5667 24.0534 84.86C24.1867 84.14 24.4267 83.48 24.7734 82.88C25.1334 82.28 25.62 81.7867 26.2334 81.4C26.8467 81 27.6334 80.8 28.5934 80.8C28.9934 80.8 29.3334 80.8467 29.6134 80.94C29.9067 81.02 30.1534 81.1333 30.3534 81.28C30.5667 81.4267 30.7334 81.6 30.8534 81.8C30.9867 82 31.0867 82.2133 31.1534 82.44C31.1534 82.4533 31.1534 82.4067 31.1534 82.3C31.1667 82.18 31.18 82.0467 31.1934 81.9C31.2067 81.7533 31.2134 81.6133 31.2134 81.48C31.2267 81.3333 31.2334 81.24 31.2334 81.2C31.2467 81.0667 31.3334 81 31.4934 81H32.4134C33.1067 81 33.6067 81.1467 33.9134 81.44C34.2334 81.72 34.3934 82.26 34.3934 83.06C34.3934 83.1667 34.3867 83.4133 34.3734 83.8C34.36 84.1733 34.3334 84.6267 34.2934 85.16C34.2667 85.6933 34.2267 86.2867 34.1734 86.94C34.12 87.58 34.06 88.2267 33.9934 88.88C33.9267 89.5333 33.8534 90.16 33.7734 90.76C33.6934 91.36 33.6067 91.8867 33.5134 92.34C33.42 92.7933 33.26 93.2333 33.0334 93.66C32.8067 94.0867 32.4867 94.4667 32.0734 94.8C31.66 95.1333 31.1267 95.4 30.4734 95.6C29.8334 95.8 29.0467 95.9 28.1134 95.9C27.4067 95.9 26.7867 95.8333 26.2534 95.7C25.7334 95.5667 25.3 95.3867 24.9534 95.16C24.6067 94.9467 24.34 94.7 24.1534 94.42C23.98 94.14 23.8934 93.86 23.8934 93.58C23.8934 93.3267 23.9467 93.1067 24.0534 92.92C24.16 92.7333 24.3 92.58 24.4734 92.46C24.6467 92.34 24.8334 92.2467 25.0334 92.18C25.2467 92.1267 25.4467 92.1 25.6334 92.1C25.86 92.1 26.0267 92.1667 26.1334 92.3C26.24 92.4333 26.36 92.58 26.4934 92.74C26.6267 92.9133 26.8134 93.0667 27.0534 93.2C27.2934 93.3333 27.6667 93.4 28.1734 93.4C29.0534 93.4 29.6667 93.0733 30.0134 92.42C30.3734 91.78 30.5534 90.8533 30.5534 89.64ZM28.8734 88.74C29.3534 88.74 29.7267 88.6267 29.9934 88.4C30.2734 88.1733 30.4867 87.9 30.6334 87.58C30.78 87.26 30.8734 86.9267 30.9134 86.58C30.9534 86.2333 30.9734 85.9333 30.9734 85.68C30.9734 84.88 30.8467 84.3133 30.5934 83.98C30.3534 83.6333 29.9867 83.46 29.4934 83.46C29 83.46 28.6134 83.5933 28.3334 83.86C28.0534 84.1267 27.84 84.4467 27.6934 84.82C27.56 85.18 27.4734 85.5467 27.4334 85.92C27.3934 86.28 27.3734 86.56 27.3734 86.76C27.3734 87.4267 27.4867 87.9267 27.7134 88.26C27.94 88.58 28.3267 88.74 28.8734 88.74ZM39.9818 82.7C39.9818 82.98 39.9551 83.3733 39.9018 83.88C39.8618 84.3867 39.8151 84.9133 39.7618 85.46C39.7218 86.0067 39.6751 86.52 39.6218 87C39.5818 87.48 39.5618 87.8267 39.5618 88.04C39.5618 88.5067 39.6751 88.8733 39.9018 89.14C40.1418 89.3933 40.4685 89.52 40.8818 89.52C41.2418 89.52 41.5418 89.38 41.7818 89.1C42.0351 88.8067 42.2351 88.4333 42.3818 87.98C42.5418 87.5133 42.6685 86.9867 42.7618 86.4C42.8551 85.8133 42.9218 85.22 42.9618 84.62C43.0151 84.02 43.0551 83.44 43.0818 82.88C43.1218 82.3067 43.1618 81.8133 43.2018 81.4C43.2151 81.2933 43.2551 81.2 43.3218 81.12C43.3885 81.04 43.4951 81 43.6418 81H44.3618C44.7751 81 45.1085 81.0467 45.3618 81.14C45.6285 81.22 45.8351 81.34 45.9818 81.5C46.1418 81.66 46.2485 81.86 46.3018 82.1C46.3685 82.3267 46.4018 82.5933 46.4018 82.9C46.4018 83.1 46.3885 83.3867 46.3618 83.76C46.3485 84.12 46.3151 84.6267 46.2618 85.28C46.2085 85.92 46.1418 86.74 46.0618 87.74C45.9951 88.7267 45.9085 89.9533 45.8018 91.42C45.7751 91.7 45.7418 91.8667 45.7018 91.92C45.6751 91.9733 45.5685 92 45.3818 92H44.6018C44.2018 92 43.8685 91.9533 43.6018 91.86C43.3485 91.7667 43.1418 91.6467 42.9818 91.5C42.8218 91.3533 42.7085 91.18 42.6418 90.98C42.5751 90.78 42.5351 90.5733 42.5218 90.36C42.3218 90.7067 42.0951 91 41.8418 91.24C41.6018 91.48 41.3485 91.6733 41.0818 91.82C40.8151 91.9533 40.5418 92.0467 40.2618 92.1C39.9818 92.1667 39.7085 92.2 39.4418 92.2C38.9351 92.2 38.4818 92.12 38.0818 91.96C37.6818 91.7867 37.3418 91.56 37.0618 91.28C36.7951 91 36.5885 90.6667 36.4418 90.28C36.2951 89.8933 36.2218 89.48 36.2218 89.04C36.2218 88.8667 36.2285 88.5867 36.2418 88.2C36.2685 87.8 36.2951 87.3533 36.3218 86.86C36.3618 86.3667 36.4018 85.8467 36.4418 85.3C36.4818 84.74 36.5151 84.2133 36.5418 83.72C36.5818 83.2267 36.6151 82.7933 36.6418 82.42C36.6818 82.0467 36.7085 81.78 36.7218 81.62C36.7485 81.38 36.8018 81.22 36.8818 81.14C36.9618 81.0467 37.0951 81 37.2818 81H37.9218C38.3351 81 38.6751 81.04 38.9418 81.12C39.2085 81.2 39.4151 81.3133 39.5618 81.46C39.7218 81.6067 39.8285 81.7867 39.8818 82C39.9485 82.2 39.9818 82.4333 39.9818 82.7ZM52.774 92.2C52.1873 92.2 51.6007 92.1267 51.014 91.98C50.4407 91.8333 49.9207 91.58 49.454 91.22C49.0007 90.86 48.6273 90.38 48.334 89.78C48.0407 89.18 47.894 88.4267 47.894 87.52C47.894 87.1867 47.9207 86.7867 47.974 86.32C48.0273 85.8533 48.1273 85.3733 48.274 84.88C48.434 84.3867 48.6473 83.9 48.914 83.42C49.194 82.9267 49.554 82.4867 49.994 82.1C50.434 81.7133 50.9673 81.4 51.594 81.16C52.2207 80.92 52.9673 80.8 53.834 80.8C54.5273 80.8 55.114 80.88 55.594 81.04C56.074 81.2 56.4607 81.42 56.754 81.7C57.0473 81.9667 57.2607 82.28 57.394 82.64C57.5273 83 57.594 83.3867 57.594 83.8C57.594 84.4133 57.4673 84.9333 57.214 85.36C56.974 85.7867 56.654 86.1467 56.254 86.44C55.8673 86.72 55.434 86.94 54.954 87.1C54.474 87.26 54.0007 87.3867 53.534 87.48C53.0673 87.56 52.634 87.6133 52.234 87.64C51.8473 87.6533 51.5473 87.66 51.334 87.66C51.334 87.9133 51.3673 88.1667 51.434 88.42C51.514 88.66 51.6273 88.8733 51.774 89.06C51.9207 89.2467 52.114 89.4 52.354 89.52C52.594 89.64 52.8873 89.7 53.234 89.7C53.5807 89.7 53.8473 89.6467 54.034 89.54C54.234 89.42 54.394 89.2933 54.514 89.16C54.634 89.0133 54.734 88.8867 54.814 88.78C54.9073 88.66 55.0273 88.6 55.174 88.6C55.2407 88.6 55.354 88.62 55.514 88.66C55.6873 88.6867 55.8607 88.7533 56.034 88.86C56.2073 88.9667 56.3607 89.1133 56.494 89.3C56.6273 89.4867 56.694 89.7267 56.694 90.02C56.694 90.4067 56.574 90.74 56.334 91.02C56.094 91.3 55.7807 91.5267 55.394 91.7C55.0207 91.8733 54.6007 92 54.134 92.08C53.6673 92.16 53.214 92.2 52.774 92.2ZM53.154 83.46C52.8607 83.46 52.6073 83.5467 52.394 83.72C52.194 83.88 52.0207 84.0867 51.874 84.34C51.7407 84.5933 51.634 84.8733 51.554 85.18C51.4873 85.4867 51.434 85.78 51.394 86.06C52.2207 86.0467 52.8873 85.9067 53.394 85.64C53.914 85.3733 54.174 84.9933 54.174 84.5C54.174 84.2333 54.0873 83.9933 53.914 83.78C53.754 83.5667 53.5007 83.46 53.154 83.46ZM63.4585 80.8C64.5918 80.8 65.4252 81.0267 65.9585 81.48C66.4918 81.92 66.7585 82.4867 66.7585 83.18C66.7585 83.7667 66.5718 84.2133 66.1985 84.52C65.8385 84.8267 65.3118 84.98 64.6185 84.98C64.4318 84.98 64.3052 84.96 64.2385 84.92C64.1718 84.88 64.1385 84.8067 64.1385 84.7C64.1385 84.58 64.1252 84.4467 64.0985 84.3C64.0852 84.14 64.0385 83.9933 63.9585 83.86C63.8918 83.7133 63.7785 83.5933 63.6185 83.5C63.4718 83.4067 63.2585 83.36 62.9785 83.36C62.6052 83.36 62.3052 83.4533 62.0785 83.64C61.8518 83.8133 61.7385 84.0333 61.7385 84.3C61.7385 84.58 61.8518 84.8067 62.0785 84.98C62.3185 85.14 62.6118 85.2933 62.9585 85.44C63.3185 85.5867 63.7052 85.74 64.1185 85.9C64.5318 86.0467 64.9118 86.2467 65.2585 86.5C65.6185 86.7533 65.9118 87.0733 66.1385 87.46C66.3785 87.8333 66.4985 88.32 66.4985 88.92C66.4985 89.88 66.1585 90.6667 65.4785 91.28C64.7985 91.8933 63.7785 92.2 62.4185 92.2C62.0452 92.2 61.6118 92.1667 61.1185 92.1C60.6385 92.0467 60.1785 91.96 59.7385 91.84C59.2985 91.7067 58.9252 91.5333 58.6185 91.32C58.3252 91.1067 58.1785 90.84 58.1785 90.52C58.1785 90.4 58.1985 90.2533 58.2385 90.08C58.2918 89.9067 58.3652 89.74 58.4585 89.58C58.5652 89.42 58.6852 89.2867 58.8185 89.18C58.9652 89.06 59.1385 89 59.3385 89C59.4985 89 59.6452 89.04 59.7785 89.12C59.9118 89.2 60.0652 89.2867 60.2385 89.38C60.4252 89.46 60.6518 89.54 60.9185 89.62C61.1852 89.7 61.5385 89.74 61.9785 89.74C62.3118 89.74 62.6052 89.7 62.8585 89.62C63.1252 89.54 63.2585 89.36 63.2585 89.08C63.2585 88.8267 63.1518 88.6267 62.9385 88.48C62.7252 88.32 62.4518 88.1733 62.1185 88.04C61.7985 87.9067 61.4452 87.7667 61.0585 87.62C60.6852 87.46 60.3318 87.2533 59.9985 87C59.6785 86.7467 59.4118 86.4267 59.1985 86.04C58.9852 85.64 58.8785 85.1267 58.8785 84.5C58.8785 83.82 59.0118 83.2467 59.2785 82.78C59.5585 82.3 59.9118 81.9133 60.3385 81.62C60.7785 81.3267 61.2718 81.12 61.8185 81C62.3652 80.8667 62.9118 80.8 63.4585 80.8ZM72.853 80.8C73.9864 80.8 74.8197 81.0267 75.353 81.48C75.8864 81.92 76.153 82.4867 76.153 83.18C76.153 83.7667 75.9664 84.2133 75.593 84.52C75.233 84.8267 74.7064 84.98 74.013 84.98C73.8264 84.98 73.6997 84.96 73.633 84.92C73.5664 84.88 73.533 84.8067 73.533 84.7C73.533 84.58 73.5197 84.4467 73.493 84.3C73.4797 84.14 73.433 83.9933 73.353 83.86C73.2864 83.7133 73.173 83.5933 73.013 83.5C72.8664 83.4067 72.653 83.36 72.373 83.36C71.9997 83.36 71.6997 83.4533 71.473 83.64C71.2464 83.8133 71.133 84.0333 71.133 84.3C71.133 84.58 71.2464 84.8067 71.473 84.98C71.713 85.14 72.0064 85.2933 72.353 85.44C72.713 85.5867 73.0997 85.74 73.513 85.9C73.9264 86.0467 74.3064 86.2467 74.653 86.5C75.013 86.7533 75.3064 87.0733 75.533 87.46C75.773 87.8333 75.893 88.32 75.893 88.92C75.893 89.88 75.553 90.6667 74.873 91.28C74.193 91.8933 73.173 92.2 71.813 92.2C71.4397 92.2 71.0064 92.1667 70.513 92.1C70.033 92.0467 69.573 91.96 69.133 91.84C68.693 91.7067 68.3197 91.5333 68.013 91.32C67.7197 91.1067 67.573 90.84 67.573 90.52C67.573 90.4 67.593 90.2533 67.633 90.08C67.6864 89.9067 67.7597 89.74 67.853 89.58C67.9597 89.42 68.0797 89.2867 68.213 89.18C68.3597 89.06 68.533 89 68.733 89C68.893 89 69.0397 89.04 69.173 89.12C69.3064 89.2 69.4597 89.2867 69.633 89.38C69.8197 89.46 70.0464 89.54 70.313 89.62C70.5797 89.7 70.933 89.74 71.373 89.74C71.7064 89.74 71.9997 89.7 72.253 89.62C72.5197 89.54 72.653 89.36 72.653 89.08C72.653 88.8267 72.5464 88.6267 72.333 88.48C72.1197 88.32 71.8464 88.1733 71.513 88.04C71.193 87.9067 70.8397 87.7667 70.453 87.62C70.0797 87.46 69.7264 87.2533 69.393 87C69.073 86.7467 68.8064 86.4267 68.593 86.04C68.3797 85.64 68.273 85.1267 68.273 84.5C68.273 83.82 68.4064 83.2467 68.673 82.78C68.953 82.3 69.3064 81.9133 69.733 81.62C70.173 81.3267 70.6664 81.12 71.213 81C71.7597 80.8667 72.3064 80.8 72.853 80.8ZM82.2076 92.2C81.6209 92.2 81.0342 92.1267 80.4476 91.98C79.8742 91.8333 79.3542 91.58 78.8876 91.22C78.4342 90.86 78.0609 90.38 77.7676 89.78C77.4742 89.18 77.3276 88.4267 77.3276 87.52C77.3276 87.1867 77.3542 86.7867 77.4076 86.32C77.4609 85.8533 77.5609 85.3733 77.7076 84.88C77.8676 84.3867 78.0809 83.9 78.3476 83.42C78.6276 82.9267 78.9876 82.4867 79.4276 82.1C79.8676 81.7133 80.4009 81.4 81.0276 81.16C81.6542 80.92 82.4009 80.8 83.2676 80.8C83.9609 80.8 84.5476 80.88 85.0276 81.04C85.5076 81.2 85.8942 81.42 86.1876 81.7C86.4809 81.9667 86.6942 82.28 86.8276 82.64C86.9609 83 87.0276 83.3867 87.0276 83.8C87.0276 84.4133 86.9009 84.9333 86.6476 85.36C86.4076 85.7867 86.0876 86.1467 85.6876 86.44C85.3009 86.72 84.8676 86.94 84.3876 87.1C83.9076 87.26 83.4342 87.3867 82.9676 87.48C82.5009 87.56 82.0676 87.6133 81.6676 87.64C81.2809 87.6533 80.9809 87.66 80.7676 87.66C80.7676 87.9133 80.8009 88.1667 80.8676 88.42C80.9476 88.66 81.0609 88.8733 81.2076 89.06C81.3542 89.2467 81.5476 89.4 81.7876 89.52C82.0276 89.64 82.3209 89.7 82.6676 89.7C83.0142 89.7 83.2809 89.6467 83.4676 89.54C83.6676 89.42 83.8276 89.2933 83.9476 89.16C84.0676 89.0133 84.1676 88.8867 84.2476 88.78C84.3409 88.66 84.4609 88.6 84.6076 88.6C84.6742 88.6 84.7876 88.62 84.9476 88.66C85.1209 88.6867 85.2942 88.7533 85.4676 88.86C85.6409 88.9667 85.7942 89.1133 85.9276 89.3C86.0609 89.4867 86.1276 89.7267 86.1276 90.02C86.1276 90.4067 86.0076 90.74 85.7676 91.02C85.5276 91.3 85.2142 91.5267 84.8276 91.7C84.4542 91.8733 84.0342 92 83.5676 92.08C83.1009 92.16 82.6476 92.2 82.2076 92.2ZM82.5876 83.46C82.2942 83.46 82.0409 83.5467 81.8276 83.72C81.6276 83.88 81.4542 84.0867 81.3076 84.34C81.1742 84.5933 81.0676 84.8733 80.9876 85.18C80.9209 85.4867 80.8676 85.78 80.8276 86.06C81.6542 86.0467 82.3209 85.9067 82.8276 85.64C83.3476 85.3733 83.6076 84.9933 83.6076 84.5C83.6076 84.2333 83.5209 83.9933 83.3476 83.78C83.1876 83.5667 82.9342 83.46 82.5876 83.46ZM92.8921 80.8C94.0254 80.8 94.8588 81.0267 95.3921 81.48C95.9254 81.92 96.1921 82.4867 96.1921 83.18C96.1921 83.7667 96.0054 84.2133 95.6321 84.52C95.2721 84.8267 94.7454 84.98 94.0521 84.98C93.8654 84.98 93.7388 84.96 93.6721 84.92C93.6054 84.88 93.5721 84.8067 93.5721 84.7C93.5721 84.58 93.5588 84.4467 93.5321 84.3C93.5188 84.14 93.4721 83.9933 93.3921 83.86C93.3254 83.7133 93.2121 83.5933 93.0521 83.5C92.9054 83.4067 92.6921 83.36 92.4121 83.36C92.0388 83.36 91.7388 83.4533 91.5121 83.64C91.2854 83.8133 91.1721 84.0333 91.1721 84.3C91.1721 84.58 91.2854 84.8067 91.5121 84.98C91.7521 85.14 92.0454 85.2933 92.3921 85.44C92.7521 85.5867 93.1388 85.74 93.5521 85.9C93.9654 86.0467 94.3454 86.2467 94.6921 86.5C95.0521 86.7533 95.3454 87.0733 95.5721 87.46C95.8121 87.8333 95.9321 88.32 95.9321 88.92C95.9321 89.88 95.5921 90.6667 94.9121 91.28C94.2321 91.8933 93.2121 92.2 91.8521 92.2C91.4788 92.2 91.0454 92.1667 90.5521 92.1C90.0721 92.0467 89.6121 91.96 89.1721 91.84C88.7321 91.7067 88.3588 91.5333 88.0521 91.32C87.7588 91.1067 87.6121 90.84 87.6121 90.52C87.6121 90.4 87.6321 90.2533 87.6721 90.08C87.7254 89.9067 87.7988 89.74 87.8921 89.58C87.9988 89.42 88.1188 89.2867 88.2521 89.18C88.3988 89.06 88.5721 89 88.7721 89C88.9321 89 89.0788 89.04 89.2121 89.12C89.3454 89.2 89.4988 89.2867 89.6721 89.38C89.8588 89.46 90.0854 89.54 90.3521 89.62C90.6188 89.7 90.9721 89.74 91.4121 89.74C91.7454 89.74 92.0388 89.7 92.2921 89.62C92.5588 89.54 92.6921 89.36 92.6921 89.08C92.6921 88.8267 92.5854 88.6267 92.3721 88.48C92.1588 88.32 91.8854 88.1733 91.5521 88.04C91.2321 87.9067 90.8788 87.7667 90.4921 87.62C90.1188 87.46 89.7654 87.2533 89.4321 87C89.1121 86.7467 88.8454 86.4267 88.6321 86.04C88.4188 85.64 88.3121 85.1267 88.3121 84.5C88.3121 83.82 88.4454 83.2467 88.7121 82.78C88.9921 82.3 89.3454 81.9133 89.7721 81.62C90.2121 81.3267 90.7054 81.12 91.2521 81C91.7988 80.8667 92.3454 80.8 92.8921 80.8Z" fill="black"/>
</svg>
