<svg width="121" height="115" viewBox="0 0 121 115" fill="none" xmlns="http://www.w3.org/2000/svg">
<rect x="1" width="120" height="115" fill="#FFEDFB"/>
<path d="M15.223 20C14.4764 20 13.943 19.8533 13.623 19.56C13.303 19.2667 13.143 18.8467 13.143 18.3C13.143 18.0333 13.163 17.58 13.203 16.94C13.243 16.2867 13.2964 15.5467 13.363 14.72C13.4297 13.8933 13.4964 13.02 13.563 12.1C13.6297 11.18 13.6964 10.3133 13.763 9.5C13.8297 8.68667 13.883 7.97333 13.923 7.36C13.963 6.74667 13.983 6.32667 13.983 6.1C13.983 5.9 14.0897 5.8 14.303 5.8H21.343C21.423 5.8 21.4964 5.82 21.563 5.86C21.6297 5.9 21.663 5.97333 21.663 6.08L21.583 7.26C21.5564 7.66 21.443 7.98667 21.243 8.24C21.0564 8.48 20.663 8.6 20.063 8.6H17.303L17.103 11.42H19.943C20.023 11.42 20.0964 11.44 20.163 11.48C20.2297 11.52 20.263 11.5933 20.263 11.7L20.183 12.88C20.1564 13.28 20.043 13.6067 19.843 13.86C19.6564 14.1 19.263 14.22 18.663 14.22H16.923L16.703 17.2H21.103C21.183 17.2 21.2564 17.2267 21.323 17.28C21.3897 17.32 21.423 17.3867 21.423 17.48L21.343 18.66C21.3164 19.06 21.203 19.3867 21.003 19.64C20.8164 19.88 20.423 20 19.823 20H15.223ZM22.3626 17.54C22.3626 16.34 22.9026 15.4 23.9826 14.72C25.0626 14.04 26.6559 13.6733 28.7626 13.62C28.7759 13.4733 28.7826 13.3533 28.7826 13.26C28.7959 13.1533 28.8026 13.0267 28.8026 12.88C28.8026 12.4533 28.7226 12.1133 28.5626 11.86C28.4026 11.6067 28.0692 11.48 27.5626 11.48C27.2826 11.48 27.0559 11.52 26.8826 11.6C26.7092 11.68 26.5692 11.7933 26.4626 11.94C26.3559 12.0733 26.2692 12.24 26.2026 12.44C26.1359 12.64 26.0759 12.86 26.0226 13.1C25.9959 13.22 25.9359 13.3 25.8426 13.34C25.7492 13.3667 25.6026 13.38 25.4026 13.38C24.0426 13.38 23.3626 12.8667 23.3626 11.84C23.3626 11.4267 23.4559 11.0333 23.6426 10.66C23.8426 10.2867 24.1292 9.96667 24.5026 9.7C24.8892 9.42 25.3692 9.2 25.9426 9.04C26.5159 8.88 27.1826 8.8 27.9426 8.8C29.4226 8.8 30.4959 9.10667 31.1626 9.72C31.8292 10.3333 32.1626 11.2 32.1626 12.32C32.1626 12.4667 32.1426 12.7333 32.1026 13.12C32.0759 13.4933 32.0359 13.8933 31.9826 14.32C31.9426 14.7333 31.9026 15.1267 31.8626 15.5C31.8359 15.8733 31.8226 16.1333 31.8226 16.28C31.8226 16.6133 31.8826 16.8533 32.0026 17C32.1226 17.1333 32.2559 17.2267 32.4026 17.28C32.5626 17.3333 32.7026 17.3733 32.8226 17.4C32.9426 17.4267 33.0026 17.4933 33.0026 17.6C33.0026 17.8933 32.9626 18.1933 32.8826 18.5C32.8026 18.8067 32.6692 19.0867 32.4826 19.34C32.3092 19.5933 32.0626 19.8 31.7426 19.96C31.4359 20.12 31.0559 20.2 30.6026 20.2C29.9626 20.2 29.4826 20.0467 29.1626 19.74C28.8426 19.4333 28.6292 19.0067 28.5226 18.46C28.2026 18.9267 27.7826 19.3333 27.2626 19.68C26.7559 20.0267 26.0892 20.2 25.2626 20.2C24.8626 20.2 24.4826 20.1533 24.1226 20.06C23.7759 19.9667 23.4692 19.8133 23.2026 19.6C22.9492 19.3867 22.7426 19.1133 22.5826 18.78C22.4359 18.4333 22.3626 18.02 22.3626 17.54ZM28.5826 15.26C28.2359 15.26 27.8959 15.2867 27.5626 15.34C27.2292 15.3933 26.9292 15.48 26.6626 15.6C26.4092 15.7067 26.2026 15.8533 26.0426 16.04C25.8826 16.2267 25.8026 16.4533 25.8026 16.72C25.8026 17.0267 25.8959 17.24 26.0826 17.36C26.2826 17.48 26.4959 17.54 26.7226 17.54C26.9359 17.54 27.1492 17.4933 27.3626 17.4C27.5759 17.3067 27.7626 17.1667 27.9226 16.98C28.0959 16.78 28.2426 16.54 28.3626 16.26C28.4826 15.98 28.5559 15.6467 28.5826 15.26ZM40.6921 13.78C40.6121 13.78 40.5188 13.78 40.4121 13.78C40.3188 13.7667 40.2254 13.7533 40.1321 13.74C40.0388 13.7133 39.9588 13.6867 39.8921 13.66C39.8254 13.62 39.7921 13.5733 39.7921 13.52C39.7921 13.3467 39.7988 13.1867 39.8121 13.04C39.8254 12.8933 39.8321 12.74 39.8321 12.58C39.8321 12.2867 39.7921 12.0467 39.7121 11.86C39.6321 11.6733 39.4721 11.58 39.2321 11.58C38.8588 11.58 38.5454 11.8267 38.2921 12.32C38.0521 12.8 37.8988 13.5267 37.8321 14.5C37.8054 14.9267 37.7654 15.4133 37.7121 15.96C37.6721 16.4933 37.6321 17.0133 37.5921 17.52C37.5521 18.0133 37.5188 18.4533 37.4921 18.84C37.4654 19.2267 37.4521 19.48 37.4521 19.6C37.4521 19.7333 37.4054 19.8333 37.3121 19.9C37.2188 19.9667 37.1188 20 37.0121 20H36.2921C35.8788 20 35.5388 19.96 35.2721 19.88C35.0188 19.7867 34.8121 19.66 34.6521 19.5C34.5054 19.34 34.3988 19.1467 34.3321 18.92C34.2788 18.68 34.2521 18.4067 34.2521 18.1C34.2521 17.9 34.2588 17.62 34.2721 17.26C34.2988 16.8867 34.3388 16.38 34.3921 15.74C34.4454 15.0867 34.5054 14.2667 34.5721 13.28C34.6521 12.28 34.7454 11.0467 34.8521 9.58C34.8788 9.19333 35.0188 9 35.2721 9H36.0521C36.4254 9 36.7388 9.04 36.9921 9.12C37.2454 9.2 37.4521 9.31333 37.6121 9.46C37.7721 9.59333 37.8854 9.75333 37.9521 9.94C38.0321 10.1267 38.0854 10.32 38.1121 10.52C38.2721 10.2133 38.4588 9.95333 38.6721 9.74C38.8988 9.51333 39.1321 9.33333 39.3721 9.2C39.6121 9.05333 39.8588 8.95333 40.1121 8.9C40.3654 8.83333 40.5988 8.8 40.8121 8.8C41.0654 8.8 41.3188 8.84667 41.5721 8.94C41.8388 9.03333 42.0788 9.17333 42.2921 9.36C42.5054 9.54667 42.6721 9.78667 42.7921 10.08C42.9254 10.3733 42.9921 10.72 42.9921 11.12C42.9921 11.48 42.9388 11.82 42.8321 12.14C42.7254 12.46 42.5721 12.7467 42.3721 13C42.1721 13.24 41.9254 13.4333 41.6321 13.58C41.3521 13.7133 41.0388 13.78 40.6921 13.78ZM50.6224 18.24C50.6224 17.9467 50.6424 17.5667 50.6824 17.1C50.7358 16.62 50.7824 16.12 50.8224 15.6C50.8758 15.0667 50.9224 14.5533 50.9624 14.06C51.0158 13.5667 51.0424 13.1533 51.0424 12.82C51.0424 12.4733 50.9558 12.1667 50.7824 11.9C50.6224 11.62 50.3024 11.48 49.8224 11.48C49.3558 11.48 48.9691 11.5933 48.6624 11.82C48.3558 12.0467 48.0958 12.46 47.8824 13.06C47.6824 13.66 47.5158 14.4867 47.3824 15.54C47.2491 16.5933 47.1224 17.9467 47.0024 19.6C46.9891 19.76 46.9558 19.8667 46.9024 19.92C46.8491 19.9733 46.7358 20 46.5624 20H45.8424C45.4291 20 45.0891 19.96 44.8224 19.88C44.5691 19.7867 44.3624 19.66 44.2024 19.5C44.0558 19.34 43.9491 19.1467 43.8824 18.92C43.8291 18.68 43.8024 18.4067 43.8024 18.1C43.8024 17.9 43.8091 17.62 43.8224 17.26C43.8491 16.8867 43.8891 16.38 43.9424 15.74C43.9958 15.0867 44.0558 14.2667 44.1224 13.28C44.2024 12.28 44.2958 11.0467 44.4024 9.58C44.4158 9.28667 44.4491 9.11333 44.5024 9.06C44.5424 9.02 44.6491 9 44.8224 9H45.6024C46.0024 9 46.3291 9.04667 46.5824 9.14C46.8491 9.23333 47.0624 9.36 47.2224 9.52C47.3824 9.66667 47.4958 9.84667 47.5624 10.06C47.6291 10.26 47.6691 10.4667 47.6824 10.68C48.0958 9.97333 48.5691 9.48667 49.1024 9.22C49.6358 8.94 50.3024 8.8 51.1024 8.8C51.6624 8.8 52.1491 8.86 52.5624 8.98C52.9758 9.1 53.3158 9.30667 53.5824 9.6C53.8624 9.88 54.0691 10.2533 54.2024 10.72C54.3358 11.1733 54.4024 11.74 54.4024 12.42C54.4024 12.6333 54.3891 12.94 54.3624 13.34C54.3358 13.74 54.3024 14.18 54.2624 14.66C54.2224 15.1267 54.1758 15.62 54.1224 16.14C54.0824 16.6467 54.0424 17.12 54.0024 17.56C53.9624 18 53.9291 18.3867 53.9024 18.72C53.8758 19.0533 53.8624 19.2733 53.8624 19.38C53.8624 19.6733 53.8291 19.8533 53.7624 19.92C53.6958 19.9733 53.5491 20 53.3224 20H52.6824C52.2558 20 51.9091 19.96 51.6424 19.88C51.3758 19.8 51.1691 19.6867 51.0224 19.54C50.8758 19.3933 50.7691 19.2133 50.7024 19C50.6491 18.7733 50.6224 18.52 50.6224 18.24ZM63.9421 16.4C63.9021 17.0133 63.8554 17.6 63.8021 18.16C63.7488 18.7067 63.7088 19.1867 63.6821 19.6C63.6688 19.76 63.6354 19.8667 63.5821 19.92C63.5288 19.9733 63.4154 20 63.2421 20H62.5221C62.1088 20 61.7688 19.96 61.5021 19.88C61.2488 19.7867 61.0421 19.66 60.8821 19.5C60.7354 19.34 60.6288 19.1467 60.5621 18.92C60.5088 18.68 60.4821 18.4067 60.4821 18.1C60.4821 17.9 60.4888 17.62 60.5021 17.26C60.5288 16.8867 60.5688 16.38 60.6221 15.74C60.6754 15.0867 60.7354 14.2667 60.8021 13.28C60.8821 12.28 60.9754 11.0467 61.0821 9.58C61.0954 9.28667 61.1288 9.11333 61.1821 9.06C61.2221 9.02 61.3288 9 61.5021 9H62.2821C62.6821 9 63.0088 9.04667 63.2621 9.14C63.5154 9.23333 63.7221 9.35333 63.8821 9.5C64.0421 9.64667 64.1554 9.82 64.2221 10.02C64.2888 10.22 64.3288 10.4267 64.3421 10.64C64.7288 9.92 65.1688 9.43333 65.6621 9.18C66.1554 8.92667 66.7354 8.8 67.4021 8.8C67.7621 8.8 68.1088 8.83333 68.4421 8.9C68.7754 8.96667 69.0754 9.08 69.3421 9.24C69.6088 9.4 69.8354 9.61333 70.0221 9.88C70.2088 10.1333 70.3421 10.46 70.4221 10.86C70.8354 10.0867 71.2888 9.55333 71.7821 9.26C72.2754 8.95333 72.8954 8.8 73.6421 8.8C74.0554 8.8 74.4488 8.84667 74.8221 8.94C75.2088 9.02 75.5421 9.16667 75.8221 9.38C76.1021 9.59333 76.3221 9.88667 76.4821 10.26C76.6554 10.62 76.7421 11.0733 76.7421 11.62C76.7421 12.0333 76.7221 12.54 76.6821 13.14C76.6421 13.74 76.5954 14.3933 76.5421 15.1C76.4888 15.7933 76.4288 16.5133 76.3621 17.26C76.2954 17.9933 76.2421 18.7 76.2021 19.38C76.1888 19.5267 76.1754 19.64 76.1621 19.72C76.1488 19.8 76.1221 19.86 76.0821 19.9C76.0554 19.94 76.0088 19.9667 75.9421 19.98C75.8754 19.9933 75.7821 20 75.6621 20H75.0221C74.5954 20 74.2488 19.96 73.9821 19.88C73.7154 19.8 73.5088 19.6867 73.3621 19.54C73.2154 19.3933 73.1088 19.2133 73.0421 19C72.9888 18.7733 72.9621 18.52 72.9621 18.24C72.9621 18.0667 72.9688 17.82 72.9821 17.5C73.0088 17.18 73.0354 16.8333 73.0621 16.46C73.1021 16.0867 73.1354 15.7 73.1621 15.3C73.2021 14.9 73.2354 14.5333 73.2621 14.2C73.3021 13.8533 73.3288 13.5533 73.3421 13.3C73.3688 13.0467 73.3821 12.88 73.3821 12.8C73.3821 12.4533 73.3088 12.1467 73.1621 11.88C73.0288 11.6133 72.7621 11.48 72.3621 11.48C72.0154 11.48 71.7154 11.5933 71.4621 11.82C71.2088 12.0467 70.9954 12.36 70.8221 12.76C70.6488 13.16 70.5088 13.6333 70.4021 14.18C70.2954 14.7267 70.2221 15.32 70.1821 15.96C70.1554 16.3733 70.1221 16.8467 70.0821 17.38C70.0421 17.9133 69.9954 18.58 69.9421 19.38C69.9288 19.5267 69.9154 19.64 69.9021 19.72C69.8888 19.8 69.8621 19.86 69.8221 19.9C69.7954 19.94 69.7488 19.9667 69.6821 19.98C69.6154 19.9933 69.5221 20 69.4021 20H68.7621C68.3354 20 67.9888 19.96 67.7221 19.88C67.4554 19.8 67.2488 19.6867 67.1021 19.54C66.9554 19.3933 66.8488 19.2133 66.7821 19C66.7288 18.7733 66.7021 18.52 66.7021 18.24C66.7021 17.9733 66.7221 17.5867 66.7621 17.08C66.8154 16.56 66.8621 16.0267 66.9021 15.48C66.9554 14.92 67.0021 14.3933 67.0421 13.9C67.0954 13.3933 67.1221 13.0267 67.1221 12.8C67.1221 12.4533 67.0488 12.1467 66.9021 11.88C66.7688 11.6133 66.5021 11.48 66.1021 11.48C65.7421 11.48 65.4354 11.6133 65.1821 11.88C64.9288 12.1467 64.7154 12.5067 64.5421 12.96C64.3821 13.4 64.2488 13.92 64.1421 14.52C64.0488 15.12 63.9821 15.7467 63.9421 16.4ZM83.009 20.2C82.089 20.2 81.3223 20.0733 80.709 19.82C80.109 19.5533 79.629 19.1933 79.269 18.74C78.909 18.2867 78.6557 17.76 78.509 17.16C78.3623 16.5467 78.289 15.8933 78.289 15.2C78.289 14.4 78.3823 13.62 78.569 12.86C78.769 12.0867 79.1023 11.4 79.569 10.8C80.0357 10.2 80.649 9.72 81.409 9.36C82.1823 8.98667 83.1423 8.8 84.289 8.8C85.969 8.8 87.169 9.21333 87.889 10.04C88.6223 10.8533 88.989 12 88.989 13.48C88.989 13.8933 88.9557 14.3533 88.889 14.86C88.8357 15.3533 88.7223 15.8467 88.549 16.34C88.389 16.8333 88.1623 17.3133 87.869 17.78C87.589 18.2467 87.229 18.66 86.789 19.02C86.349 19.38 85.8157 19.6667 85.189 19.88C84.5757 20.0933 83.849 20.2 83.009 20.2ZM83.949 11.46C83.4423 11.46 83.0357 11.5933 82.729 11.86C82.4357 12.1133 82.209 12.4267 82.049 12.8C81.9023 13.16 81.8023 13.5467 81.749 13.96C81.709 14.36 81.689 14.7 81.689 14.98C81.689 15.86 81.829 16.5067 82.109 16.92C82.389 17.3333 82.789 17.54 83.309 17.54C83.7757 17.54 84.1557 17.3933 84.449 17.1C84.7557 16.8067 84.989 16.4533 85.149 16.04C85.3223 15.6267 85.4357 15.1933 85.489 14.74C85.5557 14.2867 85.589 13.9067 85.589 13.6C85.589 12.9333 85.4623 12.4133 85.209 12.04C84.969 11.6533 84.549 11.46 83.949 11.46ZM96.9421 13.78C96.8621 13.78 96.7688 13.78 96.6621 13.78C96.5688 13.7667 96.4754 13.7533 96.3821 13.74C96.2888 13.7133 96.2088 13.6867 96.1421 13.66C96.0754 13.62 96.0421 13.5733 96.0421 13.52C96.0421 13.3467 96.0488 13.1867 96.0621 13.04C96.0754 12.8933 96.0821 12.74 96.0821 12.58C96.0821 12.2867 96.0421 12.0467 95.9621 11.86C95.8821 11.6733 95.7221 11.58 95.4821 11.58C95.1088 11.58 94.7954 11.8267 94.5421 12.32C94.3021 12.8 94.1488 13.5267 94.0821 14.5C94.0554 14.9267 94.0154 15.4133 93.9621 15.96C93.9221 16.4933 93.8821 17.0133 93.8421 17.52C93.8021 18.0133 93.7688 18.4533 93.7421 18.84C93.7154 19.2267 93.7021 19.48 93.7021 19.6C93.7021 19.7333 93.6554 19.8333 93.5621 19.9C93.4688 19.9667 93.3688 20 93.2621 20H92.5421C92.1288 20 91.7888 19.96 91.5221 19.88C91.2688 19.7867 91.0621 19.66 90.9021 19.5C90.7554 19.34 90.6488 19.1467 90.5821 18.92C90.5288 18.68 90.5021 18.4067 90.5021 18.1C90.5021 17.9 90.5088 17.62 90.5221 17.26C90.5488 16.8867 90.5888 16.38 90.6421 15.74C90.6954 15.0867 90.7554 14.2667 90.8221 13.28C90.9021 12.28 90.9954 11.0467 91.1021 9.58C91.1288 9.19333 91.2688 9 91.5221 9H92.3021C92.6754 9 92.9888 9.04 93.2421 9.12C93.4954 9.2 93.7021 9.31333 93.8621 9.46C94.0221 9.59333 94.1354 9.75333 94.2021 9.94C94.2821 10.1267 94.3354 10.32 94.3621 10.52C94.5221 10.2133 94.7088 9.95333 94.9221 9.74C95.1488 9.51333 95.3821 9.33333 95.6221 9.2C95.8621 9.05333 96.1088 8.95333 96.3621 8.9C96.6154 8.83333 96.8488 8.8 97.0621 8.8C97.3154 8.8 97.5688 8.84667 97.8221 8.94C98.0888 9.03333 98.3288 9.17333 98.5421 9.36C98.7554 9.54667 98.9221 9.78667 99.0421 10.08C99.1754 10.3733 99.2421 10.72 99.2421 11.12C99.2421 11.48 99.1888 11.82 99.0821 12.14C98.9754 12.46 98.8221 12.7467 98.6221 13C98.4221 13.24 98.1754 13.4333 97.8821 13.58C97.6021 13.7133 97.2888 13.78 96.9421 13.78ZM104.672 20.2C104.086 20.2 103.499 20.1267 102.912 19.98C102.339 19.8333 101.819 19.58 101.352 19.22C100.899 18.86 100.526 18.38 100.232 17.78C99.9391 17.18 99.7924 16.4267 99.7924 15.52C99.7924 15.1867 99.8191 14.7867 99.8724 14.32C99.9258 13.8533 100.026 13.3733 100.172 12.88C100.332 12.3867 100.546 11.9 100.812 11.42C101.092 10.9267 101.452 10.4867 101.892 10.1C102.332 9.71333 102.866 9.4 103.492 9.16C104.119 8.92 104.866 8.8 105.732 8.8C106.426 8.8 107.012 8.88 107.492 9.04C107.972 9.2 108.359 9.42 108.652 9.7C108.946 9.96667 109.159 10.28 109.292 10.64C109.426 11 109.492 11.3867 109.492 11.8C109.492 12.4133 109.366 12.9333 109.112 13.36C108.872 13.7867 108.552 14.1467 108.152 14.44C107.766 14.72 107.332 14.94 106.852 15.1C106.372 15.26 105.899 15.3867 105.432 15.48C104.966 15.56 104.532 15.6133 104.132 15.64C103.746 15.6533 103.446 15.66 103.232 15.66C103.232 15.9133 103.266 16.1667 103.332 16.42C103.412 16.66 103.526 16.8733 103.672 17.06C103.819 17.2467 104.012 17.4 104.252 17.52C104.492 17.64 104.786 17.7 105.132 17.7C105.479 17.7 105.746 17.6467 105.932 17.54C106.132 17.42 106.292 17.2933 106.412 17.16C106.532 17.0133 106.632 16.8867 106.712 16.78C106.806 16.66 106.926 16.6 107.072 16.6C107.139 16.6 107.252 16.62 107.412 16.66C107.586 16.6867 107.759 16.7533 107.932 16.86C108.106 16.9667 108.259 17.1133 108.392 17.3C108.526 17.4867 108.592 17.7267 108.592 18.02C108.592 18.4067 108.472 18.74 108.232 19.02C107.992 19.3 107.679 19.5267 107.292 19.7C106.919 19.8733 106.499 20 106.032 20.08C105.566 20.16 105.112 20.2 104.672 20.2ZM105.052 11.46C104.759 11.46 104.506 11.5467 104.292 11.72C104.092 11.88 103.919 12.0867 103.772 12.34C103.639 12.5933 103.532 12.8733 103.452 13.18C103.386 13.4867 103.332 13.78 103.292 14.06C104.119 14.0467 104.786 13.9067 105.292 13.64C105.812 13.3733 106.072 12.9933 106.072 12.5C106.072 12.2333 105.986 11.9933 105.812 11.78C105.652 11.5667 105.399 11.46 105.052 11.46ZM22.0017 32.8C23.2551 32.8 24.1951 33.1867 24.8217 33.96C25.4617 34.7333 25.7817 35.9533 25.7817 37.62C25.7817 38.66 25.6617 39.5867 25.4217 40.4C25.1817 41.2133 24.8484 41.9067 24.4217 42.48C23.9951 43.04 23.4951 43.4667 22.9217 43.76C22.3484 44.0533 21.7284 44.2 21.0617 44.2C20.3551 44.2 19.8017 44.0467 19.4017 43.74C19.0017 43.4333 18.6884 43 18.4617 42.44C18.4217 42.92 18.3884 43.2867 18.3617 43.54C18.3351 43.7933 18.3151 43.9933 18.3017 44.14C18.2884 44.3 18.2751 44.44 18.2617 44.56C18.2617 44.68 18.2484 44.84 18.2217 45.04C18.2084 45.24 18.1884 45.5133 18.1617 45.86C18.1351 46.2067 18.0951 46.6867 18.0417 47.3C18.0284 47.46 17.9951 47.5667 17.9417 47.62C17.8884 47.6733 17.7751 47.7 17.6017 47.7H16.8817C16.4684 47.7 16.1284 47.6533 15.8617 47.56C15.6084 47.48 15.4017 47.36 15.2417 47.2C15.0951 47.04 14.9884 46.84 14.9217 46.6C14.8684 46.3733 14.8417 46.1067 14.8417 45.8C14.8417 45.6667 14.8617 45.3067 14.9017 44.72C14.9417 44.1333 14.9884 43.4333 15.0417 42.62C15.1084 41.7933 15.1751 40.9067 15.2417 39.96C15.3217 39.0133 15.3951 38.1133 15.4617 37.26C15.5284 36.3933 15.5817 35.6267 15.6217 34.96C15.6751 34.2933 15.7151 33.8333 15.7417 33.58C15.7551 33.2867 15.7884 33.1133 15.8417 33.06C15.8817 33.02 15.9884 33 16.1617 33H16.9417C17.6617 33 18.1817 33.1533 18.5017 33.46C18.8351 33.7533 19.0017 34.1067 19.0017 34.52C19.3084 33.9067 19.7017 33.4667 20.1817 33.2C20.6751 32.9333 21.2817 32.8 22.0017 32.8ZM20.5417 35.46C19.8617 35.46 19.3617 35.7533 19.0417 36.34C18.7217 36.9267 18.5617 37.7267 18.5617 38.74C18.5617 39.0867 18.5817 39.4267 18.6217 39.76C18.6751 40.0933 18.7617 40.3933 18.8817 40.66C19.0017 40.9267 19.1617 41.14 19.3617 41.3C19.5751 41.46 19.8417 41.54 20.1617 41.54C20.7351 41.54 21.2151 41.26 21.6017 40.7C21.9884 40.14 22.1817 39.26 22.1817 38.06C22.1817 37.7267 22.1551 37.4067 22.1017 37.1C22.0617 36.78 21.9817 36.5 21.8617 36.26C21.7417 36.02 21.5751 35.8267 21.3617 35.68C21.1484 35.5333 20.8751 35.46 20.5417 35.46ZM31.8078 44.2C30.8878 44.2 30.1211 44.0733 29.5078 43.82C28.9078 43.5533 28.4278 43.1933 28.0678 42.74C27.7078 42.2867 27.4545 41.76 27.3078 41.16C27.1611 40.5467 27.0878 39.8933 27.0878 39.2C27.0878 38.4 27.1811 37.62 27.3678 36.86C27.5678 36.0867 27.9011 35.4 28.3678 34.8C28.8345 34.2 29.4478 33.72 30.2078 33.36C30.9811 32.9867 31.9411 32.8 33.0878 32.8C34.7678 32.8 35.9678 33.2133 36.6878 34.04C37.4211 34.8533 37.7878 36 37.7878 37.48C37.7878 37.8933 37.7545 38.3533 37.6878 38.86C37.6345 39.3533 37.5211 39.8467 37.3478 40.34C37.1878 40.8333 36.9611 41.3133 36.6678 41.78C36.3878 42.2467 36.0278 42.66 35.5878 43.02C35.1478 43.38 34.6145 43.6667 33.9878 43.88C33.3745 44.0933 32.6478 44.2 31.8078 44.2ZM32.7478 35.46C32.2411 35.46 31.8345 35.5933 31.5278 35.86C31.2345 36.1133 31.0078 36.4267 30.8478 36.8C30.7011 37.16 30.6011 37.5467 30.5478 37.96C30.5078 38.36 30.4878 38.7 30.4878 38.98C30.4878 39.86 30.6278 40.5067 30.9078 40.92C31.1878 41.3333 31.5878 41.54 32.1078 41.54C32.5745 41.54 32.9545 41.3933 33.2478 41.1C33.5545 40.8067 33.7878 40.4533 33.9478 40.04C34.1211 39.6267 34.2345 39.1933 34.2878 38.74C34.3545 38.2867 34.3878 37.9067 34.3878 37.6C34.3878 36.9333 34.2611 36.4133 34.0078 36.04C33.7678 35.6533 33.3478 35.46 32.7478 35.46ZM41.3409 44C40.9276 44 40.5876 43.96 40.3209 43.88C40.0676 43.7867 39.8609 43.66 39.7009 43.5C39.5543 43.34 39.4476 43.1467 39.3809 42.92C39.3276 42.68 39.3009 42.4067 39.3009 42.1C39.3009 41.9 39.3076 41.62 39.3209 41.26C39.3476 40.8867 39.3876 40.38 39.4409 39.74C39.4943 39.0867 39.5543 38.2667 39.6209 37.28C39.7009 36.28 39.7943 35.0467 39.9009 33.58C39.9143 33.2867 39.9476 33.1133 40.0009 33.06C40.0409 33.02 40.1476 33 40.3209 33H41.1009C41.5143 33 41.8476 33.04 42.1009 33.12C42.3676 33.2 42.5743 33.32 42.7209 33.48C42.8809 33.64 42.9876 33.8333 43.0409 34.06C43.1076 34.2867 43.1409 34.54 43.1409 34.82C43.1409 35.02 43.1276 35.32 43.1009 35.72C43.0743 36.12 43.0343 36.6667 42.9809 37.36C42.9409 38.04 42.8809 38.8933 42.8009 39.92C42.7209 40.9333 42.6209 42.16 42.5009 43.6C42.4876 43.76 42.4543 43.8667 42.4009 43.92C42.3476 43.9733 42.2343 44 42.0609 44H41.3409ZM39.9209 30.64C39.9209 30.1067 40.1143 29.6867 40.5009 29.38C40.8876 29.0733 41.4076 28.92 42.0609 28.92C42.6343 28.92 43.0476 29.04 43.3009 29.28C43.5676 29.5067 43.7009 29.8133 43.7009 30.2C43.7009 30.6933 43.5143 31.1067 43.1409 31.44C42.7809 31.76 42.2476 31.92 41.5409 31.92C40.4609 31.92 39.9209 31.4933 39.9209 30.64ZM51.7259 42.24C51.7259 41.9467 51.7459 41.5667 51.7859 41.1C51.8393 40.62 51.8859 40.12 51.9259 39.6C51.9793 39.0667 52.0259 38.5533 52.0659 38.06C52.1193 37.5667 52.1459 37.1533 52.1459 36.82C52.1459 36.4733 52.0593 36.1667 51.8859 35.9C51.7259 35.62 51.4059 35.48 50.9259 35.48C50.4593 35.48 50.0726 35.5933 49.7659 35.82C49.4593 36.0467 49.1993 36.46 48.9859 37.06C48.7859 37.66 48.6193 38.4867 48.4859 39.54C48.3526 40.5933 48.2259 41.9467 48.1059 43.6C48.0926 43.76 48.0593 43.8667 48.0059 43.92C47.9526 43.9733 47.8393 44 47.6659 44H46.9459C46.5326 44 46.1926 43.96 45.9259 43.88C45.6726 43.7867 45.4659 43.66 45.3059 43.5C45.1593 43.34 45.0526 43.1467 44.9859 42.92C44.9326 42.68 44.9059 42.4067 44.9059 42.1C44.9059 41.9 44.9126 41.62 44.9259 41.26C44.9526 40.8867 44.9926 40.38 45.0459 39.74C45.0993 39.0867 45.1593 38.2667 45.2259 37.28C45.3059 36.28 45.3993 35.0467 45.5059 33.58C45.5193 33.2867 45.5526 33.1133 45.6059 33.06C45.6459 33.02 45.7526 33 45.9259 33H46.7059C47.1059 33 47.4326 33.0467 47.6859 33.14C47.9526 33.2333 48.1659 33.36 48.3259 33.52C48.4859 33.6667 48.5993 33.8467 48.6659 34.06C48.7326 34.26 48.7726 34.4667 48.7859 34.68C49.1993 33.9733 49.6726 33.4867 50.2059 33.22C50.7393 32.94 51.4059 32.8 52.2059 32.8C52.7659 32.8 53.2526 32.86 53.6659 32.98C54.0793 33.1 54.4193 33.3067 54.6859 33.6C54.9659 33.88 55.1726 34.2533 55.3059 34.72C55.4393 35.1733 55.5059 35.74 55.5059 36.42C55.5059 36.6333 55.4926 36.94 55.4659 37.34C55.4393 37.74 55.4059 38.18 55.3659 38.66C55.3259 39.1267 55.2793 39.62 55.2259 40.14C55.1859 40.6467 55.1459 41.12 55.1059 41.56C55.0659 42 55.0326 42.3867 55.0059 42.72C54.9793 43.0533 54.9659 43.2733 54.9659 43.38C54.9659 43.6733 54.9326 43.8533 54.8659 43.92C54.7993 43.9733 54.6526 44 54.4259 44H53.7859C53.3593 44 53.0126 43.96 52.7459 43.88C52.4793 43.8 52.2726 43.6867 52.1259 43.54C51.9793 43.3933 51.8726 43.2133 51.8059 43C51.7526 42.7733 51.7259 42.52 51.7259 42.24ZM61.5888 35.7C61.5488 36.2067 61.5021 36.7067 61.4488 37.2C61.4088 37.6933 61.3688 38.16 61.3288 38.6C61.2888 39.04 61.2554 39.4333 61.2288 39.78C61.2154 40.1267 61.2088 40.3933 61.2088 40.58C61.2088 40.9267 61.2488 41.16 61.3288 41.28C61.4088 41.3867 61.5421 41.44 61.7288 41.44C61.8754 41.44 62.0021 41.4133 62.1088 41.36C62.2154 41.3067 62.3154 41.2467 62.4088 41.18C62.5021 41.1133 62.5821 41.0533 62.6488 41C62.7288 40.9467 62.8154 40.92 62.9088 40.92C63.0021 40.92 63.0888 40.9733 63.1688 41.08C63.2488 41.1867 63.2888 41.4333 63.2888 41.82C63.2888 42.5533 63.0888 43.1333 62.6888 43.56C62.2888 43.9867 61.6021 44.2 60.6288 44.2C59.6688 44.2 58.9554 43.98 58.4888 43.54C58.0354 43.0867 57.8088 42.4 57.8088 41.48C57.8088 41.28 57.8154 41.0467 57.8288 40.78C57.8554 40.5 57.8888 40.14 57.9288 39.7C57.9688 39.26 58.0154 38.72 58.0688 38.08C58.1354 37.44 58.2021 36.6467 58.2688 35.7H57.2088C57.1021 35.7 57.0354 35.68 57.0088 35.64C56.9954 35.5867 56.9888 35.5133 56.9888 35.42L57.0488 34.4C57.0621 34.2267 57.0821 34.06 57.1088 33.9C57.1488 33.7267 57.2154 33.5733 57.3088 33.44C57.4154 33.3067 57.5621 33.2 57.7488 33.12C57.9354 33.04 58.1821 33 58.4888 33C58.5821 32.76 58.6888 32.4733 58.8088 32.14C58.9288 31.8067 59.0488 31.4867 59.1688 31.18C59.2888 30.86 59.4021 30.5933 59.5088 30.38C59.6288 30.1667 59.7354 30.06 59.8288 30.06H60.4088C60.9688 30.06 61.3554 30.2333 61.5688 30.58C61.7821 30.9267 61.8888 31.34 61.8888 31.82C61.8888 32.0867 61.8688 32.48 61.8288 33H63.9288C64.1421 33 64.2488 33.0933 64.2488 33.28L64.1688 34.36C64.1421 34.76 64.0288 35.0867 63.8288 35.34C63.6421 35.58 63.2488 35.7 62.6488 35.7H61.5888ZM69.937 32.8C71.0704 32.8 71.9037 33.0267 72.437 33.48C72.9704 33.92 73.237 34.4867 73.237 35.18C73.237 35.7667 73.0504 36.2133 72.677 36.52C72.317 36.8267 71.7904 36.98 71.097 36.98C70.9104 36.98 70.7837 36.96 70.717 36.92C70.6504 36.88 70.617 36.8067 70.617 36.7C70.617 36.58 70.6037 36.4467 70.577 36.3C70.5637 36.14 70.517 35.9933 70.437 35.86C70.3704 35.7133 70.257 35.5933 70.097 35.5C69.9504 35.4067 69.737 35.36 69.457 35.36C69.0837 35.36 68.7837 35.4533 68.557 35.64C68.3304 35.8133 68.217 36.0333 68.217 36.3C68.217 36.58 68.3304 36.8067 68.557 36.98C68.797 37.14 69.0904 37.2933 69.437 37.44C69.797 37.5867 70.1837 37.74 70.597 37.9C71.0104 38.0467 71.3904 38.2467 71.737 38.5C72.097 38.7533 72.3904 39.0733 72.617 39.46C72.857 39.8333 72.977 40.32 72.977 40.92C72.977 41.88 72.637 42.6667 71.957 43.28C71.277 43.8933 70.257 44.2 68.897 44.2C68.5237 44.2 68.0904 44.1667 67.597 44.1C67.117 44.0467 66.657 43.96 66.217 43.84C65.777 43.7067 65.4037 43.5333 65.097 43.32C64.8037 43.1067 64.657 42.84 64.657 42.52C64.657 42.4 64.677 42.2533 64.717 42.08C64.7704 41.9067 64.8437 41.74 64.937 41.58C65.0437 41.42 65.1637 41.2867 65.297 41.18C65.4437 41.06 65.617 41 65.817 41C65.977 41 66.1237 41.04 66.257 41.12C66.3904 41.2 66.5437 41.2867 66.717 41.38C66.9037 41.46 67.1304 41.54 67.397 41.62C67.6637 41.7 68.017 41.74 68.457 41.74C68.7904 41.74 69.0837 41.7 69.337 41.62C69.6037 41.54 69.737 41.36 69.737 41.08C69.737 40.8267 69.6304 40.6267 69.417 40.48C69.2037 40.32 68.9304 40.1733 68.597 40.04C68.277 39.9067 67.9237 39.7667 67.537 39.62C67.1637 39.46 66.8104 39.2533 66.477 39C66.157 38.7467 65.8904 38.4267 65.677 38.04C65.4637 37.64 65.357 37.1267 65.357 36.5C65.357 35.82 65.4904 35.2467 65.757 34.78C66.037 34.3 66.3904 33.9133 66.817 33.62C67.257 33.3267 67.7504 33.12 68.297 33C68.8437 32.8667 69.3904 32.8 69.937 32.8ZM83.1084 37.08C83.0818 37.48 83.0484 37.9133 83.0084 38.38C82.9684 38.8467 82.9284 39.32 82.8884 39.8C82.8484 40.2667 82.8084 40.7267 82.7684 41.18C82.7418 41.6333 82.7151 42.0333 82.6884 42.38C82.6618 42.7267 82.6351 43.0133 82.6084 43.24C82.5951 43.4667 82.5884 43.5867 82.5884 43.6C82.5751 43.76 82.5418 43.8667 82.4884 43.92C82.4351 43.9733 82.3218 44 82.1484 44H81.4284C80.7084 44 80.2018 43.8333 79.9084 43.5C79.6284 43.1533 79.4884 42.64 79.4884 41.96C79.4884 41.88 79.4951 41.68 79.5084 41.36C79.5351 41.04 79.5618 40.66 79.5884 40.22C79.6284 39.7667 79.6684 39.2667 79.7084 38.72C79.7484 38.1733 79.7884 37.6267 79.8284 37.08H78.8884C78.7418 37.08 78.6684 37.0067 78.6684 36.86C78.6684 36.7533 78.6751 36.6 78.6884 36.4C78.7018 36.1867 78.7151 35.98 78.7284 35.78C78.7418 35.62 78.7618 35.46 78.7884 35.3C78.8284 35.1267 78.8884 34.98 78.9684 34.86C79.0618 34.7267 79.1951 34.62 79.3684 34.54C79.5418 34.4467 79.7684 34.3933 80.0484 34.38L80.1284 33.58C80.2084 32.7133 80.3684 31.9867 80.6084 31.4C80.8618 30.8133 81.1884 30.3467 81.5884 30C81.9884 29.64 82.4618 29.3867 83.0084 29.24C83.5684 29.08 84.1884 29 84.8684 29C85.5351 29 86.1018 29.06 86.5684 29.18C87.0484 29.3 87.4351 29.4667 87.7284 29.68C88.0218 29.8933 88.2351 30.1467 88.3684 30.44C88.5018 30.7333 88.5684 31.0467 88.5684 31.38C88.5684 32.0733 88.3484 32.5667 87.9084 32.86C87.4818 33.1533 86.9018 33.3 86.1684 33.3C85.9684 33.3 85.8284 33.2867 85.7484 33.26C85.6818 33.22 85.6484 33.14 85.6484 33.02C85.6484 32.58 85.6084 32.2333 85.5284 31.98C85.4484 31.7267 85.2284 31.6 84.8684 31.6C84.6018 31.6 84.3751 31.68 84.1884 31.84C84.0018 32 83.8484 32.2133 83.7284 32.48C83.6084 32.7333 83.5151 33.0267 83.4484 33.36C83.3951 33.6933 83.3484 34.0333 83.3084 34.38H85.6084C85.8218 34.38 85.9284 34.4733 85.9284 34.66L85.8484 35.74C85.8218 36.14 85.7084 36.4667 85.5084 36.72C85.3218 36.96 84.9284 37.08 84.3284 37.08H83.1084ZM91.9055 44.2C90.9855 44.2 90.2188 44.0733 89.6055 43.82C89.0055 43.5533 88.5255 43.1933 88.1655 42.74C87.8055 42.2867 87.5521 41.76 87.4055 41.16C87.2588 40.5467 87.1855 39.8933 87.1855 39.2C87.1855 38.4 87.2788 37.62 87.4655 36.86C87.6655 36.0867 87.9988 35.4 88.4655 34.8C88.9321 34.2 89.5455 33.72 90.3055 33.36C91.0788 32.9867 92.0388 32.8 93.1855 32.8C94.8655 32.8 96.0655 33.2133 96.7855 34.04C97.5188 34.8533 97.8855 36 97.8855 37.48C97.8855 37.8933 97.8521 38.3533 97.7855 38.86C97.7321 39.3533 97.6188 39.8467 97.4455 40.34C97.2855 40.8333 97.0588 41.3133 96.7655 41.78C96.4855 42.2467 96.1255 42.66 95.6855 43.02C95.2455 43.38 94.7121 43.6667 94.0855 43.88C93.4721 44.0933 92.7455 44.2 91.9055 44.2ZM92.8455 35.46C92.3388 35.46 91.9321 35.5933 91.6255 35.86C91.3321 36.1133 91.1055 36.4267 90.9455 36.8C90.7988 37.16 90.6988 37.5467 90.6455 37.96C90.6055 38.36 90.5855 38.7 90.5855 38.98C90.5855 39.86 90.7255 40.5067 91.0055 40.92C91.2855 41.3333 91.6855 41.54 92.2055 41.54C92.6721 41.54 93.0521 41.3933 93.3455 41.1C93.6521 40.8067 93.8855 40.4533 94.0455 40.04C94.2188 39.6267 94.3321 39.1933 94.3855 38.74C94.4521 38.2867 94.4855 37.9067 94.4855 37.6C94.4855 36.9333 94.3588 36.4133 94.1055 36.04C93.8655 35.6533 93.4455 35.46 92.8455 35.46ZM105.839 37.78C105.759 37.78 105.665 37.78 105.559 37.78C105.465 37.7667 105.372 37.7533 105.279 37.74C105.185 37.7133 105.105 37.6867 105.039 37.66C104.972 37.62 104.939 37.5733 104.939 37.52C104.939 37.3467 104.945 37.1867 104.959 37.04C104.972 36.8933 104.979 36.74 104.979 36.58C104.979 36.2867 104.939 36.0467 104.859 35.86C104.779 35.6733 104.619 35.58 104.379 35.58C104.005 35.58 103.692 35.8267 103.439 36.32C103.199 36.8 103.045 37.5267 102.979 38.5C102.952 38.9267 102.912 39.4133 102.859 39.96C102.819 40.4933 102.779 41.0133 102.739 41.52C102.699 42.0133 102.665 42.4533 102.639 42.84C102.612 43.2267 102.599 43.48 102.599 43.6C102.599 43.7333 102.552 43.8333 102.459 43.9C102.365 43.9667 102.265 44 102.159 44H101.439C101.025 44 100.685 43.96 100.419 43.88C100.165 43.7867 99.9586 43.66 99.7986 43.5C99.6519 43.34 99.5453 43.1467 99.4786 42.92C99.4253 42.68 99.3986 42.4067 99.3986 42.1C99.3986 41.9 99.4053 41.62 99.4186 41.26C99.4453 40.8867 99.4853 40.38 99.5386 39.74C99.5919 39.0867 99.6519 38.2667 99.7186 37.28C99.7986 36.28 99.8919 35.0467 99.9986 33.58C100.025 33.1933 100.165 33 100.419 33H101.199C101.572 33 101.885 33.04 102.139 33.12C102.392 33.2 102.599 33.3133 102.759 33.46C102.919 33.5933 103.032 33.7533 103.099 33.94C103.179 34.1267 103.232 34.32 103.259 34.52C103.419 34.2133 103.605 33.9533 103.819 33.74C104.045 33.5133 104.279 33.3333 104.519 33.2C104.759 33.0533 105.005 32.9533 105.259 32.9C105.512 32.8333 105.745 32.8 105.959 32.8C106.212 32.8 106.465 32.8467 106.719 32.94C106.985 33.0333 107.225 33.1733 107.439 33.36C107.652 33.5467 107.819 33.7867 107.939 34.08C108.072 34.3733 108.139 34.72 108.139 35.12C108.139 35.48 108.085 35.82 107.979 36.14C107.872 36.46 107.719 36.7467 107.519 37C107.319 37.24 107.072 37.4333 106.779 37.58C106.499 37.7133 106.185 37.78 105.839 37.78ZM37.4932 61.08C37.4665 61.48 37.4332 61.9133 37.3932 62.38C37.3532 62.8467 37.3132 63.32 37.2732 63.8C37.2332 64.2667 37.1932 64.7267 37.1532 65.18C37.1265 65.6333 37.0999 66.0333 37.0732 66.38C37.0465 66.7267 37.0199 67.0133 36.9932 67.24C36.9799 67.4667 36.9732 67.5867 36.9732 67.6C36.9599 67.76 36.9265 67.8667 36.8732 67.92C36.8199 67.9733 36.7065 68 36.5332 68H35.8132C35.0932 68 34.5865 67.8333 34.2932 67.5C34.0132 67.1533 33.8732 66.64 33.8732 65.96C33.8732 65.88 33.8799 65.68 33.8932 65.36C33.9199 65.04 33.9465 64.66 33.9732 64.22C34.0132 63.7667 34.0532 63.2667 34.0932 62.72C34.1332 62.1733 34.1732 61.6267 34.2132 61.08H33.2732C33.1265 61.08 33.0532 61.0067 33.0532 60.86C33.0532 60.7533 33.0599 60.6 33.0732 60.4C33.0865 60.1867 33.0999 59.98 33.1132 59.78C33.1265 59.62 33.1465 59.46 33.1732 59.3C33.2132 59.1267 33.2732 58.98 33.3532 58.86C33.4465 58.7267 33.5799 58.62 33.7532 58.54C33.9265 58.4467 34.1532 58.3933 34.4332 58.38L34.5132 57.58C34.5932 56.7133 34.7532 55.9867 34.9932 55.4C35.2465 54.8133 35.5732 54.3467 35.9732 54C36.3732 53.64 36.8465 53.3867 37.3932 53.24C37.9532 53.08 38.5732 53 39.2532 53C39.9199 53 40.4865 53.06 40.9532 53.18C41.4332 53.3 41.8199 53.4667 42.1132 53.68C42.4065 53.8933 42.6199 54.1467 42.7532 54.44C42.8865 54.7333 42.9532 55.0467 42.9532 55.38C42.9532 56.0733 42.7332 56.5667 42.2932 56.86C41.8665 57.1533 41.2865 57.3 40.5532 57.3C40.3532 57.3 40.2132 57.2867 40.1332 57.26C40.0665 57.22 40.0332 57.14 40.0332 57.02C40.0332 56.58 39.9932 56.2333 39.9132 55.98C39.8332 55.7267 39.6132 55.6 39.2532 55.6C38.9865 55.6 38.7599 55.68 38.5732 55.84C38.3865 56 38.2332 56.2133 38.1132 56.48C37.9932 56.7333 37.8999 57.0267 37.8332 57.36C37.7799 57.6933 37.7332 58.0333 37.6932 58.38H39.9932C40.2065 58.38 40.3132 58.4733 40.3132 58.66L40.2332 59.74C40.2065 60.14 40.0932 60.4667 39.8932 60.72C39.7065 60.96 39.3132 61.08 38.7132 61.08H37.4932ZM41.347 65.54C41.347 64.34 41.887 63.4 42.967 62.72C44.047 62.04 45.6403 61.6733 47.747 61.62C47.7603 61.4733 47.767 61.3533 47.767 61.26C47.7803 61.1533 47.787 61.0267 47.787 60.88C47.787 60.4533 47.707 60.1133 47.547 59.86C47.387 59.6067 47.0536 59.48 46.547 59.48C46.267 59.48 46.0403 59.52 45.867 59.6C45.6936 59.68 45.5536 59.7933 45.447 59.94C45.3403 60.0733 45.2536 60.24 45.187 60.44C45.1203 60.64 45.0603 60.86 45.007 61.1C44.9803 61.22 44.9203 61.3 44.827 61.34C44.7336 61.3667 44.587 61.38 44.387 61.38C43.027 61.38 42.347 60.8667 42.347 59.84C42.347 59.4267 42.4403 59.0333 42.627 58.66C42.827 58.2867 43.1136 57.9667 43.487 57.7C43.8736 57.42 44.3536 57.2 44.927 57.04C45.5003 56.88 46.167 56.8 46.927 56.8C48.407 56.8 49.4803 57.1067 50.147 57.72C50.8136 58.3333 51.147 59.2 51.147 60.32C51.147 60.4667 51.127 60.7333 51.087 61.12C51.0603 61.4933 51.0203 61.8933 50.967 62.32C50.927 62.7333 50.887 63.1267 50.847 63.5C50.8203 63.8733 50.807 64.1333 50.807 64.28C50.807 64.6133 50.867 64.8533 50.987 65C51.107 65.1333 51.2403 65.2267 51.387 65.28C51.547 65.3333 51.687 65.3733 51.807 65.4C51.927 65.4267 51.987 65.4933 51.987 65.6C51.987 65.8933 51.947 66.1933 51.867 66.5C51.787 66.8067 51.6536 67.0867 51.467 67.34C51.2936 67.5933 51.047 67.8 50.727 67.96C50.4203 68.12 50.0403 68.2 49.587 68.2C48.947 68.2 48.467 68.0467 48.147 67.74C47.827 67.4333 47.6136 67.0067 47.507 66.46C47.187 66.9267 46.767 67.3333 46.247 67.68C45.7403 68.0267 45.0736 68.2 44.247 68.2C43.847 68.2 43.467 68.1533 43.107 68.06C42.7603 67.9667 42.4536 67.8133 42.187 67.6C41.9336 67.3867 41.727 67.1133 41.567 66.78C41.4203 66.4333 41.347 66.02 41.347 65.54ZM47.567 63.26C47.2203 63.26 46.8803 63.2867 46.547 63.34C46.2136 63.3933 45.9136 63.48 45.647 63.6C45.3936 63.7067 45.187 63.8533 45.027 64.04C44.867 64.2267 44.787 64.4533 44.787 64.72C44.787 65.0267 44.8803 65.24 45.067 65.36C45.267 65.48 45.4803 65.54 45.707 65.54C45.9203 65.54 46.1336 65.4933 46.347 65.4C46.5603 65.3067 46.747 65.1667 46.907 64.98C47.0803 64.78 47.227 64.54 47.347 64.26C47.467 63.98 47.5403 63.6467 47.567 63.26ZM57.8765 56.8C59.0098 56.8 59.8432 57.0267 60.3765 57.48C60.9098 57.92 61.1765 58.4867 61.1765 59.18C61.1765 59.7667 60.9898 60.2133 60.6165 60.52C60.2565 60.8267 59.7298 60.98 59.0365 60.98C58.8498 60.98 58.7232 60.96 58.6565 60.92C58.5898 60.88 58.5565 60.8067 58.5565 60.7C58.5565 60.58 58.5432 60.4467 58.5165 60.3C58.5032 60.14 58.4565 59.9933 58.3765 59.86C58.3098 59.7133 58.1965 59.5933 58.0365 59.5C57.8898 59.4067 57.6765 59.36 57.3965 59.36C57.0232 59.36 56.7232 59.4533 56.4965 59.64C56.2698 59.8133 56.1565 60.0333 56.1565 60.3C56.1565 60.58 56.2698 60.8067 56.4965 60.98C56.7365 61.14 57.0298 61.2933 57.3765 61.44C57.7365 61.5867 58.1232 61.74 58.5365 61.9C58.9498 62.0467 59.3298 62.2467 59.6765 62.5C60.0365 62.7533 60.3298 63.0733 60.5565 63.46C60.7965 63.8333 60.9165 64.32 60.9165 64.92C60.9165 65.88 60.5765 66.6667 59.8965 67.28C59.2165 67.8933 58.1965 68.2 56.8365 68.2C56.4632 68.2 56.0298 68.1667 55.5365 68.1C55.0565 68.0467 54.5965 67.96 54.1565 67.84C53.7165 67.7067 53.3432 67.5333 53.0365 67.32C52.7432 67.1067 52.5965 66.84 52.5965 66.52C52.5965 66.4 52.6165 66.2533 52.6565 66.08C52.7098 65.9067 52.7832 65.74 52.8765 65.58C52.9832 65.42 53.1032 65.2867 53.2365 65.18C53.3832 65.06 53.5565 65 53.7565 65C53.9165 65 54.0632 65.04 54.1965 65.12C54.3298 65.2 54.4832 65.2867 54.6565 65.38C54.8432 65.46 55.0698 65.54 55.3365 65.62C55.6032 65.7 55.9565 65.74 56.3965 65.74C56.7298 65.74 57.0232 65.7 57.2765 65.62C57.5432 65.54 57.6765 65.36 57.6765 65.08C57.6765 64.8267 57.5698 64.6267 57.3565 64.48C57.1432 64.32 56.8698 64.1733 56.5365 64.04C56.2165 63.9067 55.8632 63.7667 55.4765 63.62C55.1032 63.46 54.7498 63.2533 54.4165 63C54.0965 62.7467 53.8298 62.4267 53.6165 62.04C53.4032 61.64 53.2965 61.1267 53.2965 60.5C53.2965 59.82 53.4298 59.2467 53.6965 58.78C53.9765 58.3 54.3298 57.9133 54.7565 57.62C55.1965 57.3267 55.6898 57.12 56.2365 57C56.7832 56.8667 57.3298 56.8 57.8765 56.8ZM66.911 59.7C66.871 60.2067 66.8243 60.7067 66.771 61.2C66.731 61.6933 66.691 62.16 66.651 62.6C66.611 63.04 66.5777 63.4333 66.551 63.78C66.5377 64.1267 66.531 64.3933 66.531 64.58C66.531 64.9267 66.571 65.16 66.651 65.28C66.731 65.3867 66.8643 65.44 67.051 65.44C67.1977 65.44 67.3243 65.4133 67.431 65.36C67.5377 65.3067 67.6377 65.2467 67.731 65.18C67.8243 65.1133 67.9043 65.0533 67.971 65C68.051 64.9467 68.1377 64.92 68.231 64.92C68.3243 64.92 68.411 64.9733 68.491 65.08C68.571 65.1867 68.611 65.4333 68.611 65.82C68.611 66.5533 68.411 67.1333 68.011 67.56C67.611 67.9867 66.9243 68.2 65.951 68.2C64.991 68.2 64.2777 67.98 63.811 67.54C63.3577 67.0867 63.131 66.4 63.131 65.48C63.131 65.28 63.1377 65.0467 63.151 64.78C63.1777 64.5 63.211 64.14 63.251 63.7C63.291 63.26 63.3377 62.72 63.391 62.08C63.4577 61.44 63.5243 60.6467 63.591 59.7H62.531C62.4243 59.7 62.3577 59.68 62.331 59.64C62.3177 59.5867 62.311 59.5133 62.311 59.42L62.371 58.4C62.3843 58.2267 62.4043 58.06 62.431 57.9C62.471 57.7267 62.5377 57.5733 62.631 57.44C62.7377 57.3067 62.8843 57.2 63.071 57.12C63.2577 57.04 63.5043 57 63.811 57C63.9043 56.76 64.011 56.4733 64.131 56.14C64.251 55.8067 64.371 55.4867 64.491 55.18C64.611 54.86 64.7243 54.5933 64.831 54.38C64.951 54.1667 65.0577 54.06 65.151 54.06H65.731C66.291 54.06 66.6777 54.2333 66.891 54.58C67.1043 54.9267 67.211 55.34 67.211 55.82C67.211 56.0867 67.191 56.48 67.151 57H69.251C69.4643 57 69.571 57.0933 69.571 57.28L69.491 58.36C69.4643 58.76 69.351 59.0867 69.151 59.34C68.9643 59.58 68.571 59.7 67.971 59.7H66.911ZM75.0826 68.2C74.4959 68.2 73.9092 68.1267 73.3226 67.98C72.7492 67.8333 72.2292 67.58 71.7626 67.22C71.3092 66.86 70.9359 66.38 70.6426 65.78C70.3492 65.18 70.2026 64.4267 70.2026 63.52C70.2026 63.1867 70.2292 62.7867 70.2826 62.32C70.3359 61.8533 70.4359 61.3733 70.5826 60.88C70.7426 60.3867 70.9559 59.9 71.2226 59.42C71.5026 58.9267 71.8626 58.4867 72.3026 58.1C72.7426 57.7133 73.2759 57.4 73.9026 57.16C74.5292 56.92 75.2759 56.8 76.1426 56.8C76.8359 56.8 77.4226 56.88 77.9026 57.04C78.3826 57.2 78.7692 57.42 79.0626 57.7C79.3559 57.9667 79.5692 58.28 79.7026 58.64C79.8359 59 79.9026 59.3867 79.9026 59.8C79.9026 60.4133 79.7759 60.9333 79.5226 61.36C79.2826 61.7867 78.9626 62.1467 78.5626 62.44C78.1759 62.72 77.7426 62.94 77.2626 63.1C76.7826 63.26 76.3092 63.3867 75.8426 63.48C75.3759 63.56 74.9426 63.6133 74.5426 63.64C74.1559 63.6533 73.8559 63.66 73.6426 63.66C73.6426 63.9133 73.6759 64.1667 73.7426 64.42C73.8226 64.66 73.9359 64.8733 74.0826 65.06C74.2292 65.2467 74.4226 65.4 74.6626 65.52C74.9026 65.64 75.1959 65.7 75.5426 65.7C75.8892 65.7 76.1559 65.6467 76.3426 65.54C76.5426 65.42 76.7026 65.2933 76.8226 65.16C76.9426 65.0133 77.0426 64.8867 77.1226 64.78C77.2159 64.66 77.3359 64.6 77.4826 64.6C77.5492 64.6 77.6626 64.62 77.8226 64.66C77.9959 64.6867 78.1692 64.7533 78.3426 64.86C78.5159 64.9667 78.6692 65.1133 78.8026 65.3C78.9359 65.4867 79.0026 65.7267 79.0026 66.02C79.0026 66.4067 78.8826 66.74 78.6426 67.02C78.4026 67.3 78.0892 67.5267 77.7026 67.7C77.3292 67.8733 76.9092 68 76.4426 68.08C75.9759 68.16 75.5226 68.2 75.0826 68.2ZM75.4626 59.46C75.1692 59.46 74.9159 59.5467 74.7026 59.72C74.5026 59.88 74.3292 60.0867 74.1826 60.34C74.0492 60.5933 73.9426 60.8733 73.8626 61.18C73.7959 61.4867 73.7426 61.78 73.7026 62.06C74.5292 62.0467 75.1959 61.9067 75.7026 61.64C76.2226 61.3733 76.4826 60.9933 76.4826 60.5C76.4826 60.2333 76.3959 59.9933 76.2226 59.78C76.0626 59.5667 75.8092 59.46 75.4626 59.46ZM87.5671 61.78C87.4871 61.78 87.3938 61.78 87.2871 61.78C87.1938 61.7667 87.1004 61.7533 87.0071 61.74C86.9138 61.7133 86.8338 61.6867 86.7671 61.66C86.7004 61.62 86.6671 61.5733 86.6671 61.52C86.6671 61.3467 86.6738 61.1867 86.6871 61.04C86.7004 60.8933 86.7071 60.74 86.7071 60.58C86.7071 60.2867 86.6671 60.0467 86.5871 59.86C86.5071 59.6733 86.3471 59.58 86.1071 59.58C85.7338 59.58 85.4204 59.8267 85.1671 60.32C84.9271 60.8 84.7738 61.5267 84.7071 62.5C84.6804 62.9267 84.6404 63.4133 84.5871 63.96C84.5471 64.4933 84.5071 65.0133 84.4671 65.52C84.4271 66.0133 84.3938 66.4533 84.3671 66.84C84.3404 67.2267 84.3271 67.48 84.3271 67.6C84.3271 67.7333 84.2804 67.8333 84.1871 67.9C84.0938 67.9667 83.9938 68 83.8871 68H83.1671C82.7538 68 82.4138 67.96 82.1471 67.88C81.8938 67.7867 81.6871 67.66 81.5271 67.5C81.3804 67.34 81.2738 67.1467 81.2071 66.92C81.1538 66.68 81.1271 66.4067 81.1271 66.1C81.1271 65.9 81.1338 65.62 81.1471 65.26C81.1738 64.8867 81.2138 64.38 81.2671 63.74C81.3204 63.0867 81.3804 62.2667 81.4471 61.28C81.5271 60.28 81.6204 59.0467 81.7271 57.58C81.7538 57.1933 81.8938 57 82.1471 57H82.9271C83.3004 57 83.6138 57.04 83.8671 57.12C84.1204 57.2 84.3271 57.3133 84.4871 57.46C84.6471 57.5933 84.7604 57.7533 84.8271 57.94C84.9071 58.1267 84.9604 58.32 84.9871 58.52C85.1471 58.2133 85.3338 57.9533 85.5471 57.74C85.7738 57.5133 86.0071 57.3333 86.2471 57.2C86.4871 57.0533 86.7338 56.9533 86.9871 56.9C87.2404 56.8333 87.4738 56.8 87.6871 56.8C87.9404 56.8 88.1938 56.8467 88.4471 56.94C88.7138 57.0333 88.9538 57.1733 89.1671 57.36C89.3804 57.5467 89.5471 57.7867 89.6671 58.08C89.8004 58.3733 89.8671 58.72 89.8671 59.12C89.8671 59.48 89.8138 59.82 89.7071 60.14C89.6004 60.46 89.4471 60.7467 89.2471 61C89.0471 61.24 88.8004 61.4333 88.5071 61.58C88.2271 61.7133 87.9138 61.78 87.5671 61.78ZM21.5911 89.54C21.5911 88.34 22.1311 87.4 23.2111 86.72C24.2911 86.04 25.8844 85.6733 27.9911 85.62C28.0044 85.4733 28.0111 85.3533 28.0111 85.26C28.0244 85.1533 28.0311 85.0267 28.0311 84.88C28.0311 84.4533 27.9511 84.1133 27.7911 83.86C27.6311 83.6067 27.2978 83.48 26.7911 83.48C26.5111 83.48 26.2844 83.52 26.1111 83.6C25.9378 83.68 25.7978 83.7933 25.6911 83.94C25.5844 84.0733 25.4978 84.24 25.4311 84.44C25.3644 84.64 25.3044 84.86 25.2511 85.1C25.2244 85.22 25.1644 85.3 25.0711 85.34C24.9778 85.3667 24.8311 85.38 24.6311 85.38C23.2711 85.38 22.5911 84.8667 22.5911 83.84C22.5911 83.4267 22.6844 83.0333 22.8711 82.66C23.0711 82.2867 23.3578 81.9667 23.7311 81.7C24.1178 81.42 24.5978 81.2 25.1711 81.04C25.7444 80.88 26.4111 80.8 27.1711 80.8C28.6511 80.8 29.7244 81.1067 30.3911 81.72C31.0578 82.3333 31.3911 83.2 31.3911 84.32C31.3911 84.4667 31.3711 84.7333 31.3311 85.12C31.3044 85.4933 31.2644 85.8933 31.2111 86.32C31.1711 86.7333 31.1311 87.1267 31.0911 87.5C31.0644 87.8733 31.0511 88.1333 31.0511 88.28C31.0511 88.6133 31.1111 88.8533 31.2311 89C31.3511 89.1333 31.4844 89.2267 31.6311 89.28C31.7911 89.3333 31.9311 89.3733 32.0511 89.4C32.1711 89.4267 32.2311 89.4933 32.2311 89.6C32.2311 89.8933 32.1911 90.1933 32.1111 90.5C32.0311 90.8067 31.8978 91.0867 31.7111 91.34C31.5378 91.5933 31.2911 91.8 30.9711 91.96C30.6644 92.12 30.2844 92.2 29.8311 92.2C29.1911 92.2 28.7111 92.0467 28.3911 91.74C28.0711 91.4333 27.8578 91.0067 27.7511 90.46C27.4311 90.9267 27.0111 91.3333 26.4911 91.68C25.9844 92.0267 25.3178 92.2 24.4911 92.2C24.0911 92.2 23.7111 92.1533 23.3511 92.06C23.0044 91.9667 22.6978 91.8133 22.4311 91.6C22.1778 91.3867 21.9711 91.1133 21.8111 90.78C21.6644 90.4333 21.5911 90.02 21.5911 89.54ZM27.8111 87.26C27.4644 87.26 27.1244 87.2867 26.7911 87.34C26.4578 87.3933 26.1578 87.48 25.8911 87.6C25.6378 87.7067 25.4311 87.8533 25.2711 88.04C25.1111 88.2267 25.0311 88.4533 25.0311 88.72C25.0311 89.0267 25.1244 89.24 25.3111 89.36C25.5111 89.48 25.7244 89.54 25.9511 89.54C26.1644 89.54 26.3778 89.4933 26.5911 89.4C26.8044 89.3067 26.9911 89.1667 27.1511 88.98C27.3244 88.78 27.4711 88.54 27.5911 88.26C27.7111 87.98 27.7844 87.6467 27.8111 87.26ZM40.2806 90.24C40.2806 89.9467 40.3006 89.5667 40.3406 89.1C40.394 88.62 40.4406 88.12 40.4806 87.6C40.534 87.0667 40.5806 86.5533 40.6206 86.06C40.674 85.5667 40.7006 85.1533 40.7006 84.82C40.7006 84.4733 40.614 84.1667 40.4406 83.9C40.2806 83.62 39.9606 83.48 39.4806 83.48C39.014 83.48 38.6273 83.5933 38.3206 83.82C38.014 84.0467 37.754 84.46 37.5406 85.06C37.3406 85.66 37.174 86.4867 37.0406 87.54C36.9073 88.5933 36.7806 89.9467 36.6606 91.6C36.6473 91.76 36.614 91.8667 36.5606 91.92C36.5073 91.9733 36.394 92 36.2206 92H35.5006C35.0873 92 34.7473 91.96 34.4806 91.88C34.2273 91.7867 34.0206 91.66 33.8606 91.5C33.714 91.34 33.6073 91.1467 33.5406 90.92C33.4873 90.68 33.4606 90.4067 33.4606 90.1C33.4606 89.9 33.4673 89.62 33.4806 89.26C33.5073 88.8867 33.5473 88.38 33.6006 87.74C33.654 87.0867 33.714 86.2667 33.7806 85.28C33.8606 84.28 33.954 83.0467 34.0606 81.58C34.074 81.2867 34.1073 81.1133 34.1606 81.06C34.2006 81.02 34.3073 81 34.4806 81H35.2606C35.6606 81 35.9873 81.0467 36.2406 81.14C36.5073 81.2333 36.7206 81.36 36.8806 81.52C37.0406 81.6667 37.154 81.8467 37.2206 82.06C37.2873 82.26 37.3273 82.4667 37.3406 82.68C37.754 81.9733 38.2273 81.4867 38.7606 81.22C39.294 80.94 39.9606 80.8 40.7606 80.8C41.3206 80.8 41.8073 80.86 42.2206 80.98C42.634 81.1 42.974 81.3067 43.2406 81.6C43.5206 81.88 43.7273 82.2533 43.8606 82.72C43.994 83.1733 44.0606 83.74 44.0606 84.42C44.0606 84.6333 44.0473 84.94 44.0206 85.34C43.994 85.74 43.9606 86.18 43.9206 86.66C43.8806 87.1267 43.834 87.62 43.7806 88.14C43.7406 88.6467 43.7006 89.12 43.6606 89.56C43.6206 90 43.5873 90.3867 43.5606 90.72C43.534 91.0533 43.5206 91.2733 43.5206 91.38C43.5206 91.6733 43.4873 91.8533 43.4206 91.92C43.354 91.9733 43.2073 92 42.9806 92H42.3406C41.914 92 41.5673 91.96 41.3006 91.88C41.034 91.8 40.8273 91.6867 40.6806 91.54C40.534 91.3933 40.4273 91.2133 40.3606 91C40.3073 90.7733 40.2806 90.52 40.2806 90.24ZM50.5034 80.8C51.6368 80.8 52.4701 81.0267 53.0034 81.48C53.5368 81.92 53.8034 82.4867 53.8034 83.18C53.8034 83.7667 53.6168 84.2133 53.2434 84.52C52.8834 84.8267 52.3568 84.98 51.6634 84.98C51.4768 84.98 51.3501 84.96 51.2834 84.92C51.2168 84.88 51.1834 84.8067 51.1834 84.7C51.1834 84.58 51.1701 84.4467 51.1434 84.3C51.1301 84.14 51.0834 83.9933 51.0034 83.86C50.9368 83.7133 50.8234 83.5933 50.6634 83.5C50.5168 83.4067 50.3034 83.36 50.0234 83.36C49.6501 83.36 49.3501 83.4533 49.1234 83.64C48.8968 83.8133 48.7834 84.0333 48.7834 84.3C48.7834 84.58 48.8968 84.8067 49.1234 84.98C49.3634 85.14 49.6568 85.2933 50.0034 85.44C50.3634 85.5867 50.7501 85.74 51.1634 85.9C51.5768 86.0467 51.9568 86.2467 52.3034 86.5C52.6634 86.7533 52.9568 87.0733 53.1834 87.46C53.4234 87.8333 53.5434 88.32 53.5434 88.92C53.5434 89.88 53.2034 90.6667 52.5234 91.28C51.8434 91.8933 50.8234 92.2 49.4634 92.2C49.0901 92.2 48.6568 92.1667 48.1634 92.1C47.6834 92.0467 47.2234 91.96 46.7834 91.84C46.3434 91.7067 45.9701 91.5333 45.6634 91.32C45.3701 91.1067 45.2234 90.84 45.2234 90.52C45.2234 90.4 45.2434 90.2533 45.2834 90.08C45.3368 89.9067 45.4101 89.74 45.5034 89.58C45.6101 89.42 45.7301 89.2867 45.8634 89.18C46.0101 89.06 46.1834 89 46.3834 89C46.5434 89 46.6901 89.04 46.8234 89.12C46.9568 89.2 47.1101 89.2867 47.2834 89.38C47.4701 89.46 47.6968 89.54 47.9634 89.62C48.2301 89.7 48.5834 89.74 49.0234 89.74C49.3568 89.74 49.6501 89.7 49.9034 89.62C50.1701 89.54 50.3034 89.36 50.3034 89.08C50.3034 88.8267 50.1968 88.6267 49.9834 88.48C49.7701 88.32 49.4968 88.1733 49.1634 88.04C48.8434 87.9067 48.4901 87.7667 48.1034 87.62C47.7301 87.46 47.3768 87.2533 47.0434 87C46.7234 86.7467 46.4568 86.4267 46.2434 86.04C46.0301 85.64 45.9234 85.1267 45.9234 84.5C45.9234 83.82 46.0568 83.2467 46.3234 82.78C46.6034 82.3 46.9568 81.9133 47.3834 81.62C47.8234 81.3267 48.3168 81.12 48.8634 81C49.4101 80.8667 49.9568 80.8 50.5034 80.8ZM65.8798 89.86C66.0532 88.8867 66.1998 88.04 66.3198 87.32C66.4532 86.5867 66.5598 85.9533 66.6398 85.42C66.7332 84.8867 66.8065 84.4267 66.8598 84.04C66.9265 83.6533 66.9798 83.3133 67.0198 83.02C67.0732 82.7133 67.1132 82.4467 67.1398 82.22C67.1798 81.98 67.2198 81.7333 67.2598 81.48C67.2865 81.3333 67.3532 81.22 67.4598 81.14C67.5798 81.06 67.7998 81.02 68.1198 81.02C68.2932 81.02 68.5332 81.0333 68.8398 81.06C69.1598 81.0733 69.4732 81.12 69.7798 81.2C70.0865 81.28 70.3465 81.4067 70.5598 81.58C70.7865 81.74 70.8998 81.9667 70.8998 82.26C70.8998 82.4733 70.8398 82.7933 70.7198 83.22C70.5998 83.6333 70.4465 84.1133 70.2598 84.66C70.0732 85.2067 69.8598 85.7933 69.6198 86.42C69.3798 87.0333 69.1332 87.6467 68.8798 88.26C68.6398 88.86 68.4065 89.4333 68.1798 89.98C67.9532 90.5267 67.7598 91 67.5998 91.4C67.4932 91.64 67.3865 91.8 67.2798 91.88C67.1865 91.96 67.0132 92 66.7598 92H65.5798C65.2065 92 64.8998 91.9533 64.6598 91.86C64.4198 91.7667 64.2265 91.64 64.0798 91.48C63.9332 91.32 63.8198 91.14 63.7398 90.94C63.6598 90.7267 63.5998 90.5 63.5598 90.26C63.4265 89.58 63.2865 88.6667 63.1398 87.52C62.9932 86.3733 62.8598 85.02 62.7398 83.46C62.6732 83.7533 62.5932 84.1467 62.4998 84.64C62.4198 85.1333 62.3265 85.6667 62.2198 86.24C62.1265 86.8133 62.0265 87.4 61.9198 88C61.8132 88.6 61.7132 89.16 61.6198 89.68C61.5265 90.1867 61.4398 90.6267 61.3598 91C61.2798 91.36 61.2132 91.5933 61.1598 91.7C61.0932 91.8333 61.0065 91.92 60.8998 91.96C60.8065 91.9867 60.6665 92 60.4798 92H59.0798C58.7332 92 58.4332 91.9533 58.1798 91.86C57.9398 91.7533 57.7265 91.62 57.5398 91.46C57.3665 91.3 57.2198 91.12 57.0998 90.92C56.9932 90.7067 56.9132 90.4867 56.8598 90.26C56.1265 87.4067 55.5732 85.2533 55.1998 83.8C54.8398 82.3467 54.6598 81.5667 54.6598 81.46C54.6598 81.34 54.7198 81.2333 54.8398 81.14C54.9598 81.0467 55.1132 81 55.2998 81C55.8732 81 56.3665 81.0267 56.7798 81.08C57.1932 81.12 57.5332 81.2 57.7998 81.32C58.0798 81.44 58.2932 81.6067 58.4398 81.82C58.5865 82.0333 58.6798 82.3133 58.7198 82.66C58.7332 82.8467 58.7598 83.2267 58.7998 83.8C58.8398 84.3733 58.8798 85.0267 58.9198 85.76C58.9732 86.48 59.0198 87.2133 59.0598 87.96C59.1132 88.7067 59.1598 89.34 59.1998 89.86C59.3598 89.0333 59.4865 88.3733 59.5798 87.88C59.6865 87.3867 59.7732 86.9733 59.8398 86.64C59.9065 86.3067 59.9598 86.0133 59.9998 85.76C60.0532 85.5067 60.1132 85.2067 60.1798 84.86C60.2465 84.5133 60.3198 84.08 60.3998 83.56C60.4932 83.04 60.6198 82.3467 60.7798 81.48C60.8332 81.16 61.1865 81 61.8398 81C62.2532 81 62.6398 81.0133 62.9998 81.04C63.3598 81.0667 63.6798 81.1333 63.9598 81.24C64.2398 81.3333 64.4798 81.48 64.6798 81.68C64.8798 81.8667 65.0198 82.1267 65.0998 82.46C65.1265 82.5533 65.1465 82.6467 65.1598 82.74C65.1865 82.8333 65.2132 82.9667 65.2398 83.14C65.2665 83.3133 65.2932 83.5533 65.3198 83.86C65.3598 84.1667 65.3998 84.58 65.4398 85.1C65.4932 85.62 65.5532 86.2667 65.6198 87.04C65.6865 87.8133 65.7732 88.7533 65.8798 89.86ZM76.4595 92.2C75.8729 92.2 75.2862 92.1267 74.6995 91.98C74.1262 91.8333 73.6062 91.58 73.1395 91.22C72.6862 90.86 72.3129 90.38 72.0195 89.78C71.7262 89.18 71.5795 88.4267 71.5795 87.52C71.5795 87.1867 71.6062 86.7867 71.6595 86.32C71.7129 85.8533 71.8129 85.3733 71.9595 84.88C72.1195 84.3867 72.3329 83.9 72.5995 83.42C72.8795 82.9267 73.2395 82.4867 73.6795 82.1C74.1195 81.7133 74.6529 81.4 75.2795 81.16C75.9062 80.92 76.6529 80.8 77.5195 80.8C78.2129 80.8 78.7995 80.88 79.2795 81.04C79.7595 81.2 80.1462 81.42 80.4395 81.7C80.7329 81.9667 80.9462 82.28 81.0795 82.64C81.2129 83 81.2795 83.3867 81.2795 83.8C81.2795 84.4133 81.1529 84.9333 80.8995 85.36C80.6595 85.7867 80.3395 86.1467 79.9395 86.44C79.5529 86.72 79.1195 86.94 78.6395 87.1C78.1595 87.26 77.6862 87.3867 77.2195 87.48C76.7529 87.56 76.3195 87.6133 75.9195 87.64C75.5329 87.6533 75.2329 87.66 75.0195 87.66C75.0195 87.9133 75.0529 88.1667 75.1195 88.42C75.1995 88.66 75.3129 88.8733 75.4595 89.06C75.6062 89.2467 75.7995 89.4 76.0395 89.52C76.2795 89.64 76.5729 89.7 76.9195 89.7C77.2662 89.7 77.5329 89.6467 77.7195 89.54C77.9195 89.42 78.0795 89.2933 78.1995 89.16C78.3195 89.0133 78.4195 88.8867 78.4995 88.78C78.5929 88.66 78.7129 88.6 78.8595 88.6C78.9262 88.6 79.0395 88.62 79.1995 88.66C79.3729 88.6867 79.5462 88.7533 79.7195 88.86C79.8929 88.9667 80.0462 89.1133 80.1795 89.3C80.3129 89.4867 80.3795 89.7267 80.3795 90.02C80.3795 90.4067 80.2595 90.74 80.0195 91.02C79.7795 91.3 79.4662 91.5267 79.0795 91.7C78.7062 91.8733 78.2862 92 77.8195 92.08C77.3529 92.16 76.8995 92.2 76.4595 92.2ZM76.8395 83.46C76.5462 83.46 76.2929 83.5467 76.0795 83.72C75.8795 83.88 75.7062 84.0867 75.5595 84.34C75.4262 84.5933 75.3195 84.8733 75.2395 85.18C75.1729 85.4867 75.1195 85.78 75.0795 86.06C75.9062 86.0467 76.5729 85.9067 77.0795 85.64C77.5995 85.3733 77.8595 84.9933 77.8595 84.5C77.8595 84.2333 77.7729 83.9933 77.5995 83.78C77.4395 83.5667 77.1862 83.46 76.8395 83.46ZM88.9441 85.78C88.8641 85.78 88.7707 85.78 88.6641 85.78C88.5707 85.7667 88.4774 85.7533 88.3841 85.74C88.2907 85.7133 88.2107 85.6867 88.1441 85.66C88.0774 85.62 88.0441 85.5733 88.0441 85.52C88.0441 85.3467 88.0507 85.1867 88.0641 85.04C88.0774 84.8933 88.0841 84.74 88.0841 84.58C88.0841 84.2867 88.0441 84.0467 87.9641 83.86C87.8841 83.6733 87.7241 83.58 87.4841 83.58C87.1107 83.58 86.7974 83.8267 86.5441 84.32C86.3041 84.8 86.1507 85.5267 86.0841 86.5C86.0574 86.9267 86.0174 87.4133 85.9641 87.96C85.9241 88.4933 85.8841 89.0133 85.8441 89.52C85.8041 90.0133 85.7707 90.4533 85.7441 90.84C85.7174 91.2267 85.7041 91.48 85.7041 91.6C85.7041 91.7333 85.6574 91.8333 85.5641 91.9C85.4707 91.9667 85.3707 92 85.2641 92H84.5441C84.1307 92 83.7907 91.96 83.5241 91.88C83.2707 91.7867 83.0641 91.66 82.9041 91.5C82.7574 91.34 82.6507 91.1467 82.5841 90.92C82.5307 90.68 82.5041 90.4067 82.5041 90.1C82.5041 89.9 82.5107 89.62 82.5241 89.26C82.5507 88.8867 82.5907 88.38 82.6441 87.74C82.6974 87.0867 82.7574 86.2667 82.8241 85.28C82.9041 84.28 82.9974 83.0467 83.1041 81.58C83.1307 81.1933 83.2707 81 83.5241 81H84.3041C84.6774 81 84.9907 81.04 85.2441 81.12C85.4974 81.2 85.7041 81.3133 85.8641 81.46C86.0241 81.5933 86.1374 81.7533 86.2041 81.94C86.2841 82.1267 86.3374 82.32 86.3641 82.52C86.5241 82.2133 86.7107 81.9533 86.9241 81.74C87.1507 81.5133 87.3841 81.3333 87.6241 81.2C87.8641 81.0533 88.1107 80.9533 88.3641 80.9C88.6174 80.8333 88.8507 80.8 89.0641 80.8C89.3174 80.8 89.5707 80.8467 89.8241 80.94C90.0907 81.0333 90.3307 81.1733 90.5441 81.36C90.7574 81.5467 90.9241 81.7867 91.0441 82.08C91.1774 82.3733 91.2441 82.72 91.2441 83.12C91.2441 83.48 91.1907 83.82 91.0841 84.14C90.9774 84.46 90.8241 84.7467 90.6241 85C90.4241 85.24 90.1774 85.4333 89.8841 85.58C89.6041 85.7133 89.2907 85.78 88.9441 85.78ZM96.7144 80.8C97.8477 80.8 98.681 81.0267 99.2144 81.48C99.7477 81.92 100.014 82.4867 100.014 83.18C100.014 83.7667 99.8277 84.2133 99.4544 84.52C99.0944 84.8267 98.5677 84.98 97.8744 84.98C97.6877 84.98 97.561 84.96 97.4944 84.92C97.4277 84.88 97.3944 84.8067 97.3944 84.7C97.3944 84.58 97.381 84.4467 97.3544 84.3C97.341 84.14 97.2944 83.9933 97.2144 83.86C97.1477 83.7133 97.0344 83.5933 96.8744 83.5C96.7277 83.4067 96.5144 83.36 96.2344 83.36C95.861 83.36 95.561 83.4533 95.3344 83.64C95.1077 83.8133 94.9944 84.0333 94.9944 84.3C94.9944 84.58 95.1077 84.8067 95.3344 84.98C95.5744 85.14 95.8677 85.2933 96.2144 85.44C96.5744 85.5867 96.961 85.74 97.3744 85.9C97.7877 86.0467 98.1677 86.2467 98.5144 86.5C98.8744 86.7533 99.1677 87.0733 99.3944 87.46C99.6344 87.8333 99.7544 88.32 99.7544 88.92C99.7544 89.88 99.4144 90.6667 98.7344 91.28C98.0544 91.8933 97.0344 92.2 95.6744 92.2C95.301 92.2 94.8677 92.1667 94.3744 92.1C93.8944 92.0467 93.4344 91.96 92.9944 91.84C92.5544 91.7067 92.181 91.5333 91.8744 91.32C91.581 91.1067 91.4344 90.84 91.4344 90.52C91.4344 90.4 91.4544 90.2533 91.4944 90.08C91.5477 89.9067 91.621 89.74 91.7144 89.58C91.821 89.42 91.941 89.2867 92.0744 89.18C92.221 89.06 92.3944 89 92.5944 89C92.7544 89 92.901 89.04 93.0344 89.12C93.1677 89.2 93.321 89.2867 93.4944 89.38C93.681 89.46 93.9077 89.54 94.1744 89.62C94.441 89.7 94.7944 89.74 95.2344 89.74C95.5677 89.74 95.861 89.7 96.1144 89.62C96.381 89.54 96.5144 89.36 96.5144 89.08C96.5144 88.8267 96.4077 88.6267 96.1944 88.48C95.981 88.32 95.7077 88.1733 95.3744 88.04C95.0544 87.9067 94.701 87.7667 94.3144 87.62C93.941 87.46 93.5877 87.2533 93.2544 87C92.9344 86.7467 92.6677 86.4267 92.4544 86.04C92.241 85.64 92.1344 85.1267 92.1344 84.5C92.1344 83.82 92.2677 83.2467 92.5344 82.78C92.8144 82.3 93.1677 81.9133 93.5944 81.62C94.0344 81.3267 94.5277 81.12 95.0744 81C95.621 80.8667 96.1677 80.8 96.7144 80.8Z" fill="black"/>
</svg>
