<svg width="1440" height="1024" viewBox="0 0 1440 1024" fill="none" xmlns="http://www.w3.org/2000/svg">
<g clip-path="url(#clip0_2_2)">
<rect width="1440" height="1024" fill="#7D15E6"/>
<ellipse cx="51.5" cy="935.5" rx="107.5" ry="104.5" fill="#661EAE"/>
<path d="M190.003 297.921L-177.707 -18.9235L71.7038 -172.829L190.003 297.921Z" fill="#661EAE"/>
<rect x="1368.82" y="179" width="254.34" height="336.919" transform="rotate(27.3552 1368.82 179)" fill="#661EAE"/>
<path d="M1225.25 876H1228.79L1231.37 876.68L1232.98 877.359L1234.75 878.719L1236.2 880.418L1237.49 882.627L1238.3 884.666L1238.62 886.025L1238.78 889.254V1005.82L1238.46 1009.22L1237.82 1011.77L1236.2 1016.02L1234.59 1019.07L1233.14 1021.11L1231.37 1023.15L1228.47 1026.21L1226.21 1028.08L1223.96 1029.78L1221.06 1031.48L1217.51 1033.18L1213.48 1034.71L1209.46 1035.73L1206.56 1036.24L1202.53 1036.58H1200.11L1196.73 1036.24L1192.05 1035.22L1187.86 1033.69L1185.29 1032.33L1183.35 1031.14L1181.1 1029.1L1179.32 1027.23L1177.71 1024.85L1176.1 1021.62L1175.3 1019.07L1174.81 1016.87L1174.65 1015.51V1012.45L1175.13 1009.05L1175.78 1006.5L1177.87 1001.57L1179.49 998.854L1183.35 994.096L1184.96 992.566L1187.7 990.357L1190.12 988.658L1193.83 986.449L1199.3 984.24L1202.04 983.391L1206.07 982.711L1210.26 982.371H1213.48L1217.35 982.711L1222.19 983.73L1225.57 984.92L1225.41 977.443V930.545L1225.25 926.467L1224.6 924.938L1223.31 923.748L1222.51 923.408H1220.09L1216.87 924.258L1209.94 926.467L1203.33 928.676L1182.39 935.643L1175.13 938.021L1167.24 940.57L1161.12 942.609L1153.38 945.158L1150.8 946.348L1148.55 947.877L1146.94 949.406L1145.97 950.596L1145.16 952.295L1144.84 954.334L1144.68 1025.36L1144.52 1029.1L1143.88 1032.5L1143.07 1035.05L1141.14 1039.29L1140.01 1041.16L1138.07 1043.88L1135.82 1046.43L1133.72 1048.47L1130.82 1050.68L1127.92 1052.55L1125.18 1054.08L1120.83 1055.78L1117.29 1056.8L1113.42 1057.48L1109.71 1057.82H1105.69L1101.17 1057.31L1097.95 1056.46L1095.05 1055.44L1091.83 1053.74L1089.57 1052.04L1087.8 1050.51L1086.67 1049.32L1085.06 1046.94L1083.29 1043.37L1082.32 1040.31L1082 1038.62V1033.01L1082.81 1029.44L1084.42 1025.19L1085.87 1022.3L1087.16 1020.09L1088.45 1018.39L1089.57 1017.21L1090.7 1015.85L1092.15 1014.32L1094.89 1012.11L1096.82 1010.58L1100.21 1008.54L1104.24 1006.5L1108.1 1005.14L1111.97 1004.12L1115.84 1003.44L1118.42 1003.27H1120.99L1124.54 1003.61L1127.92 1004.29L1130.34 1005.31L1131.31 1005.82V925.617L1131.47 921.029L1132.11 917.631L1132.92 915.252L1134.21 912.363L1136.14 909.305L1137.43 907.605L1138.88 906.076L1139.52 905.227L1142.1 903.357L1144.68 901.998L1146.94 900.979L1151.77 899.279L1159.34 896.9L1167.08 894.352L1171.59 892.992L1180.77 889.934L1185.61 888.404L1190.28 886.875L1196.57 884.836L1200.43 883.646L1208.17 881.098L1216.06 878.549L1221.06 876.85L1223.96 876.17L1225.25 876Z" fill="#8B2CF5"/>
<path d="M106.358 896H107.277L107.851 896.241L108.426 896.784L108.77 897.507L108.885 897.99L108.943 898.834L109 903.537V907.698L108.943 909.024L108.77 910.17L108.483 910.894L108.081 911.436L107.564 911.919L106.99 912.22L105.325 912.763L102.396 913.486L99.8115 914.089L95.7915 914.994L92.5181 915.778L88.211 916.742L87.5793 916.984L87.5218 952.8L87.4644 955.815L87.3496 958.287L87.2347 959.614L86.9476 961.363L86.4881 963.292L85.9139 965.041L85.1099 966.789L84.5356 967.754L84.0762 968.417L83.5593 969.02L83.1573 969.503L82.6979 969.925L81.9513 970.588L81.0325 971.191L80.1136 971.673L79.0799 972.096L77.4719 972.578L76.3233 972.819L74.7154 973H72.3608L71.3845 972.879L70.2934 972.638L69.432 972.337L68.2834 971.794L67.422 971.191L66.618 970.468L65.8714 969.684L65.1248 968.659L64.4931 967.573L63.8614 966.186L63.402 964.739L63.1149 963.352L63 962.448V960.82L63.2297 958.649L63.5743 957.142L63.9189 955.936L64.2634 955.031L64.9526 953.765L65.5843 952.8L66.1011 952.137L67.0774 951.112L68.1111 950.328L69.03 949.725L70.3508 949.002L71.4419 948.519L73.9114 947.675L76.6105 946.831L78.2759 946.288L79.769 945.625L80.6305 945.082L81.0899 944.66L81.2622 943.695L81.3196 942.309L81.377 930.912V906.371L81.4919 905.346L81.779 904.442L82.181 903.477L82.7553 902.633L82.8702 902.452H82.985L83.0999 902.211L83.6742 901.668L84.7079 901.005L85.9139 900.522L87.7516 900.04L96.3084 898.11L101.419 896.965L104.75 896.241L106.358 896Z" fill="#8B2CF5"/>
<path d="M339.247 -21H342.792L345.37 -20.3203L346.981 -19.6406L348.754 -18.2812L350.204 -16.582L351.493 -14.373L352.299 -12.334L352.621 -10.9746L352.782 -7.74609V108.82L352.46 112.219L351.815 114.768L350.204 119.016L348.593 122.074L347.143 124.113L345.37 126.152L342.47 129.211L340.214 131.08L337.958 132.779L335.058 134.479L331.513 136.178L327.484 137.707L323.456 138.727L320.556 139.236L316.527 139.576H314.11L310.727 139.236L306.054 138.217L301.864 136.688L299.286 135.328L297.353 134.139L295.097 132.1L293.324 130.23L291.713 127.852L290.102 124.623L289.296 122.074L288.812 119.865L288.651 118.506V115.447L289.135 112.049L289.779 109.5L291.874 104.572L293.485 101.854L297.353 97.0957L298.964 95.5664L301.703 93.3574L304.12 91.6582L307.826 89.4492L313.305 87.2402L316.044 86.3906L320.072 85.7109L324.262 85.3711H327.484L331.352 85.7109L336.186 86.7305L339.569 87.9199L339.408 80.4434V33.5449L339.247 29.4668L338.603 27.9375L337.313 26.748L336.508 26.4082H334.091L330.868 27.2578L323.939 29.4668L317.333 31.6758L296.386 38.6426L289.135 41.0215L281.239 43.5703L275.116 45.6094L267.382 48.1582L264.804 49.3477L262.548 50.877L260.937 52.4062L259.97 53.5957L259.164 55.2949L258.842 57.334L258.681 128.361L258.52 132.1L257.875 135.498L257.069 138.047L255.136 142.295L254.008 144.164L252.074 146.883L249.818 149.432L247.724 151.471L244.823 153.68L241.923 155.549L239.184 157.078L234.833 158.777L231.288 159.797L227.421 160.477L223.715 160.816H219.687L215.175 160.307L211.952 159.457L209.052 158.438L205.829 156.738L203.573 155.039L201.801 153.51L200.673 152.32L199.062 149.941L197.289 146.373L196.322 143.314L196 141.615V136.008L196.806 132.439L198.417 128.191L199.867 125.303L201.156 123.094L202.445 121.395L203.573 120.205L204.701 118.846L206.151 117.316L208.891 115.107L210.824 113.578L214.208 111.539L218.236 109.5L222.104 108.141L225.971 107.121L229.838 106.441L232.416 106.271H234.994L238.539 106.611L241.923 107.291L244.34 108.311L245.307 108.82V28.6172L245.468 24.0293L246.112 20.6309L246.918 18.252L248.207 15.3633L250.141 12.3047L251.43 10.6055L252.88 9.07617L253.524 8.22656L256.103 6.35742L258.681 4.99805L260.937 3.97852L265.771 2.2793L273.344 -0.0996094L281.078 -2.64844L285.59 -4.00781L294.774 -7.06641L299.608 -8.5957L304.281 -10.125L310.565 -12.1641L314.433 -13.3535L322.167 -15.9023L330.062 -18.4512L335.058 -20.1504L337.958 -20.8301L339.247 -21Z" fill="#8B2CF5"/>
</g>
<rect x="0.5" y="0.5" width="1439" height="1023" stroke="black"/>
<defs>
<clipPath id="clip0_2_2">
<rect width="1440" height="1024" fill="white"/>
</clipPath>
</defs>
</svg>
