<svg width="300" height="300" viewBox="0 0 300 300" fill="none" xmlns="http://www.w3.org/2000/svg">
<path d="M155.664 219.354L145.806 213.666H92.154L82.338 219.33L79.542 253.506V257.088L89.406 262.782H148.56L158.418 257.088V253.506L155.664 219.354Z" fill="#37474F"/>
<path opacity="0.1" d="M89.406 262.782V259.2L79.542 253.506V257.088L89.406 262.782Z" fill="black"/>
<path opacity="0.1" d="M148.56 262.782V259.2L158.418 253.506V257.088L148.56 262.782Z" fill="black"/>
<path d="M155.664 219.354L158.418 253.506L148.56 259.2H89.406L79.542 253.506L82.338 219.33L92.154 213.666H145.806L155.664 219.354Z" fill="#455A64"/>
<path d="M153.966 218.484L155.166 231.264C155.22 237.366 155.208 243.468 155.232 249.576V249.66L155.154 249.708L146.154 254.94H146.112H146.064L118.98 255L91.902 254.94H91.854H91.812L82.812 249.708L82.74 249.66V249.6C82.74 243.492 82.74 237.39 82.8 231.288L84 218.562L82.956 231.306C83.01 237.408 82.998 243.51 83.022 249.618L82.944 249.48L91.98 254.676H91.896L118.974 254.61L146.058 254.676H145.968L155.01 249.486L154.932 249.618C154.932 243.51 154.932 237.408 154.998 231.306L153.966 218.484Z" fill="#263238"/>
<path d="M152.34 199.998L143.31 194.79H94.65L85.662 199.98L82.8719 231.27L82.896 231.282L82.8719 249.576L91.902 254.79H146.064L155.094 249.576V231.27L152.34 199.998Z" fill="#37474F"/>
<path d="M152.34 199.998L155.094 231.27L146.064 236.484H91.902L82.8719 231.27L85.662 199.98L94.65 194.79H143.31L152.34 199.998Z" fill="#455A64"/>
<path opacity="0.1" d="M91.9019 254.79V236.484L82.8719 231.27V249.576L91.9019 254.79Z" fill="black"/>
<path opacity="0.1" d="M146.064 254.79V236.484L155.094 231.27V249.576L146.064 254.79Z" fill="black"/>
<path d="M133.554 239.31H103.776V250.728H133.554V239.31Z" fill="#263238"/>
<path d="M134.19 239.808H104.412V251.226H134.19V239.808Z" fill="#FAFAFA"/>
<path d="M131.592 244.23V243.918C131.568 243.553 131.407 243.21 131.14 242.96C130.873 242.71 130.521 242.571 130.155 242.571C129.789 242.571 129.437 242.71 129.17 242.96C128.903 243.21 128.742 243.553 128.718 243.918V244.692C128.706 244.884 128.734 245.077 128.802 245.257C128.87 245.437 128.976 245.601 129.112 245.737C129.249 245.874 129.412 245.979 129.593 246.047C129.773 246.115 129.966 246.144 130.158 246.132C130.21 246.127 130.262 246.134 130.311 246.152C130.36 246.169 130.404 246.197 130.441 246.234C130.478 246.27 130.507 246.315 130.526 246.363C130.544 246.412 130.552 246.464 130.548 246.516V247.116C130.548 247.219 130.507 247.318 130.434 247.392C130.361 247.465 130.261 247.506 130.158 247.506C130.055 247.506 129.955 247.465 129.882 247.392C129.809 247.318 129.768 247.219 129.768 247.116V246.804H128.718V247.116C128.742 247.481 128.903 247.823 129.17 248.073C129.437 248.324 129.789 248.463 130.155 248.463C130.521 248.463 130.873 248.324 131.14 248.073C131.407 247.823 131.568 247.481 131.592 247.116V246.516C131.604 246.324 131.576 246.132 131.508 245.953C131.44 245.773 131.335 245.61 131.199 245.474C131.064 245.339 130.901 245.234 130.721 245.166C130.541 245.098 130.349 245.069 130.158 245.082C130.106 245.086 130.053 245.079 130.003 245.061C129.954 245.044 129.909 245.015 129.872 244.978C129.835 244.941 129.806 244.896 129.788 244.846C129.77 244.797 129.763 244.744 129.768 244.692V243.918C129.768 243.814 129.809 243.715 129.882 243.642C129.955 243.569 130.055 243.528 130.158 243.528C130.261 243.528 130.361 243.569 130.434 243.642C130.507 243.715 130.548 243.814 130.548 243.918V244.23H131.592ZM116.088 242.478C115.895 242.465 115.702 242.493 115.522 242.56C115.341 242.628 115.177 242.734 115.04 242.87C114.904 243.006 114.798 243.171 114.73 243.351C114.663 243.532 114.635 243.725 114.648 243.918V247.116C114.672 247.481 114.833 247.823 115.1 248.073C115.367 248.324 115.719 248.463 116.085 248.463C116.451 248.463 116.803 248.324 117.07 248.073C117.337 247.823 117.498 247.481 117.522 247.116V246.804H116.478V247.116C116.478 247.219 116.437 247.318 116.364 247.392C116.291 247.465 116.191 247.506 116.088 247.506C115.985 247.506 115.885 247.465 115.812 247.392C115.739 247.318 115.698 247.219 115.698 247.116V243.918C115.698 243.814 115.739 243.715 115.812 243.642C115.885 243.569 115.985 243.528 116.088 243.528C116.191 243.528 116.291 243.569 116.364 243.642C116.437 243.715 116.478 243.814 116.478 243.918V244.23H117.522V243.918C117.535 243.726 117.507 243.533 117.44 243.353C117.373 243.173 117.268 243.009 117.132 242.872C116.996 242.736 116.833 242.63 116.653 242.562C116.473 242.494 116.28 242.465 116.088 242.478ZM108.444 242.478C108.251 242.465 108.058 242.493 107.878 242.56C107.697 242.628 107.533 242.734 107.396 242.87C107.26 243.006 107.154 243.171 107.086 243.351C107.019 243.532 106.991 243.725 107.004 243.918V244.692C106.991 244.884 107.019 245.078 107.086 245.258C107.154 245.439 107.26 245.603 107.396 245.74C107.533 245.876 107.697 245.982 107.878 246.049C108.058 246.117 108.251 246.145 108.444 246.132C108.496 246.127 108.548 246.134 108.596 246.152C108.645 246.169 108.689 246.197 108.726 246.234C108.762 246.271 108.79 246.315 108.808 246.364C108.826 246.412 108.833 246.464 108.828 246.516V247.116C108.835 247.171 108.83 247.226 108.814 247.279C108.797 247.332 108.77 247.381 108.733 247.422C108.697 247.464 108.652 247.497 108.601 247.52C108.551 247.542 108.496 247.554 108.441 247.554C108.386 247.554 108.331 247.542 108.281 247.52C108.23 247.497 108.185 247.464 108.149 247.422C108.112 247.381 108.085 247.332 108.068 247.279C108.052 247.226 108.047 247.171 108.054 247.116V246.804H107.004V247.116C107.028 247.481 107.189 247.823 107.456 248.073C107.723 248.324 108.075 248.463 108.441 248.463C108.807 248.463 109.159 248.324 109.426 248.073C109.693 247.823 109.854 247.481 109.878 247.116V246.516C109.89 246.324 109.862 246.132 109.794 245.953C109.726 245.773 109.621 245.61 109.485 245.474C109.35 245.339 109.187 245.234 109.007 245.166C108.827 245.098 108.635 245.069 108.444 245.082C108.392 245.086 108.339 245.079 108.289 245.061C108.24 245.044 108.195 245.015 108.158 244.978C108.121 244.941 108.092 244.896 108.074 244.846C108.056 244.797 108.049 244.744 108.054 244.692V243.918C108.047 243.863 108.052 243.807 108.068 243.754C108.085 243.702 108.112 243.653 108.149 243.611C108.185 243.57 108.23 243.537 108.281 243.514C108.331 243.491 108.386 243.48 108.441 243.48C108.496 243.48 108.551 243.491 108.601 243.514C108.652 243.537 108.697 243.57 108.733 243.611C108.77 243.653 108.797 243.702 108.814 243.754C108.83 243.807 108.835 243.863 108.828 243.918V244.23H109.878V243.918C109.891 243.726 109.863 243.533 109.796 243.353C109.729 243.173 109.624 243.009 109.488 242.872C109.352 242.736 109.189 242.63 109.009 242.562C108.828 242.494 108.636 242.465 108.444 242.478ZM112.59 247.116C112.597 247.171 112.592 247.226 112.576 247.279C112.559 247.332 112.532 247.381 112.495 247.422C112.459 247.464 112.414 247.497 112.363 247.52C112.313 247.542 112.258 247.554 112.203 247.554C112.148 247.554 112.093 247.542 112.043 247.52C111.992 247.497 111.947 247.464 111.911 247.422C111.874 247.381 111.847 247.332 111.83 247.279C111.814 247.226 111.809 247.171 111.816 247.116V242.604H110.766V247.116C110.79 247.481 110.951 247.823 111.218 248.073C111.485 248.324 111.837 248.463 112.203 248.463C112.569 248.463 112.921 248.324 113.188 248.073C113.455 247.823 113.616 247.481 113.64 247.116V242.604H112.59V247.116ZM126.546 242.478C126.353 242.465 126.16 242.493 125.98 242.56C125.799 242.628 125.635 242.734 125.498 242.87C125.362 243.006 125.256 243.171 125.188 243.351C125.121 243.532 125.093 243.725 125.106 243.918V244.692C125.093 244.884 125.121 245.078 125.188 245.258C125.256 245.439 125.362 245.603 125.498 245.74C125.635 245.876 125.799 245.982 125.98 246.049C126.16 246.117 126.353 246.145 126.546 246.132C126.598 246.127 126.649 246.134 126.698 246.152C126.747 246.169 126.791 246.197 126.828 246.234C126.864 246.271 126.892 246.315 126.91 246.364C126.928 246.412 126.935 246.464 126.93 246.516V247.116C126.937 247.171 126.932 247.226 126.916 247.279C126.899 247.332 126.872 247.381 126.835 247.422C126.799 247.464 126.754 247.497 126.703 247.52C126.653 247.542 126.598 247.554 126.543 247.554C126.488 247.554 126.433 247.542 126.383 247.52C126.332 247.497 126.287 247.464 126.251 247.422C126.214 247.381 126.187 247.332 126.17 247.279C126.154 247.226 126.149 247.171 126.156 247.116V246.804H125.106V247.116C125.13 247.481 125.291 247.823 125.558 248.073C125.825 248.324 126.177 248.463 126.543 248.463C126.909 248.463 127.261 248.324 127.528 248.073C127.795 247.823 127.956 247.481 127.98 247.116V246.516C127.992 246.324 127.964 246.132 127.896 245.953C127.828 245.773 127.723 245.61 127.587 245.474C127.452 245.339 127.289 245.234 127.109 245.166C126.929 245.098 126.737 245.069 126.546 245.082C126.494 245.086 126.441 245.079 126.391 245.061C126.342 245.044 126.297 245.015 126.26 244.978C126.223 244.941 126.194 244.896 126.176 244.846C126.158 244.797 126.151 244.744 126.156 244.692V243.918C126.149 243.863 126.154 243.807 126.17 243.754C126.187 243.702 126.214 243.653 126.251 243.611C126.287 243.57 126.332 243.537 126.383 243.514C126.433 243.491 126.488 243.48 126.543 243.48C126.598 243.48 126.653 243.491 126.703 243.514C126.754 243.537 126.799 243.57 126.835 243.611C126.872 243.653 126.899 243.702 126.916 243.754C126.932 243.807 126.937 243.863 126.93 243.918V244.23H127.98V243.918C127.993 243.726 127.965 243.533 127.898 243.353C127.831 243.173 127.726 243.009 127.59 242.872C127.454 242.736 127.291 242.63 127.111 242.562C126.93 242.494 126.738 242.465 126.546 242.478ZM121.974 248.43H124.374V247.38H123V245.868H124.2V244.8H123V243.636H124.362V242.586H121.962L121.974 248.43ZM119.706 242.478C119.514 242.465 119.321 242.494 119.141 242.562C118.961 242.63 118.798 242.736 118.662 242.872C118.526 243.009 118.421 243.173 118.354 243.353C118.287 243.533 118.259 243.726 118.272 243.918V247.116C118.296 247.481 118.457 247.823 118.724 248.073C118.991 248.324 119.343 248.463 119.709 248.463C120.075 248.463 120.427 248.324 120.694 248.073C120.961 247.823 121.122 247.481 121.146 247.116V246.804H120.096V247.116C120.096 247.219 120.055 247.318 119.982 247.392C119.909 247.465 119.809 247.506 119.706 247.506C119.603 247.506 119.503 247.465 119.43 247.392C119.357 247.318 119.316 247.219 119.316 247.116V243.918C119.316 243.814 119.357 243.715 119.43 243.642C119.503 243.569 119.603 243.528 119.706 243.528C119.809 243.528 119.909 243.569 119.982 243.642C120.055 243.715 120.096 243.814 120.096 243.918V244.23H121.146V243.918C121.158 243.726 121.129 243.533 121.061 243.353C120.993 243.172 120.888 243.008 120.752 242.872C120.615 242.736 120.452 242.63 120.271 242.562C120.091 242.494 119.898 242.466 119.706 242.478Z" fill="#BA68C8"/>
<path opacity="0.4" d="M131.592 244.23V243.918C131.568 243.553 131.407 243.21 131.14 242.96C130.873 242.71 130.521 242.571 130.155 242.571C129.789 242.571 129.437 242.71 129.17 242.96C128.903 243.21 128.742 243.553 128.718 243.918V244.692C128.706 244.884 128.734 245.077 128.802 245.257C128.87 245.437 128.976 245.601 129.112 245.737C129.249 245.874 129.412 245.979 129.593 246.047C129.773 246.115 129.966 246.144 130.158 246.132C130.21 246.127 130.262 246.134 130.311 246.152C130.36 246.169 130.404 246.197 130.441 246.234C130.478 246.27 130.507 246.315 130.526 246.363C130.544 246.412 130.552 246.464 130.548 246.516V247.116C130.548 247.219 130.507 247.318 130.434 247.392C130.361 247.465 130.261 247.506 130.158 247.506C130.055 247.506 129.955 247.465 129.882 247.392C129.809 247.318 129.768 247.219 129.768 247.116V246.804H128.718V247.116C128.742 247.481 128.903 247.823 129.17 248.073C129.437 248.324 129.789 248.463 130.155 248.463C130.521 248.463 130.873 248.324 131.14 248.073C131.407 247.823 131.568 247.481 131.592 247.116V246.516C131.604 246.324 131.576 246.132 131.508 245.953C131.44 245.773 131.335 245.61 131.199 245.474C131.064 245.339 130.901 245.234 130.721 245.166C130.541 245.098 130.349 245.069 130.158 245.082C130.106 245.086 130.053 245.079 130.003 245.061C129.954 245.044 129.909 245.015 129.872 244.978C129.835 244.941 129.806 244.896 129.788 244.846C129.77 244.797 129.763 244.744 129.768 244.692V243.918C129.768 243.814 129.809 243.715 129.882 243.642C129.955 243.569 130.055 243.528 130.158 243.528C130.261 243.528 130.361 243.569 130.434 243.642C130.507 243.715 130.548 243.814 130.548 243.918V244.23H131.592ZM116.088 242.478C115.895 242.465 115.702 242.493 115.522 242.56C115.341 242.628 115.177 242.734 115.04 242.87C114.904 243.006 114.798 243.171 114.73 243.351C114.663 243.532 114.635 243.725 114.648 243.918V247.116C114.672 247.481 114.833 247.823 115.1 248.073C115.367 248.324 115.719 248.463 116.085 248.463C116.451 248.463 116.803 248.324 117.07 248.073C117.337 247.823 117.498 247.481 117.522 247.116V246.804H116.478V247.116C116.478 247.219 116.437 247.318 116.364 247.392C116.291 247.465 116.191 247.506 116.088 247.506C115.985 247.506 115.885 247.465 115.812 247.392C115.739 247.318 115.698 247.219 115.698 247.116V243.918C115.698 243.814 115.739 243.715 115.812 243.642C115.885 243.569 115.985 243.528 116.088 243.528C116.191 243.528 116.291 243.569 116.364 243.642C116.437 243.715 116.478 243.814 116.478 243.918V244.23H117.522V243.918C117.535 243.726 117.507 243.533 117.44 243.353C117.373 243.173 117.268 243.009 117.132 242.872C116.996 242.736 116.833 242.63 116.653 242.562C116.473 242.494 116.28 242.465 116.088 242.478ZM108.444 242.478C108.251 242.465 108.058 242.493 107.878 242.56C107.697 242.628 107.533 242.734 107.396 242.87C107.26 243.006 107.154 243.171 107.086 243.351C107.019 243.532 106.991 243.725 107.004 243.918V244.692C106.991 244.884 107.019 245.078 107.086 245.258C107.154 245.439 107.26 245.603 107.396 245.74C107.533 245.876 107.697 245.982 107.878 246.049C108.058 246.117 108.251 246.145 108.444 246.132C108.496 246.127 108.548 246.134 108.596 246.152C108.645 246.169 108.689 246.197 108.726 246.234C108.762 246.271 108.79 246.315 108.808 246.364C108.826 246.412 108.833 246.464 108.828 246.516V247.116C108.835 247.171 108.83 247.226 108.814 247.279C108.797 247.332 108.77 247.381 108.733 247.422C108.697 247.464 108.652 247.497 108.601 247.52C108.551 247.542 108.496 247.554 108.441 247.554C108.386 247.554 108.331 247.542 108.281 247.52C108.23 247.497 108.185 247.464 108.149 247.422C108.112 247.381 108.085 247.332 108.068 247.279C108.052 247.226 108.047 247.171 108.054 247.116V246.804H107.004V247.116C107.028 247.481 107.189 247.823 107.456 248.073C107.723 248.324 108.075 248.463 108.441 248.463C108.807 248.463 109.159 248.324 109.426 248.073C109.693 247.823 109.854 247.481 109.878 247.116V246.516C109.89 246.324 109.862 246.132 109.794 245.953C109.726 245.773 109.621 245.61 109.485 245.474C109.35 245.339 109.187 245.234 109.007 245.166C108.827 245.098 108.635 245.069 108.444 245.082C108.392 245.086 108.339 245.079 108.289 245.061C108.24 245.044 108.195 245.015 108.158 244.978C108.121 244.941 108.092 244.896 108.074 244.846C108.056 244.797 108.049 244.744 108.054 244.692V243.918C108.047 243.863 108.052 243.807 108.068 243.754C108.085 243.702 108.112 243.653 108.149 243.611C108.185 243.57 108.23 243.537 108.281 243.514C108.331 243.491 108.386 243.48 108.441 243.48C108.496 243.48 108.551 243.491 108.601 243.514C108.652 243.537 108.697 243.57 108.733 243.611C108.77 243.653 108.797 243.702 108.814 243.754C108.83 243.807 108.835 243.863 108.828 243.918V244.23H109.878V243.918C109.891 243.726 109.863 243.533 109.796 243.353C109.729 243.173 109.624 243.009 109.488 242.872C109.352 242.736 109.189 242.63 109.009 242.562C108.828 242.494 108.636 242.465 108.444 242.478ZM112.59 247.116C112.597 247.171 112.592 247.226 112.576 247.279C112.559 247.332 112.532 247.381 112.495 247.422C112.459 247.464 112.414 247.497 112.363 247.52C112.313 247.542 112.258 247.554 112.203 247.554C112.148 247.554 112.093 247.542 112.043 247.52C111.992 247.497 111.947 247.464 111.911 247.422C111.874 247.381 111.847 247.332 111.83 247.279C111.814 247.226 111.809 247.171 111.816 247.116V242.604H110.766V247.116C110.79 247.481 110.951 247.823 111.218 248.073C111.485 248.324 111.837 248.463 112.203 248.463C112.569 248.463 112.921 248.324 113.188 248.073C113.455 247.823 113.616 247.481 113.64 247.116V242.604H112.59V247.116ZM126.546 242.478C126.353 242.465 126.16 242.493 125.98 242.56C125.799 242.628 125.635 242.734 125.498 242.87C125.362 243.006 125.256 243.171 125.188 243.351C125.121 243.532 125.093 243.725 125.106 243.918V244.692C125.093 244.884 125.121 245.078 125.188 245.258C125.256 245.439 125.362 245.603 125.498 245.74C125.635 245.876 125.799 245.982 125.98 246.049C126.16 246.117 126.353 246.145 126.546 246.132C126.598 246.127 126.649 246.134 126.698 246.152C126.747 246.169 126.791 246.197 126.828 246.234C126.864 246.271 126.892 246.315 126.91 246.364C126.928 246.412 126.935 246.464 126.93 246.516V247.116C126.937 247.171 126.932 247.226 126.916 247.279C126.899 247.332 126.872 247.381 126.835 247.422C126.799 247.464 126.754 247.497 126.703 247.52C126.653 247.542 126.598 247.554 126.543 247.554C126.488 247.554 126.433 247.542 126.383 247.52C126.332 247.497 126.287 247.464 126.251 247.422C126.214 247.381 126.187 247.332 126.17 247.279C126.154 247.226 126.149 247.171 126.156 247.116V246.804H125.106V247.116C125.13 247.481 125.291 247.823 125.558 248.073C125.825 248.324 126.177 248.463 126.543 248.463C126.909 248.463 127.261 248.324 127.528 248.073C127.795 247.823 127.956 247.481 127.98 247.116V246.516C127.992 246.324 127.964 246.132 127.896 245.953C127.828 245.773 127.723 245.61 127.587 245.474C127.452 245.339 127.289 245.234 127.109 245.166C126.929 245.098 126.737 245.069 126.546 245.082C126.494 245.086 126.441 245.079 126.391 245.061C126.342 245.044 126.297 245.015 126.26 244.978C126.223 244.941 126.194 244.896 126.176 244.846C126.158 244.797 126.151 244.744 126.156 244.692V243.918C126.149 243.863 126.154 243.807 126.17 243.754C126.187 243.702 126.214 243.653 126.251 243.611C126.287 243.57 126.332 243.537 126.383 243.514C126.433 243.491 126.488 243.48 126.543 243.48C126.598 243.48 126.653 243.491 126.703 243.514C126.754 243.537 126.799 243.57 126.835 243.611C126.872 243.653 126.899 243.702 126.916 243.754C126.932 243.807 126.937 243.863 126.93 243.918V244.23H127.98V243.918C127.993 243.726 127.965 243.533 127.898 243.353C127.831 243.173 127.726 243.009 127.59 242.872C127.454 242.736 127.291 242.63 127.111 242.562C126.93 242.494 126.738 242.465 126.546 242.478ZM121.974 248.43H124.374V247.38H123V245.868H124.2V244.8H123V243.636H124.362V242.586H121.962L121.974 248.43ZM119.706 242.478C119.514 242.465 119.321 242.494 119.141 242.562C118.961 242.63 118.798 242.736 118.662 242.872C118.526 243.009 118.421 243.173 118.354 243.353C118.287 243.533 118.259 243.726 118.272 243.918V247.116C118.296 247.481 118.457 247.823 118.724 248.073C118.991 248.324 119.343 248.463 119.709 248.463C120.075 248.463 120.427 248.324 120.694 248.073C120.961 247.823 121.122 247.481 121.146 247.116V246.804H120.096V247.116C120.096 247.219 120.055 247.318 119.982 247.392C119.909 247.465 119.809 247.506 119.706 247.506C119.603 247.506 119.503 247.465 119.43 247.392C119.357 247.318 119.316 247.219 119.316 247.116V243.918C119.316 243.814 119.357 243.715 119.43 243.642C119.503 243.569 119.603 243.528 119.706 243.528C119.809 243.528 119.909 243.569 119.982 243.642C120.055 243.715 120.096 243.814 120.096 243.918V244.23H121.146V243.918C121.158 243.726 121.129 243.533 121.061 243.353C120.993 243.172 120.888 243.008 120.752 242.872C120.615 242.736 120.452 242.63 120.271 242.562C120.091 242.494 119.898 242.466 119.706 242.478Z" fill="white"/>
<g opacity="0.4">
<path d="M108.444 248.55C108.636 248.563 108.828 248.535 109.008 248.468C109.188 248.401 109.352 248.295 109.488 248.159C109.623 248.024 109.729 247.86 109.796 247.68C109.863 247.5 109.891 247.308 109.878 247.116V246.912L107.298 248.034C107.435 248.204 107.61 248.34 107.809 248.43C108.008 248.52 108.226 248.561 108.444 248.55Z" fill="white"/>
<path d="M110.766 246.528V247.128C110.79 247.493 110.951 247.835 111.218 248.085C111.485 248.336 111.837 248.475 112.203 248.475C112.569 248.475 112.921 248.336 113.188 248.085C113.455 247.835 113.616 247.493 113.64 247.128V245.28L112.59 245.736V247.116C112.597 247.171 112.592 247.226 112.576 247.279C112.559 247.332 112.532 247.381 112.495 247.422C112.459 247.464 112.414 247.497 112.363 247.52C112.313 247.542 112.258 247.554 112.203 247.554C112.148 247.554 112.093 247.542 112.043 247.52C111.992 247.497 111.947 247.464 111.911 247.422C111.874 247.381 111.847 247.332 111.83 247.279C111.814 247.226 111.809 247.171 111.816 247.116V246.072L110.766 246.528Z" fill="white"/>
<path d="M119.706 243.528C119.758 243.523 119.811 243.53 119.86 243.548C119.91 243.566 119.955 243.595 119.992 243.632C120.029 243.669 120.058 243.714 120.076 243.763C120.094 243.813 120.101 243.865 120.096 243.918V244.23H121.146V243.918C121.17 243.586 121.068 243.257 120.862 242.996C120.655 242.735 120.359 242.561 120.03 242.508L118.458 243.192C118.337 243.415 118.274 243.664 118.272 243.918V247.116C118.272 247.239 118.284 247.361 118.308 247.482L119.316 247.044V243.918C119.311 243.865 119.318 243.813 119.336 243.763C119.354 243.714 119.383 243.669 119.42 243.632C119.457 243.595 119.502 243.566 119.551 243.548C119.601 243.53 119.654 243.523 119.706 243.528Z" fill="white"/>
<path d="M123.024 244.818V243.654H124.386V242.604H121.974V245.886L124.176 244.938V244.818H123.024Z" fill="white"/>
<path d="M116.478 244.23H117.522V243.918C117.531 243.814 117.531 243.71 117.522 243.606L116.502 244.05L116.478 244.23Z" fill="white"/>
<path d="M117.522 247.116V246.804H116.478V247.116C116.478 247.219 116.437 247.318 116.364 247.392C116.291 247.465 116.191 247.506 116.088 247.506C115.985 247.506 115.885 247.465 115.812 247.392C115.739 247.318 115.698 247.219 115.698 247.116V244.386L114.648 244.842V247.116C114.623 247.462 114.735 247.804 114.959 248.069C115.183 248.333 115.502 248.5 115.848 248.532L117.252 247.932C117.421 247.693 117.515 247.409 117.522 247.116Z" fill="white"/>
<path d="M126.546 242.478C126.353 242.465 126.16 242.493 125.98 242.56C125.799 242.628 125.635 242.734 125.498 242.87C125.362 243.007 125.256 243.171 125.188 243.351C125.121 243.532 125.093 243.725 125.106 243.918V244.518L126.156 244.062V243.906C126.151 243.853 126.158 243.801 126.176 243.751C126.194 243.702 126.223 243.657 126.26 243.62C126.297 243.583 126.342 243.554 126.392 243.536C126.441 243.518 126.494 243.511 126.546 243.516C126.621 243.51 126.696 243.528 126.76 243.568C126.824 243.608 126.873 243.668 126.9 243.738L127.878 243.318C127.774 243.054 127.589 242.831 127.349 242.68C127.11 242.529 126.828 242.458 126.546 242.478Z" fill="white"/>
</g>
<path opacity="0.8" d="M108.444 242.478C108.251 242.465 108.058 242.493 107.878 242.56C107.697 242.628 107.533 242.734 107.396 242.87C107.26 243.006 107.154 243.171 107.086 243.351C107.019 243.532 106.991 243.725 107.004 243.918V244.692C107.001 244.748 107.001 244.804 107.004 244.86L108.042 244.41V243.918C108.035 243.863 108.04 243.807 108.056 243.754C108.073 243.702 108.1 243.653 108.137 243.611C108.173 243.57 108.218 243.537 108.269 243.514C108.319 243.491 108.374 243.48 108.429 243.48C108.484 243.48 108.539 243.491 108.589 243.514C108.64 243.537 108.685 243.57 108.721 243.611C108.758 243.653 108.785 243.702 108.802 243.754C108.818 243.807 108.823 243.863 108.816 243.918V244.074L109.842 243.624C109.796 243.292 109.626 242.99 109.367 242.777C109.108 242.565 108.778 242.458 108.444 242.478ZM110.766 242.604V243.234L111.816 242.778V242.604H110.766Z" fill="#BA68C8"/>
<path opacity="0.8" d="M126.546 247.506C126.457 247.508 126.369 247.478 126.3 247.422L125.286 247.86C125.452 248.126 125.7 248.332 125.993 248.446C126.286 248.56 126.608 248.576 126.91 248.492C127.213 248.409 127.481 248.23 127.673 247.982C127.866 247.734 127.974 247.43 127.98 247.116V246.696L126.918 247.152C126.918 247.2 126.908 247.248 126.889 247.292C126.87 247.336 126.843 247.376 126.808 247.409C126.773 247.442 126.732 247.468 126.687 247.484C126.642 247.501 126.594 247.508 126.546 247.506ZM124.386 248.43V248.256L123.984 248.43H124.386ZM131.058 245.358L129.54 246C129.731 246.074 129.935 246.113 130.14 246.114C130.192 246.109 130.244 246.116 130.293 246.134C130.342 246.152 130.386 246.18 130.423 246.216C130.46 246.253 130.489 246.297 130.508 246.345C130.526 246.394 130.534 246.446 130.53 246.498V247.098C130.53 247.201 130.489 247.301 130.416 247.374C130.343 247.447 130.243 247.488 130.14 247.488C130.036 247.488 129.937 247.447 129.864 247.374C129.791 247.301 129.75 247.201 129.75 247.098V246.786H128.7V247.098C128.723 247.463 128.885 247.805 129.152 248.056C129.419 248.306 129.771 248.445 130.137 248.445C130.503 248.445 130.855 248.306 131.122 248.056C131.389 247.805 131.55 247.463 131.574 247.098V246.498C131.584 246.281 131.542 246.064 131.453 245.866C131.363 245.668 131.228 245.494 131.058 245.358Z" fill="#BA68C8"/>
<path opacity="0.1" d="M118.98 234C135.366 234 148.65 226.331 148.65 216.87C148.65 207.409 135.366 199.74 118.98 199.74C102.594 199.74 89.3099 207.409 89.3099 216.87C89.3099 226.331 102.594 234 118.98 234Z" fill="black"/>
<path d="M180.6 118.572C181.163 119.35 181.563 120.233 181.776 121.169C181.989 122.106 182.012 123.075 181.842 124.02C181.573 125.707 180.858 127.291 179.772 128.61C178.719 129.934 177.316 130.936 175.722 131.502C174.922 131.778 174.084 131.927 173.238 131.946C172.823 131.954 172.408 131.932 171.996 131.88C171.6 131.826 171.234 131.766 170.856 131.682C169.296 131.375 167.83 130.71 166.572 129.738C165.33 128.728 164.374 127.41 163.8 125.916C163.269 124.485 162.995 122.972 162.99 121.446C162.981 120.688 163.043 119.93 163.176 119.184C163.312 118.434 163.512 117.697 163.776 116.982C165.978 111.24 172.212 107.52 178.482 108.09C181.698 108.362 184.704 109.802 186.93 112.14C187.2 112.434 187.458 112.74 187.722 113.04L188.43 113.994C188.832 114.63 189.24 115.266 189.588 115.944C190.317 117.305 190.871 118.752 191.238 120.252C191.942 123.29 191.78 126.464 190.77 129.414C189.802 132.202 188.383 134.813 186.57 137.142C184.83 139.389 182.904 141.485 180.81 143.406C178.752 145.332 176.61 147.12 174.408 148.806C172.206 150.492 169.92 152.094 167.73 153.708C165.54 155.322 163.35 156.984 161.226 158.694C159.102 160.404 157.026 162.174 155.088 164.058C153.148 165.938 151.344 167.953 149.688 170.088C149.542 170.28 149.327 170.406 149.088 170.438C148.849 170.471 148.608 170.408 148.416 170.262C148.224 170.116 148.098 169.901 148.066 169.662C148.033 169.423 148.096 169.182 148.242 168.99C154.986 159.99 164.304 153.522 172.746 146.736C176.892 143.256 180.822 139.452 183.792 135.126C185.29 133.051 186.441 130.747 187.2 128.304C187.901 125.994 187.966 123.537 187.386 121.194C187.092 120.024 186.653 118.895 186.078 117.834C185.796 117.288 185.478 116.772 185.124 116.244L184.614 115.536L184.05 114.882C182.464 113.171 180.352 112.039 178.05 111.666C175.65 111.271 173.186 111.631 171 112.698C168.754 113.754 166.971 115.593 165.984 117.87C165.86 118.152 165.752 118.44 165.66 118.734C165.559 119.018 165.479 119.309 165.42 119.604C165.311 120.21 165.257 120.824 165.258 121.44C165.232 122.675 165.467 123.902 165.948 125.04C166.398 126.115 167.145 127.039 168.102 127.704C169.079 128.35 170.192 128.76 171.354 128.904C171.648 128.952 171.954 128.976 172.254 129C172.526 129.015 172.798 129.015 173.07 129C173.597 128.948 174.114 128.815 174.6 128.604C175.579 128.165 176.412 127.455 177 126.558C177.597 125.683 177.949 124.663 178.02 123.606C178.058 123.187 178.009 122.766 177.876 122.367C177.742 121.968 177.528 121.602 177.246 121.29C176.886 120.883 176.693 120.355 176.707 119.812C176.721 119.268 176.94 118.75 177.32 118.362C177.701 117.974 178.214 117.745 178.757 117.72C179.3 117.696 179.832 117.878 180.246 118.23C180.322 118.301 180.39 118.379 180.45 118.464L180.6 118.572Z" fill="#BA68C8"/>
<path opacity="0.7" d="M180.6 118.572C181.163 119.35 181.563 120.233 181.776 121.169C181.989 122.106 182.012 123.075 181.842 124.02C181.573 125.707 180.858 127.291 179.772 128.61C178.719 129.934 177.316 130.936 175.722 131.502C174.922 131.778 174.084 131.927 173.238 131.946C172.823 131.954 172.408 131.932 171.996 131.88C171.6 131.826 171.234 131.766 170.856 131.682C169.296 131.375 167.83 130.71 166.572 129.738C165.33 128.728 164.374 127.41 163.8 125.916C163.269 124.485 162.995 122.972 162.99 121.446C162.981 120.688 163.043 119.93 163.176 119.184C163.312 118.434 163.512 117.697 163.776 116.982C165.978 111.24 172.212 107.52 178.482 108.09C181.698 108.362 184.704 109.802 186.93 112.14C187.2 112.434 187.458 112.74 187.722 113.04L188.43 113.994C188.832 114.63 189.24 115.266 189.588 115.944C190.317 117.305 190.871 118.752 191.238 120.252C191.942 123.29 191.78 126.464 190.77 129.414C189.802 132.202 188.383 134.813 186.57 137.142C184.83 139.389 182.904 141.485 180.81 143.406C178.752 145.332 176.61 147.12 174.408 148.806C172.206 150.492 169.92 152.094 167.73 153.708C165.54 155.322 163.35 156.984 161.226 158.694C159.102 160.404 157.026 162.174 155.088 164.058C153.148 165.938 151.344 167.953 149.688 170.088C149.542 170.28 149.327 170.406 149.088 170.438C148.849 170.471 148.608 170.408 148.416 170.262C148.224 170.116 148.098 169.901 148.066 169.662C148.033 169.423 148.096 169.182 148.242 168.99C154.986 159.99 164.304 153.522 172.746 146.736C176.892 143.256 180.822 139.452 183.792 135.126C185.29 133.051 186.441 130.747 187.2 128.304C187.901 125.994 187.966 123.537 187.386 121.194C187.092 120.024 186.653 118.895 186.078 117.834C185.796 117.288 185.478 116.772 185.124 116.244L184.614 115.536L184.05 114.882C182.464 113.171 180.352 112.039 178.05 111.666C175.65 111.271 173.186 111.631 171 112.698C168.754 113.754 166.971 115.593 165.984 117.87C165.86 118.152 165.752 118.44 165.66 118.734C165.559 119.018 165.479 119.309 165.42 119.604C165.311 120.21 165.257 120.824 165.258 121.44C165.232 122.675 165.467 123.902 165.948 125.04C166.398 126.115 167.145 127.039 168.102 127.704C169.079 128.35 170.192 128.76 171.354 128.904C171.648 128.952 171.954 128.976 172.254 129C172.526 129.015 172.798 129.015 173.07 129C173.597 128.948 174.114 128.815 174.6 128.604C175.579 128.165 176.412 127.455 177 126.558C177.597 125.683 177.949 124.663 178.02 123.606C178.058 123.187 178.009 122.766 177.876 122.367C177.742 121.968 177.528 121.602 177.246 121.29C176.886 120.883 176.693 120.355 176.707 119.812C176.721 119.268 176.94 118.75 177.32 118.362C177.701 117.974 178.214 117.745 178.757 117.72C179.3 117.696 179.832 117.878 180.246 118.23C180.322 118.301 180.39 118.379 180.45 118.464L180.6 118.572Z" fill="white"/>
<path d="M60.69 121.272C60.4042 121.584 60.1875 121.952 60.0541 122.353C59.9207 122.754 59.8736 123.179 59.916 123.6C59.9876 124.656 60.3374 125.675 60.93 126.552C61.5196 127.448 62.352 128.157 63.33 128.598C63.8185 128.808 64.3366 128.942 64.866 128.994C65.1377 129.009 65.4102 129.009 65.682 128.994C65.964 128.994 66.282 128.946 66.576 128.898C67.7399 128.754 68.855 128.344 69.834 127.698C70.7887 127.032 71.5338 126.108 71.982 125.034C72.4619 123.895 72.6989 122.669 72.678 121.434C72.68 120.818 72.6237 120.203 72.51 119.598C72.4558 119.302 72.3775 119.011 72.276 118.728C72.1841 118.434 72.076 118.146 71.952 117.864C70.9605 115.588 69.1757 113.75 66.93 112.692C64.746 111.625 62.2841 111.264 59.886 111.66C57.5839 112.035 55.4724 113.166 53.886 114.876L53.4 115.536L52.89 116.244C52.56 116.772 52.218 117.288 51.936 117.834C51.3615 118.896 50.9202 120.024 50.622 121.194C50.0442 123.538 50.1106 125.995 50.814 128.304C51.5655 130.747 52.7061 133.052 54.192 135.132C57.192 139.458 61.092 143.262 65.2439 146.742C73.6859 153.528 83.004 160.014 89.7479 168.996C89.8943 169.187 89.9589 169.428 89.9274 169.667C89.8959 169.905 89.7709 170.122 89.58 170.268C89.389 170.414 89.1477 170.479 88.9092 170.447C88.6706 170.416 88.4543 170.291 88.3079 170.1C86.6503 167.967 84.8459 165.952 82.9079 164.07C80.9579 162.186 78.882 160.422 76.764 158.706C74.646 156.99 72.468 155.34 70.266 153.72C68.064 152.1 65.784 150.522 63.588 148.818C61.392 147.114 59.238 145.326 57.186 143.418C55.0907 141.498 53.1637 139.402 51.426 137.154C49.6112 134.826 48.1922 132.215 47.226 129.426C46.2189 126.475 46.0568 123.302 46.758 120.264C47.1276 118.765 47.6819 117.318 48.408 115.956C48.762 115.278 49.164 114.642 49.572 114.006L50.28 113.052C50.544 112.752 50.796 112.452 51.072 112.152C53.298 109.814 56.3035 108.374 59.5199 108.102C65.7899 107.502 72.024 111.252 74.2199 116.994C74.4862 117.708 74.687 118.445 74.8199 119.196C74.9468 119.943 75.009 120.7 75.006 121.458C75.0016 122.985 74.7253 124.498 74.19 125.928C73.616 127.422 72.6602 128.74 71.418 129.75C70.1627 130.722 68.6978 131.388 67.14 131.694C66.756 131.778 66.396 131.838 66 131.892C65.5861 131.944 65.169 131.966 64.752 131.958C63.9061 131.938 63.0682 131.789 62.268 131.514C60.6675 130.945 59.2584 129.939 58.2 128.61C57.116 127.291 56.4035 125.706 56.136 124.02C55.966 123.075 55.9885 122.105 56.2019 121.169C56.4153 120.233 56.8153 119.35 57.378 118.572L57.4619 118.452C57.8041 117.996 58.3133 117.695 58.8776 117.614C59.4419 117.534 60.015 117.681 60.471 118.023C60.9269 118.365 61.2282 118.874 61.3086 119.439C61.3891 120.003 61.2421 120.576 60.9 121.032C60.8348 121.116 60.7647 121.196 60.69 121.272Z" fill="#BA68C8"/>
<path opacity="0.7" d="M60.69 121.272C60.4042 121.584 60.1875 121.952 60.0541 122.353C59.9207 122.754 59.8736 123.179 59.916 123.6C59.9876 124.656 60.3374 125.675 60.93 126.552C61.5196 127.448 62.352 128.157 63.33 128.598C63.8185 128.808 64.3366 128.942 64.866 128.994C65.1377 129.009 65.4102 129.009 65.682 128.994C65.964 128.994 66.282 128.946 66.576 128.898C67.7399 128.754 68.855 128.344 69.834 127.698C70.7887 127.032 71.5338 126.108 71.982 125.034C72.4619 123.895 72.6989 122.669 72.678 121.434C72.68 120.818 72.6237 120.203 72.51 119.598C72.4558 119.302 72.3775 119.011 72.276 118.728C72.1841 118.434 72.076 118.146 71.952 117.864C70.9605 115.588 69.1757 113.75 66.93 112.692C64.746 111.625 62.2841 111.264 59.886 111.66C57.5839 112.035 55.4724 113.166 53.886 114.876L53.4 115.536L52.89 116.244C52.56 116.772 52.218 117.288 51.936 117.834C51.3615 118.896 50.9202 120.024 50.622 121.194C50.0442 123.538 50.1106 125.995 50.814 128.304C51.5655 130.747 52.7061 133.052 54.192 135.132C57.192 139.458 61.092 143.262 65.2439 146.742C73.6859 153.528 83.004 160.014 89.7479 168.996C89.8943 169.187 89.9589 169.428 89.9274 169.667C89.8959 169.905 89.7709 170.122 89.58 170.268C89.389 170.414 89.1477 170.479 88.9092 170.447C88.6706 170.416 88.4543 170.291 88.3079 170.1C86.6503 167.967 84.8459 165.952 82.9079 164.07C80.9579 162.186 78.882 160.422 76.764 158.706C74.646 156.99 72.468 155.34 70.266 153.72C68.064 152.1 65.784 150.522 63.588 148.818C61.392 147.114 59.238 145.326 57.186 143.418C55.0907 141.498 53.1637 139.402 51.426 137.154C49.6112 134.826 48.1922 132.215 47.226 129.426C46.2189 126.475 46.0568 123.302 46.758 120.264C47.1276 118.765 47.6819 117.318 48.408 115.956C48.762 115.278 49.164 114.642 49.572 114.006L50.28 113.052C50.544 112.752 50.796 112.452 51.072 112.152C53.298 109.814 56.3035 108.374 59.5199 108.102C65.7899 107.502 72.024 111.252 74.2199 116.994C74.4862 117.708 74.687 118.445 74.8199 119.196C74.9468 119.943 75.009 120.7 75.006 121.458C75.0016 122.985 74.7253 124.498 74.19 125.928C73.616 127.422 72.6602 128.74 71.418 129.75C70.1627 130.722 68.6978 131.388 67.14 131.694C66.756 131.778 66.396 131.838 66 131.892C65.5861 131.944 65.169 131.966 64.752 131.958C63.9061 131.938 63.0682 131.789 62.268 131.514C60.6675 130.945 59.2584 129.939 58.2 128.61C57.116 127.291 56.4035 125.706 56.136 124.02C55.966 123.075 55.9885 122.105 56.2019 121.169C56.4153 120.233 56.8153 119.35 57.378 118.572L57.4619 118.452C57.8041 117.996 58.3133 117.695 58.8776 117.614C59.4419 117.534 60.015 117.681 60.471 118.023C60.9269 118.365 61.2282 118.874 61.3086 119.439C61.3891 120.003 61.2421 120.576 60.9 121.032C60.8348 121.116 60.7647 121.196 60.69 121.272Z" fill="white"/>
<path d="M142.398 209.856C142.398 206.4 140.118 202.938 135.546 200.298C126.396 195.006 111.546 195.006 102.426 200.298C98.1299 202.776 95.8259 205.968 95.5859 209.208C95.5859 209.274 95.5859 209.328 95.5859 209.388C95.5859 209.544 95.5859 209.7 95.5859 209.856V214.344C95.5859 214.5 95.5859 214.656 95.5859 214.812C95.5859 214.872 95.5859 214.926 95.5859 214.992C95.8559 218.232 98.1299 221.424 102.426 223.902C111.564 229.182 126.396 229.182 135.546 223.902C140.118 221.262 142.398 217.8 142.398 214.344V209.856Z" fill="#BA68C8"/>
<path opacity="0.4" d="M142.398 209.856C142.398 206.4 140.118 202.938 135.546 200.298C126.396 195.006 111.546 195.006 102.426 200.298C98.1299 202.776 95.8259 205.968 95.5859 209.208C95.5859 209.274 95.5859 209.328 95.5859 209.388C95.5859 209.544 95.5859 209.7 95.5859 209.856V214.344C95.5859 214.5 95.5859 214.656 95.5859 214.812C95.5859 214.872 95.5859 214.926 95.5859 214.992C95.8559 218.232 98.1299 221.424 102.426 223.902C111.564 229.182 126.396 229.182 135.546 223.902C140.118 221.262 142.398 217.8 142.398 214.344V209.856Z" fill="white"/>
<path opacity="0.4" d="M122.016 227.736C126.96 227.364 131.742 226.098 135.546 223.902C136.943 223.109 138.225 222.128 139.356 220.986V203.214C138.225 202.072 136.943 201.091 135.546 200.298C131.742 198.102 126.96 196.83 122.016 196.458V227.736Z" fill="white"/>
<path d="M105.732 198.714C104.592 199.159 103.487 199.689 102.426 200.298C98.1299 202.776 95.8259 205.968 95.5859 209.208C95.5859 209.274 95.5859 209.328 95.5859 209.388C95.5859 209.544 95.5859 209.7 95.5859 209.856V214.344C95.5859 214.5 95.5859 214.656 95.5859 214.812C95.5859 214.872 95.5859 214.926 95.5859 214.992C95.8559 218.232 98.1299 221.424 102.426 223.902C103.487 224.509 104.592 225.036 105.732 225.48V198.714Z" fill="#BA68C8"/>
<path d="M97.23 214.248C96.9999 213.912 96.7896 213.564 96.6 213.204C96.546 213.108 96.504 213.012 96.456 212.916C96.3098 212.619 96.1796 212.315 96.066 212.004C96.036 211.908 95.994 211.812 95.964 211.716C95.8426 211.335 95.7464 210.946 95.676 210.552C95.6116 210.155 95.5775 209.754 95.574 209.352C95.574 209.232 95.574 209.118 95.574 208.998C95.5831 208.721 95.6071 208.444 95.646 208.17C95.646 208.026 95.688 207.888 95.712 207.744C95.768 207.48 95.834 207.216 95.91 206.952C95.952 206.826 95.982 206.694 96.03 206.562C96.1618 206.184 96.3182 205.815 96.498 205.458C96.552 205.344 96.63 205.23 96.69 205.116C96.8343 204.85 96.9925 204.591 97.164 204.342C97.266 204.186 97.38 204.036 97.494 203.886C97.608 203.736 97.65 203.658 97.734 203.55L98.13 203.094L98.346 202.848C103.362 197.082 110.736 195.168 118.98 195.168C127.224 195.168 134.616 197.094 139.626 202.872L139.806 203.064L140.22 203.55C140.316 203.664 140.388 203.784 140.478 203.904C140.568 204.024 140.688 204.186 140.784 204.324C140.966 204.595 141.135 204.875 141.288 205.164C141.342 205.254 141.408 205.35 141.456 205.446C141.638 205.812 141.796 206.188 141.93 206.574C141.972 206.688 141.996 206.808 142.032 206.922C142.116 207.198 142.186 207.479 142.242 207.762C142.242 207.894 142.29 208.02 142.308 208.152C142.35 208.444 142.374 208.739 142.38 209.034C142.38 209.136 142.38 209.238 142.38 209.34C142.367 210.156 142.232 210.965 141.978 211.74C141.978 211.824 141.918 211.908 141.888 211.992C141.772 212.319 141.638 212.64 141.486 212.952L141.36 213.204C141.158 213.582 140.936 213.948 140.694 214.302L140.664 214.344C140.376 214.763 140.061 215.164 139.722 215.544L139.65 215.616C139.338 215.952 138.996 216.282 138.63 216.612L138.378 216.834C138.042 217.116 137.688 217.398 137.31 217.668L137.034 217.872C136.554 218.202 136.062 218.532 135.522 218.838C126.384 224.118 111.522 224.118 102.414 218.838C101.88 218.532 101.382 218.208 100.908 217.878C100.8 217.806 100.704 217.728 100.602 217.65C100.236 217.392 99.894 217.122 99.57 216.846L99.288 216.6C98.946 216.299 98.6196 215.98 98.31 215.646L98.202 215.532C97.8693 215.167 97.5588 214.782 97.272 214.38C97.2616 214.335 97.2476 214.291 97.23 214.248Z" fill="#BA68C8"/>
<g opacity="0.8">
<path d="M97.23 214.248C96.9999 213.912 96.7896 213.564 96.6 213.204C96.546 213.108 96.504 213.012 96.456 212.916C96.3098 212.619 96.1796 212.315 96.066 212.004C96.036 211.908 95.994 211.812 95.964 211.716C95.8426 211.335 95.7464 210.946 95.676 210.552C95.6116 210.155 95.5775 209.754 95.574 209.352C95.574 209.232 95.574 209.118 95.574 208.998C95.5831 208.721 95.6071 208.444 95.646 208.17C95.646 208.026 95.688 207.888 95.712 207.744C95.768 207.48 95.834 207.216 95.91 206.952C95.952 206.826 95.982 206.694 96.03 206.562C96.1618 206.184 96.3182 205.815 96.498 205.458C96.552 205.344 96.63 205.23 96.69 205.116C96.8343 204.85 96.9925 204.591 97.164 204.342C97.266 204.186 97.38 204.036 97.494 203.886C97.608 203.736 97.65 203.658 97.734 203.55L98.13 203.094L98.346 202.848C103.362 197.082 110.736 195.168 118.98 195.168C127.224 195.168 134.616 197.094 139.626 202.872L139.806 203.064L140.22 203.55C140.316 203.664 140.388 203.784 140.478 203.904C140.568 204.024 140.688 204.186 140.784 204.324C140.966 204.595 141.135 204.875 141.288 205.164C141.342 205.254 141.408 205.35 141.456 205.446C141.638 205.812 141.796 206.188 141.93 206.574C141.972 206.688 141.996 206.808 142.032 206.922C142.116 207.198 142.186 207.479 142.242 207.762C142.242 207.894 142.29 208.02 142.308 208.152C142.35 208.444 142.374 208.739 142.38 209.034C142.38 209.136 142.38 209.238 142.38 209.34C142.367 210.156 142.232 210.965 141.978 211.74C141.978 211.824 141.918 211.908 141.888 211.992C141.772 212.319 141.638 212.64 141.486 212.952L141.36 213.204C141.158 213.582 140.936 213.948 140.694 214.302L140.664 214.344C140.376 214.763 140.061 215.164 139.722 215.544L139.65 215.616C139.338 215.952 138.996 216.282 138.63 216.612L138.378 216.834C138.042 217.116 137.688 217.398 137.31 217.668L137.034 217.872C136.554 218.202 136.062 218.532 135.522 218.838C126.384 224.118 111.522 224.118 102.414 218.838C101.88 218.532 101.382 218.208 100.908 217.878C100.8 217.806 100.704 217.728 100.602 217.65C100.236 217.392 99.894 217.122 99.57 216.846L99.288 216.6C98.946 216.299 98.6196 215.98 98.31 215.646L98.202 215.532C97.8693 215.167 97.5588 214.782 97.272 214.38C97.2616 214.335 97.2476 214.291 97.23 214.248Z" fill="white"/>
</g>
<path opacity="0.3" d="M129.438 203.4V196.5C126.54 195.682 123.55 195.239 120.54 195.18V206.832L122.004 222.636C126.954 222.27 131.742 220.998 135.54 218.802C136.08 218.496 136.572 218.166 137.052 217.836L137.328 217.632C137.706 217.362 138.06 217.08 138.396 216.798L138.648 216.576C138.9 216.354 139.128 216.126 139.356 215.904L129.438 203.4Z" fill="white"/>
<path opacity="0.15" d="M112.2 205.674V195.672C106.752 196.566 101.958 198.714 98.3699 202.836L98.1539 203.082L97.7579 203.538C97.6739 203.646 97.6019 203.76 97.5179 203.874C97.4339 203.988 97.2899 204.174 97.1879 204.33C97.0164 204.579 96.8582 204.838 96.7139 205.104C96.6539 205.218 96.5759 205.332 96.5219 205.446C96.3421 205.803 96.1858 206.172 96.0539 206.55C96.0059 206.682 95.9759 206.814 95.9339 206.94C95.8558 207.2 95.7917 207.465 95.7419 207.732C95.7419 207.876 95.6879 208.014 95.6699 208.158C95.631 208.432 95.607 208.709 95.5979 208.986C95.5979 209.106 95.5979 209.22 95.5979 209.34C95.6015 209.742 95.6356 210.143 95.6999 210.54C95.7703 210.934 95.8665 211.323 95.9879 211.704C96.0179 211.8 96.0599 211.896 96.0899 211.992C96.2035 212.303 96.3337 212.607 96.4799 212.904C96.5279 213 96.5699 213.096 96.6239 213.192C96.8135 213.552 97.0238 213.9 97.2539 214.236C97.276 214.266 97.2961 214.299 97.3139 214.332C97.6007 214.734 97.9113 215.119 98.2439 215.484L98.3519 215.598C98.6615 215.932 98.9879 216.251 99.3299 216.552L99.6119 216.798C99.9359 217.074 100.278 217.344 100.644 217.602L100.95 217.83C101.424 218.16 101.922 218.484 102.456 218.79C103.517 219.397 104.622 219.924 105.762 220.368L112.2 205.674Z" fill="#BA68C8"/>
<path d="M132.03 196.908C132.03 194.976 130.764 193.05 128.214 191.58C123.114 188.628 114.852 188.628 109.758 191.58C107.358 192.96 106.092 194.736 105.948 196.542C105.945 196.576 105.945 196.61 105.948 196.644C105.948 196.734 105.948 196.818 105.948 196.908V200.79C105.948 200.874 105.948 200.964 105.948 201.048C105.945 201.082 105.945 201.116 105.948 201.15C106.092 202.95 107.364 204.75 109.758 206.118C114.852 209.058 123.114 209.058 128.214 206.118C130.764 204.642 132.03 202.716 132.03 200.79V196.908Z" fill="#BA68C8"/>
<path opacity="0.4" d="M132.03 196.908C132.03 194.976 130.764 193.05 128.214 191.58C123.114 188.628 114.852 188.628 109.758 191.58C107.358 192.96 106.092 194.736 105.948 196.542C105.945 196.576 105.945 196.61 105.948 196.644C105.948 196.734 105.948 196.818 105.948 196.908V200.79C105.948 200.874 105.948 200.964 105.948 201.048C105.945 201.082 105.945 201.116 105.948 201.15C106.092 202.95 107.364 204.75 109.758 206.118C114.852 209.058 123.114 209.058 128.214 206.118C130.764 204.642 132.03 202.716 132.03 200.79V196.908Z" fill="white"/>
<path opacity="0.4" d="M120.672 208.254C123.312 208.105 125.887 207.375 128.214 206.118C128.992 205.681 129.706 205.14 130.338 204.51V193.2C129.707 192.566 128.992 192.021 128.214 191.58C125.888 190.32 123.313 189.589 120.672 189.438V208.254Z" fill="white"/>
<path d="M111.6 190.698C110.965 190.946 110.349 191.241 109.758 191.58C107.358 192.96 106.092 194.736 105.948 196.542C105.945 196.576 105.945 196.61 105.948 196.644C105.948 196.734 105.948 196.818 105.948 196.908V200.79C105.948 200.874 105.948 200.964 105.948 201.048C105.945 201.082 105.945 201.116 105.948 201.15C106.092 202.95 107.364 204.75 109.758 206.118C110.35 206.455 110.966 206.75 111.6 207V190.698Z" fill="#BA68C8"/>
<path d="M132 196.542C131.718 191.58 118.962 182.784 118.962 182.784C118.962 182.784 106.206 191.58 105.924 196.542C105.907 196.742 105.907 196.942 105.924 197.142C105.921 197.176 105.921 197.21 105.924 197.244C106.068 199.044 107.34 200.844 109.734 202.212C114.828 205.152 123.09 205.152 128.19 202.212C130.59 200.826 131.85 199.05 132 197.244V197.142C132.014 196.942 132.014 196.742 132 196.542Z" fill="#BA68C8"/>
<path opacity="0.8" d="M132 196.542C131.718 191.58 118.962 182.784 118.962 182.784C118.962 182.784 106.206 191.58 105.924 196.542C105.907 196.742 105.907 196.942 105.924 197.142C105.921 197.176 105.921 197.21 105.924 197.244C106.068 199.044 107.34 200.844 109.734 202.212C114.828 205.152 123.09 205.152 128.19 202.212C130.59 200.826 131.85 199.05 132 197.244V197.142C132.014 196.942 132.014 196.742 132 196.542Z" fill="white"/>
<path opacity="0.3" d="M128.214 202.236C128.906 201.84 129.549 201.362 130.128 200.814C130.128 194.664 118.986 182.772 118.986 182.772C118.986 182.772 120.672 199.704 120.672 204.372C123.312 204.22 125.886 203.491 128.214 202.236Z" fill="white"/>
<path opacity="0.15" d="M105.948 196.53C105.931 196.73 105.931 196.93 105.948 197.13C105.945 197.164 105.945 197.198 105.948 197.232C106.092 199.032 107.364 200.832 109.758 202.2C110.409 202.574 111.089 202.895 111.792 203.16C111.792 199.044 118.992 182.76 118.992 182.76C118.992 182.76 106.23 191.568 105.948 196.53Z" fill="#BA68C8"/>
<path d="M163.74 105.06C163.74 98.4598 159.372 91.8598 150.63 86.7838C133.152 76.6918 104.808 76.6918 87.33 86.7838C78.6 91.8298 74.22 98.4418 74.22 105.06V112.962C74.22 119.562 78.594 126.162 87.33 131.238C104.814 141.33 133.152 141.33 150.63 131.238C159.372 126.192 163.74 119.574 163.74 112.962V105.06Z" fill="#BA68C8"/>
<path opacity="0.4" d="M163.74 105.06C163.74 98.4598 159.372 91.8598 150.63 86.7838C133.152 76.6918 104.808 76.6918 87.33 86.7838C78.6 91.8298 74.22 98.4418 74.22 105.06V112.962C74.22 119.562 78.594 126.162 87.33 131.238C104.814 141.33 133.152 141.33 150.63 131.238C159.372 126.192 163.74 119.574 163.74 112.962V105.06Z" fill="white"/>
<path opacity="0.4" d="M153.732 88.8V129.282C160.404 124.548 163.74 118.77 163.74 112.992V105.06C163.74 99.2821 160.404 93.504 153.732 88.8Z" fill="white"/>
<path opacity="0.4" d="M118.98 138.804C127.896 138.804 136.8 137.268 144.432 134.214V83.814C136.8 80.748 127.896 79.2 118.98 79.2V138.804Z" fill="white"/>
<path d="M89.952 85.3979C89.058 85.8359 88.152 86.2979 87.33 86.7839C78.6 91.8299 74.22 98.442 74.22 105.06V112.962C74.22 119.562 78.594 126.162 87.33 131.238C88.176 131.724 89.058 132.186 89.952 132.624V85.3979Z" fill="#BA68C8"/>
<path d="M118.98 130.902C143.7 130.902 163.74 119.332 163.74 105.06C163.74 90.7879 143.7 79.218 118.98 79.218C94.2597 79.218 74.22 90.7879 74.22 105.06C74.22 119.332 94.2597 130.902 118.98 130.902Z" fill="#BA68C8"/>
<path opacity="0.55" d="M118.98 130.902C143.7 130.902 163.74 119.332 163.74 105.06C163.74 90.7879 143.7 79.218 118.98 79.218C94.2597 79.218 74.22 90.7879 74.22 105.06C74.22 119.332 94.2597 130.902 118.98 130.902Z" fill="white"/>
<path d="M159.162 105.054C159.153 106.408 158.901 107.749 158.418 109.014C156.99 105.24 153.522 101.658 148.338 98.6579C140.574 94.1759 130.152 91.6979 118.986 91.6979C107.82 91.6979 97.386 94.1759 89.622 98.6579C84.432 101.658 80.976 105.228 79.548 109.014C79.0646 107.749 78.8125 106.408 78.804 105.054C78.804 99.8579 82.65 94.7819 89.604 90.7559C97.368 86.2739 107.802 83.7959 118.968 83.7959C130.134 83.7959 140.568 86.2739 148.32 90.7559C155.31 94.7999 159.162 99.8579 159.162 105.054Z" fill="#BA68C8"/>
<path opacity="0.1" d="M100.362 86.2979C96.615 87.3448 93.0088 88.8417 89.6219 90.7558C82.6499 94.7818 78.8219 99.8578 78.8219 105.054C78.8305 106.408 79.0825 107.749 79.5659 109.014C80.9939 105.228 84.4499 101.658 89.6399 98.6578C93.0268 96.7437 96.633 95.2468 100.38 94.1998L100.362 86.2979Z" fill="black"/>
<path opacity="0.2" d="M120.138 91.7159C129.66 91.8599 138.588 93.8099 145.716 97.2779V89.3999C138.588 85.9319 129.66 83.9999 120.138 83.8379V91.7159Z" fill="white"/>
<path d="M74.22 112.962C74.22 119.562 78.594 126.162 87.33 131.238C104.814 141.33 133.152 141.33 150.63 131.238C159.372 126.192 163.74 119.574 163.74 112.962C163.74 154.506 142.614 188.898 118.98 188.898C95.346 188.898 74.22 154.506 74.22 112.962Z" fill="#BA68C8"/>
<path opacity="0.8" d="M74.22 112.962C74.22 119.562 78.594 126.162 87.33 131.238C104.814 141.33 133.152 141.33 150.63 131.238C159.372 126.192 163.74 119.574 163.74 112.962C163.74 154.506 142.614 188.898 118.98 188.898C95.346 188.898 74.22 154.506 74.22 112.962Z" fill="white"/>
<path opacity="0.1" d="M118.98 188.898C129.462 188.898 139.452 182.124 147.318 170.964C136.68 184.86 115.98 182.844 107.364 164.994C104.796 159.672 101.238 148.056 100.362 136.464C95.8061 135.306 91.4239 133.548 87.33 131.238C78.594 126.192 74.22 119.574 74.22 112.962C74.22 154.506 95.346 188.898 118.98 188.898Z" fill="#BA68C8"/>
<path opacity="0.15" d="M88.032 153.834C86.0902 145.829 84.905 137.659 84.492 129.432C77.652 124.668 74.22 118.818 74.22 112.962C74.22 153.696 94.536 187.536 117.606 188.838C104.496 187.722 92.322 170.838 88.032 153.834Z" fill="#BA68C8"/>
<path opacity="0.3" d="M150.63 131.238C140.658 136.998 127.146 139.464 114.138 138.648C116.31 164.604 123.396 173.586 135.672 167.406C145.914 162.24 150.81 145.476 153.114 129.672C152.328 130.2 151.506 130.734 150.63 131.238Z" fill="white"/>
<path d="M158.4 109.014C156.96 112.782 153.504 116.37 148.32 119.364C140.556 123.846 130.134 126.312 118.968 126.312C107.802 126.312 97.3679 123.846 89.6039 119.364C84.4139 116.364 80.9579 112.764 79.5299 109.014C80.9579 105.228 84.4139 101.658 89.6039 98.658C97.3679 94.176 107.802 91.698 118.968 91.698C130.134 91.698 140.568 94.176 148.32 98.658C153.522 101.658 156.99 105.24 158.4 109.014Z" fill="#BA68C8"/>
<path opacity="0.8" d="M158.4 109.014C156.96 112.782 153.504 116.37 148.32 119.364C140.556 123.846 130.134 126.312 118.968 126.312C107.802 126.312 97.3679 123.846 89.6039 119.364C84.4139 116.364 80.9579 112.764 79.5299 109.014C80.9579 105.228 84.4139 101.658 89.6039 98.658C97.3679 94.176 107.802 91.698 118.968 91.698C130.134 91.698 140.568 94.176 148.32 98.658C153.522 101.658 156.99 105.24 158.4 109.014Z" fill="white"/>
<path opacity="0.1" d="M138.336 123.6C141.822 122.575 145.178 121.151 148.338 119.358C153.522 116.358 156.978 112.758 158.418 109.008C156.99 105.234 153.522 101.652 148.338 98.652C145.812 97.203 143.154 95.9976 140.4 95.052C140.679 104.613 139.987 114.178 138.336 123.6Z" fill="#BA68C8"/>
<path opacity="0.15" d="M151.296 100.584C151.027 106.696 150.336 112.783 149.226 118.8C153.912 115.914 157.068 112.542 158.418 108.996C157.284 106.014 154.842 103.14 151.296 100.584Z" fill="#BA68C8"/>
<path d="M213.402 229.062C213.528 226.098 215.232 193.326 215.232 193.326L200.232 204.126C202.572 221.226 203.556 229.092 203.724 231.942C203.671 232.182 203.652 232.429 203.67 232.674C203.82 236.058 207.906 237.744 211.134 239.874C213.882 241.774 216.786 243.436 219.816 244.842C222.132 245.85 226.764 245.784 227.28 244.374C223.356 241.74 218.82 238.866 215.664 235.812C214.146 234.378 213.258 232.626 213.402 229.062Z" fill="#B16668"/>
<path d="M231.84 247.854C232.02 247.854 232.374 249.888 231.414 250.794C230.31 251.838 227.01 253.608 222.546 253.194C218.082 252.78 215.622 251.46 213.786 250.008C211.95 248.556 209.376 246.51 207.348 246.132C205.464 245.778 203.406 244.992 202.782 244.428C202.158 243.864 202.146 241.248 202.146 241.248L231.84 247.854Z" fill="#263238"/>
<path d="M203.652 231.126C203.652 231.126 203.166 231.126 203.052 231.726C202.944 232.446 202.818 234.558 202.566 235.746C202.224 237.402 201.966 240.798 202.242 242.124C202.518 243.45 205.614 244.272 207.588 244.956C209.921 245.899 212.098 247.189 214.044 248.784C216.198 250.458 220.644 252.06 223.554 252C227.982 251.904 230.796 250.584 231.618 248.934C232.638 246.894 232.248 245.49 227.076 243.276C225.097 242.322 223.172 241.261 221.31 240.096C218.34 238.275 216.004 235.583 214.62 232.386C214.487 231.959 214.215 231.589 213.846 231.336C213.53 231.213 213.183 231.194 212.856 231.282C212.01 231.432 209.574 231.828 208.818 232.23C208.062 232.632 207.198 233.004 207.246 233.892C207.274 234.2 207.351 234.502 207.474 234.786C207.54 234.966 207.594 235.206 207.444 235.32C207.294 235.434 207.102 235.32 206.964 235.2C206.442 234.7 205.963 234.158 205.53 233.58C205.29 233.291 205.018 233.029 204.72 232.8C204.411 232.636 204.113 232.453 203.826 232.254C203.826 232.254 203.682 231.54 203.652 231.126Z" fill="#455A64"/>
<path d="M227.244 243.276C220.86 243.954 218.19 248.154 219 251.196C220.475 251.702 222.019 251.975 223.578 252.006C228.006 251.91 231 250.584 231.822 248.934C232.8 247.014 231.846 244.866 227.244 243.276Z" fill="#FAFAFA"/>
<path d="M218.55 244.2C218.479 244.203 218.409 244.182 218.352 244.14C218.286 244.087 218.243 244.011 218.232 243.927C218.221 243.843 218.242 243.758 218.292 243.69C219.002 242.882 219.879 242.238 220.862 241.802C221.845 241.366 222.911 241.148 223.986 241.164C224.07 241.172 224.147 241.211 224.202 241.275C224.257 241.339 224.285 241.422 224.28 241.506C224.278 241.547 224.267 241.588 224.249 241.625C224.231 241.663 224.205 241.696 224.174 241.724C224.143 241.751 224.106 241.772 224.067 241.785C224.027 241.798 223.985 241.803 223.944 241.8C222.973 241.796 222.012 241.997 221.124 242.39C220.235 242.783 219.44 243.358 218.79 244.08C218.762 244.117 218.726 244.148 218.684 244.169C218.643 244.19 218.597 244.2 218.55 244.2Z" fill="#F0F0F0"/>
<path d="M216 242.646C215.94 242.647 215.882 242.631 215.831 242.6C215.78 242.569 215.739 242.525 215.712 242.472C215.685 242.418 215.673 242.359 215.679 242.299C215.684 242.24 215.706 242.183 215.742 242.136C216.45 241.325 217.326 240.679 218.31 240.242C219.293 239.804 220.36 239.587 221.436 239.604C221.52 239.612 221.597 239.652 221.652 239.715C221.707 239.779 221.735 239.862 221.73 239.946C221.728 239.988 221.717 240.028 221.699 240.066C221.681 240.103 221.655 240.136 221.624 240.164C221.593 240.191 221.556 240.212 221.517 240.225C221.477 240.238 221.435 240.243 221.394 240.24C220.423 240.236 219.462 240.437 218.573 240.83C217.685 241.223 216.89 241.799 216.24 242.52C216.211 242.557 216.175 242.587 216.133 242.609C216.092 242.63 216.047 242.643 216 242.646Z" fill="#F0F0F0"/>
<path d="M213.42 240.648C213.349 240.651 213.279 240.63 213.222 240.588C213.155 240.536 213.111 240.459 213.1 240.375C213.089 240.291 213.111 240.206 213.162 240.138C213.872 239.33 214.749 238.686 215.732 238.25C216.715 237.814 217.781 237.596 218.856 237.612C218.898 237.615 218.938 237.626 218.976 237.645C219.013 237.664 219.047 237.69 219.074 237.722C219.101 237.754 219.122 237.79 219.135 237.83C219.148 237.87 219.153 237.912 219.15 237.954C219.148 237.995 219.137 238.036 219.119 238.073C219.101 238.111 219.075 238.144 219.044 238.172C219.012 238.199 218.976 238.22 218.937 238.233C218.897 238.246 218.855 238.251 218.814 238.248C217.843 238.243 216.882 238.443 215.994 238.834C215.106 239.226 214.31 239.801 213.66 240.522C213.633 240.561 213.597 240.592 213.555 240.614C213.514 240.636 213.467 240.648 213.42 240.648Z" fill="#F0F0F0"/>
<path d="M210.9 238.65C210.83 238.652 210.762 238.628 210.708 238.584C210.674 238.559 210.645 238.529 210.623 238.493C210.601 238.457 210.587 238.418 210.58 238.377C210.573 238.336 210.575 238.293 210.584 238.253C210.594 238.212 210.611 238.174 210.636 238.14C211.806 236.52 214.536 235.386 216.864 235.56C216.948 235.567 217.025 235.607 217.08 235.671C217.135 235.735 217.163 235.818 217.158 235.902C217.152 235.985 217.113 236.063 217.05 236.118C216.987 236.173 216.905 236.201 216.822 236.196C214.722 236.04 212.178 237.084 211.14 238.518C211.113 238.557 211.078 238.59 211.036 238.613C210.994 238.636 210.947 238.648 210.9 238.65Z" fill="#F0F0F0"/>
<path d="M187.698 205.854L172.896 202.854C172.392 211.812 172.626 226.434 172.638 234.714C172.638 236.298 171.594 246.984 172.002 250.278C172.602 255.228 179.25 254.994 179.832 252.078C180.414 249.162 181.068 236.76 181.194 235.47C181.208 235.083 181.252 234.698 181.326 234.318C182.964 226.8 187.602 206.28 187.698 205.854Z" fill="#B16668"/>
<path d="M182.148 254.292C182.046 257.166 181.602 259.092 180.504 260.796C179.406 262.5 177.234 263.094 175.008 262.65C172.782 262.206 169.914 260.958 169.2 258.492C168.486 256.026 168.564 254.322 168.978 251.646L182.148 254.292Z" fill="#263238"/>
<path d="M172.638 233.796C171.726 233.88 171.63 237.63 171.234 241.512C170.802 245.664 169.434 247.41 169.062 250.818C168.612 254.712 168.9 256.44 170.52 258.75C172.14 261.06 177.666 263.232 180.246 259.806C182.352 257.016 182.34 253.98 182.016 250.11C181.657 246.836 181.483 243.545 181.494 240.252C181.578 237.342 182.094 234.642 181.32 234.336C181.272 234.762 181.23 235.308 181.176 235.728C181.14 236.052 181.098 237.624 180.576 237.654C180.523 237.29 180.509 236.922 180.534 236.556C180.554 236.39 180.54 236.221 180.491 236.061C180.443 235.901 180.361 235.753 180.252 235.626C179.818 235.36 179.33 235.192 178.824 235.134C177.924 235.002 177.024 234.882 176.106 234.828C175.656 234.828 175.2 234.798 174.744 234.828C174.353 234.828 173.965 234.887 173.592 235.002C173.489 235.033 173.393 235.084 173.311 235.153C173.228 235.223 173.16 235.308 173.112 235.404C173.072 235.548 173.062 235.699 173.082 235.848C173.088 236.119 173.058 236.389 172.992 236.652C172.992 236.766 172.878 236.904 172.746 236.88C172.614 236.856 172.596 236.748 172.59 236.652C172.59 236.184 172.632 235.842 172.638 235.296C172.638 235.044 172.638 234.804 172.638 234.552C172.638 234.3 172.626 234.048 172.638 233.796Z" fill="#455A64"/>
<path d="M168.882 253.074C168.804 255.474 169.014 257.13 170.28 258.936C171.894 261.246 177.864 263.418 180.444 259.998C181.728 258.294 182.022 256.308 182.142 254.286C180.45 251.736 171.354 250.8 168.882 253.074Z" fill="#FAFAFA"/>
<path d="M179.67 250.122C179.634 250.13 179.597 250.13 179.562 250.122C177.03 249.245 174.31 249.063 171.684 249.594C171.601 249.615 171.514 249.605 171.438 249.565C171.362 249.525 171.305 249.458 171.276 249.378C171.266 249.338 171.265 249.297 171.272 249.257C171.279 249.217 171.294 249.179 171.317 249.145C171.34 249.111 171.369 249.083 171.403 249.061C171.437 249.039 171.476 249.024 171.516 249.018C174.287 248.442 177.163 248.635 179.832 249.576C179.871 249.588 179.907 249.609 179.937 249.636C179.968 249.663 179.992 249.697 180.008 249.734C180.025 249.772 180.033 249.812 180.033 249.853C180.032 249.894 180.023 249.935 180.006 249.972C179.97 250.026 179.919 250.069 179.86 250.096C179.8 250.122 179.734 250.131 179.67 250.122Z" fill="#F0F0F0"/>
<path d="M171.816 246.672C171.754 246.672 171.693 246.653 171.641 246.619C171.589 246.585 171.547 246.537 171.522 246.48C171.507 246.442 171.5 246.401 171.503 246.36C171.505 246.319 171.515 246.28 171.534 246.243C171.553 246.207 171.579 246.175 171.611 246.15C171.643 246.124 171.68 246.106 171.72 246.096C175.764 244.782 179.85 246.516 180.024 246.588C180.063 246.601 180.098 246.623 180.128 246.651C180.157 246.68 180.18 246.714 180.195 246.753C180.21 246.791 180.217 246.832 180.214 246.873C180.211 246.914 180.2 246.954 180.18 246.99C180.133 247.062 180.062 247.115 179.979 247.139C179.897 247.164 179.808 247.157 179.73 247.122C179.688 247.122 175.716 245.424 171.93 246.654C171.894 246.668 171.855 246.674 171.816 246.672Z" fill="#F0F0F0"/>
<path d="M171.96 243.942C171.899 243.939 171.84 243.92 171.789 243.886C171.739 243.852 171.698 243.805 171.672 243.75C171.656 243.713 171.648 243.673 171.649 243.632C171.65 243.592 171.659 243.552 171.677 243.515C171.695 243.479 171.72 243.447 171.751 243.421C171.782 243.395 171.819 243.376 171.858 243.366C174.641 242.456 177.664 242.623 180.33 243.834C180.367 243.85 180.4 243.874 180.427 243.904C180.454 243.935 180.474 243.97 180.486 244.009C180.498 244.048 180.502 244.089 180.497 244.129C180.491 244.169 180.477 244.208 180.456 244.242C180.406 244.312 180.332 244.362 180.248 244.382C180.164 244.402 180.076 244.391 180 244.35C177.511 243.248 174.705 243.095 172.11 243.918C172.062 243.934 172.011 243.942 171.96 243.942Z" fill="#F0F0F0"/>
<path d="M172.14 240.87C172.079 240.868 172.021 240.85 171.97 240.817C171.919 240.784 171.878 240.738 171.852 240.684C171.836 240.647 171.828 240.607 171.828 240.567C171.829 240.527 171.838 240.487 171.855 240.451C171.872 240.415 171.897 240.382 171.927 240.356C171.958 240.33 171.993 240.311 172.032 240.3C176.196 238.812 180.39 240.762 180.57 240.846C180.608 240.862 180.641 240.885 180.669 240.915C180.697 240.945 180.717 240.981 180.73 241.019C180.742 241.058 180.746 241.099 180.742 241.14C180.737 241.18 180.723 241.219 180.702 241.254C180.653 241.325 180.58 241.377 180.496 241.399C180.413 241.421 180.324 241.412 180.246 241.374C180.204 241.374 176.154 239.466 172.29 240.846C172.242 240.865 172.191 240.874 172.14 240.87Z" fill="#EBEBEB"/>
<path d="M176.868 136.8C175.95 153.696 174.522 184.89 174.522 184.89C174.318 186.858 172.518 195.552 172.338 202.644C172.038 214.044 172.494 224.58 172.494 224.58C172.494 224.58 179.028 227.37 183.564 225.57C183.564 225.57 189.564 199.812 191.058 192.396C192.858 183.558 196.698 165.966 196.698 165.966L199.698 189.312C199.698 189.312 198.75 197.628 199.698 204.498C200.34 209.178 202.758 224.748 202.758 224.748C202.758 224.748 208.758 226.038 213.72 224.466C213.72 224.466 216.03 191.382 216.318 187.068C216.606 182.754 217.446 160.554 216.384 133.338L176.868 136.8Z" fill="#37474F"/>
<path d="M213.972 221.4C211.572 223.2 204.972 223.086 202.206 221.634L203.046 226.53C205.02 227.676 210.846 227.898 213.744 225.9L213.972 221.4Z" fill="#263238"/>
<path d="M184.308 222.654C180.876 224.166 174.396 223.254 172.368 221.376V226.176C173.964 227.772 180.132 228.546 183.396 227.322L184.308 222.654Z" fill="#263238"/>
<path d="M196.698 165.936L199.218 150.804C202.375 150.628 205.372 149.355 207.69 147.204C207.69 147.204 207.294 150.69 200.55 152.922L198.24 165.48L199.722 189.306L196.698 165.936Z" fill="#263238"/>
<path d="M218.862 27.762C218.862 26.244 218.742 24.906 218.73 23.022C218.718 21.138 219.078 19.812 220.038 19.656C220.998 19.5 221.454 20.814 221.73 23.316C222.168 27.312 222.492 30.186 222.876 30.258C223.962 28.818 224.31 28.458 225.504 29.142C226.308 29.604 226.206 30.87 226.206 30.87C226.407 30.6337 226.689 30.4815 226.997 30.4437C227.305 30.4059 227.616 30.4853 227.868 30.666C228.13 30.841 228.338 31.0863 228.467 31.3739C228.597 31.6614 228.643 31.9796 228.6 32.292C228.6 32.292 229.2 31.74 229.944 32.466C230.239 32.7469 230.47 33.0891 230.619 33.4684C230.768 33.8477 230.833 34.2551 230.808 34.662L230.028 34.356C229.921 34.6085 229.757 34.8324 229.548 35.01C229.2 35.322 228.948 36.21 228.714 36.984C228.48 37.758 228.312 38.634 227.598 38.784C227.465 38.8354 227.323 38.8586 227.181 38.8521C227.039 38.8457 226.9 38.8097 226.772 38.7465C226.644 38.6833 226.531 38.5942 226.44 38.485C226.349 38.3758 226.281 38.2488 226.242 38.112C226.209 37.7999 226.221 37.4846 226.278 37.176C226.278 37.176 225.894 38.274 224.886 38.118C223.878 37.962 223.884 37.062 223.848 36.48C223.248 36.714 222.648 36.882 222.33 36.432C222.012 35.982 222.006 34.032 222.006 34.032L220.386 33.72C220.386 33.72 218.94 33.558 218.916 32.484C218.874 30.6 218.868 29.466 218.862 27.762Z" fill="#B16668"/>
<path d="M230.814 34.6621C230.532 36.1801 229.188 41.4841 228.78 42.2281C228.288 43.1161 228.096 44.0641 228.18 46.8001C228.228 48.2821 230.082 66.3301 230.082 66.3301L218.682 63.2401L219.978 46.6081C219.534 43.5301 218.82 42.1741 217.788 40.8721C216.432 39.1501 216.192 38.1061 216.312 37.1881C216.564 35.2861 217.212 32.5741 217.512 32.1121C217.968 31.3741 219.312 31.0021 219.312 31.0021C219.846 30.8386 220.408 30.7875 220.962 30.8521L223.746 32.8321C223.746 32.8321 223.746 33.7321 223.086 34.0321C222.747 34.195 222.365 34.2475 221.994 34.1821C221.994 34.1821 221.928 35.9821 222.336 36.3601C222.744 36.7381 223.056 36.8341 223.716 36.2701C223.824 36.9361 223.944 37.9561 224.736 38.0701C225.528 38.1841 226.284 37.2001 226.284 37.2001C226.284 37.2001 226.452 39.0001 227.04 39.0001C227.628 39.0001 229.08 33.3601 229.08 33.3601L230.814 34.6621Z" fill="#B16668"/>
<path d="M219.078 54.8279L219.288 51.3419C219.288 51.3419 220.944 52.2839 224.088 52.0619C225.676 52.009 227.243 51.6822 228.72 51.0959L229.134 54.9059C229.134 54.9059 223.986 57.6539 219.078 54.8279Z" fill="#FAFAFA"/>
<path d="M219.03 35.0041C220.161 35.4789 221.209 36.1334 222.132 36.9421C223.28 37.9966 224.224 39.2536 224.916 40.6501C224.619 39.2909 223.972 38.0332 223.038 37.0021C223.256 36.9887 223.466 36.9092 223.638 36.7741C223.638 37.6141 223.776 38.4061 224.838 38.4121C225.069 38.4311 225.301 38.3897 225.512 38.2919C225.722 38.194 225.903 38.0432 226.038 37.8541C226.022 38.0814 226.073 38.3084 226.187 38.5061C226.3 38.7038 226.47 38.8633 226.674 38.9641C226.898 39.0886 227.16 39.1279 227.412 39.075C227.663 39.0221 227.887 38.8805 228.042 38.6761C228.098 38.5854 228.148 38.4912 228.192 38.3941C228.195 38.3783 228.195 38.3619 228.192 38.3461C228.192 38.3461 228.192 38.3461 228.162 38.3461L228.042 38.4541C227.909 38.5942 227.744 38.7001 227.561 38.7628C227.378 38.8255 227.183 38.8431 226.992 38.8141C226.862 38.7429 226.75 38.6424 226.666 38.5205C226.582 38.3987 226.527 38.2588 226.506 38.1121C226.428 37.6594 226.428 37.1968 226.506 36.7441C226.511 36.7265 226.511 36.7077 226.506 36.6901C226.506 36.6541 226.416 36.6901 226.386 36.7201C226.206 36.9241 226.08 37.1701 225.912 37.3861C225.803 37.5221 225.664 37.6305 225.506 37.7025C225.347 37.7744 225.174 37.8079 225 37.8001C224.25 37.8001 224.07 36.8701 224.088 36.2641C224.088 36.0661 224.118 35.8681 224.118 35.6641C224.118 35.6641 224.118 35.5981 224.076 35.5981C223.976 35.6824 223.893 35.7841 223.83 35.8981C223.751 36.0169 223.659 36.1257 223.554 36.2221C223.427 36.3532 223.264 36.4431 223.086 36.4801C222.684 36.5461 222.522 36.1801 222.384 35.8801C222.166 35.376 222.086 34.8234 222.15 34.2781V34.2241H222.294C223.74 34.4221 224.25 33.0241 223.788 32.6341C223.326 32.2441 221.358 30.7801 220.86 30.7021C220.336 30.6798 219.812 30.7677 219.324 30.9601L220.788 30.8941C220.788 30.8941 223.602 32.6941 223.572 33.0481C223.531 33.303 223.396 33.5333 223.194 33.6941C222.992 33.855 222.738 33.9349 222.48 33.9181C221.758 33.8668 221.045 33.7298 220.356 33.5101C220.284 34.1221 219.03 35.0041 219.03 35.0041ZM219.918 34.4821C220.135 34.3675 220.309 34.1867 220.416 33.9661C220.416 33.9661 220.752 34.0561 221.868 34.2121C221.759 34.4439 221.665 34.6824 221.586 34.9261C221.534 35.0604 221.459 35.1844 221.364 35.2921C221.34 35.3227 221.309 35.3474 221.274 35.3641C220.845 35.036 220.392 34.7412 219.918 34.4821Z" fill="#9A4A4D"/>
<path d="M206.4 84.8099C207.829 83.1049 209.375 81.5011 211.026 80.0099C213 78.1559 217.464 69.0899 217.464 69.0899L218.856 53.3999C220.38 54.9839 226.656 54.7979 229.056 53.4659C229.056 53.4659 229.848 57.9419 230.616 66.7799C230.982 70.9019 231.042 71.5799 228.264 77.7659C226.422 81.8699 225.024 84.3659 222.39 89.8559C220.08 94.6979 216.156 102.552 215.43 105.972C215.232 106.89 215.238 108.132 213.978 108.156C212.046 108.192 210.3 101.79 208.95 99.0599C206.4 93.8879 206.094 87.1859 206.4 84.8099Z" fill="#BA68C8"/>
<path opacity="0.2" d="M206.4 84.8099C207.829 83.1049 209.375 81.5011 211.026 80.0099C213 78.1559 217.464 69.0899 217.464 69.0899L218.856 53.3999C220.38 54.9839 226.656 54.7979 229.056 53.4659C229.056 53.4659 229.848 57.9419 230.616 66.7799C230.982 70.9019 231.042 71.5799 228.264 77.7659C226.422 81.8699 225.024 84.3659 222.39 89.8559C220.08 94.6979 216.156 102.552 215.43 105.972C215.232 106.89 215.238 108.132 213.978 108.156C212.046 108.192 210.3 101.79 208.95 99.0599C206.4 93.8879 206.094 87.1859 206.4 84.8099Z" fill="black"/>
<path d="M188.892 85.3319C182.724 86.7119 180.87 87.3059 177.954 87.9839C177.954 87.9839 172.518 103.284 175.134 113.952C175.734 116.406 177.108 124.296 177.102 128.802C177.102 133.104 177.054 134.508 176.598 140.616C176.598 140.616 184.854 146.376 202.116 144.618C215.67 143.238 216.612 138.468 216.612 138.468C216.612 138.468 215.868 119.814 215.544 109.848C215.22 99.7439 213.816 91.4879 210.708 86.7599C210.184 85.9824 209.44 85.3784 208.571 85.0248C207.702 84.6712 206.748 84.5838 205.83 84.7739C203.148 85.2899 200.43 85.5239 200.43 85.5239L188.892 85.3319Z" fill="#BA68C8"/>
<path d="M159.84 119.328C158.814 122.7 158.964 124.128 160.068 127.494C160.76 129.598 161.44 131.708 162.108 133.824C162.996 136.632 164.508 141.318 164.82 142.422C165.176 143.55 165.318 144.734 165.24 145.914C165.061 147.119 164.987 148.338 165.018 149.556C165.064 151.007 165.318 152.444 165.774 153.822C166.086 154.776 166.254 155.808 166.632 156.732C166.97 157.371 167.372 157.974 167.832 158.532C168.282 159.192 168.402 160.008 168.966 160.602C169.962 161.652 171.054 161.862 172.026 162.402C172.422 163.056 173.064 164.418 173.514 165.03C174.654 166.596 175.098 164.178 175.11 163.344C175.091 162.451 174.978 161.562 174.774 160.692C174.279 158.515 173.908 156.311 173.664 154.092C173.622 153.696 173.25 152.052 173.904 152.094C174.01 152.114 174.11 152.156 174.2 152.215C174.29 152.275 174.366 152.352 174.426 152.442C174.802 153 175.148 153.576 175.464 154.17C175.763 154.607 176.094 155.022 176.454 155.412C176.733 155.768 177.077 156.067 177.468 156.294C177.882 156.498 179.43 156.714 179.544 156C179.554 155.885 179.533 155.769 179.484 155.664C179.214 154.902 178.884 154.17 178.596 153.414C178.295 152.664 178.041 151.897 177.834 151.116C177.312 148.662 176.796 146.646 175.434 144.57C173.034 140.844 171.03 123.276 171.03 123.276L175.83 109.572C175.83 109.572 179.832 104.064 180.03 97.1519C180.228 90.2399 177.816 88.2 177.816 88.2C171.996 89.16 169.182 90.828 167.43 95.664C165.678 100.5 160.884 115.902 159.84 119.328Z" fill="#B16668"/>
<path d="M172.692 134.016L173.43 137.754C173.43 137.754 171.93 137.346 168.192 138.69C166.774 139.148 165.435 139.82 164.22 140.682L163.02 136.908L172.692 134.016Z" fill="#FAFAFA"/>
<path d="M158.82 121.662C159.06 120.396 160.818 113.04 163.716 104.004C166.614 94.9679 167.238 94.2719 169.428 91.6259C171.618 88.9799 175.122 88.5299 177.978 87.9719C177.978 87.9719 180.288 89.8319 180.378 95.9639C180.452 100.668 179.176 105.295 176.7 109.296L171.228 123.222L172.92 135.03C169.424 135.039 166.055 136.343 163.464 138.69L160.134 129.09C158.436 123.75 158.586 122.934 158.82 121.662Z" fill="#BA68C8"/>
<path opacity="0.2" d="M158.82 121.662C159.06 120.396 160.818 113.04 163.716 104.004C166.614 94.9679 167.238 94.2719 169.428 91.6259C171.618 88.9799 175.122 88.5299 177.978 87.9719C177.978 87.9719 180.288 89.8319 180.378 95.9639C180.452 100.668 179.176 105.295 176.7 109.296L171.228 123.222L172.92 135.03C169.424 135.039 166.055 136.343 163.464 138.69L160.134 129.09C158.436 123.75 158.586 122.934 158.82 121.662Z" fill="black"/>
<path d="M200.52 84.8881C200.52 84.8881 204.672 88.4881 203.382 91.9681C202.092 95.4481 196.182 96.1681 191.526 92.9701C186.87 89.7721 187.2 85.9561 187.2 85.9561L188.922 85.3861C189.075 86.2232 189.416 87.0149 189.918 87.7021C190.662 88.5601 199.254 91.9561 199.458 92.9941C199.458 92.9941 200.724 90.4561 201.096 89.5081C201.468 88.5601 199.518 84.7561 199.518 84.7561L200.52 84.8881Z" fill="#FAFAFA"/>
<path d="M206.88 63.486C208.08 60.084 206.34 55.818 204.48 53.886C201.78 51.102 197.82 50.112 192.024 50.886C187.62 51.486 183.402 53.652 182.91 58.26C179.436 59.586 180.276 65.4 181.35 67.908C183.534 73.008 187.41 77.298 187.668 79.968L206.88 63.486Z" fill="#263238"/>
<path d="M207.792 75.7921C207.282 78.3661 205.956 80.3281 203.652 80.8681C202.434 81.0815 201.198 81.18 199.962 81.1621V85.6501C201.678 87.7321 200.838 90.3781 199.452 92.9941C197.052 90.0961 190.158 88.9501 187.344 85.4701L187.11 75.0901C187.11 75.0901 185.802 76.8241 183.336 75.4621C182.332 74.8292 181.578 73.869 181.201 72.744C180.824 71.6189 180.847 70.3981 181.266 69.2881C182.25 66.7381 184.662 67.5841 185.466 68.2801C186.27 68.9761 187.182 70.3201 187.764 70.0801C188.101 69.9471 188.401 69.732 188.634 69.4544C188.868 69.1768 189.029 68.8454 189.102 68.4901C189.536 66.9193 189.675 65.2815 189.51 63.6601C190.119 63.2944 190.65 62.811 191.07 62.2381C191.994 61.0381 191.976 59.7061 191.928 58.4881C196.86 56.5321 203.328 56.6881 205.56 58.1641C206.922 60.1981 207.36 65.1361 207.75 67.9681C208.201 70.5554 208.216 73.2001 207.792 75.7921Z" fill="#B16668"/>
<path d="M199.962 81.162C197.37 81.204 192.084 80.388 190.596 79.05C189.108 77.712 188.292 74.802 188.292 74.802C188.292 74.802 188.64 77.916 189.834 79.482C191.028 81.048 193.92 81.882 195.594 82.152C197.268 82.422 199.962 82.566 199.962 82.566V81.162Z" fill="#9A4A4D"/>
<path d="M197.292 67.014C197.308 67.1572 197.295 67.3021 197.254 67.4403C197.213 67.5784 197.145 67.7071 197.054 67.8188C196.963 67.9305 196.851 68.0229 196.724 68.0908C196.597 68.1586 196.457 68.2005 196.314 68.214C196.025 68.2287 195.741 68.1285 195.525 67.9352C195.31 67.7419 195.179 67.4712 195.162 67.182C195.145 67.0386 195.158 66.8934 195.198 66.7549C195.239 66.6164 195.306 66.4874 195.398 66.3755C195.489 66.2636 195.601 66.1712 195.729 66.1036C195.856 66.036 195.996 65.9946 196.14 65.982C196.283 65.9739 196.427 65.9942 196.563 66.0417C196.698 66.0892 196.823 66.163 196.93 66.2589C197.037 66.3547 197.124 66.4708 197.186 66.6004C197.248 66.7299 197.284 66.8705 197.292 67.014Z" fill="#263238"/>
<path d="M205.566 64.1519L203.088 63.2639C203.138 63.1001 203.221 62.948 203.331 62.8171C203.442 62.6862 203.578 62.579 203.731 62.5022C203.884 62.4253 204.051 62.3803 204.222 62.37C204.393 62.3596 204.565 62.3841 204.726 62.4419C205.058 62.5656 205.33 62.8117 205.486 63.1297C205.643 63.4478 205.671 63.8135 205.566 64.1519Z" fill="#263238"/>
<path d="M195.948 64.236L193.95 65.952C193.831 65.8274 193.74 65.6798 193.68 65.5184C193.62 65.357 193.594 65.1852 193.603 65.0134C193.612 64.8415 193.656 64.6734 193.732 64.5191C193.808 64.3648 193.915 64.2276 194.046 64.116C194.318 63.8876 194.667 63.7726 195.021 63.795C195.375 63.8173 195.707 63.9753 195.948 64.236Z" fill="#263238"/>
<path d="M205.428 65.904C205.436 66.1146 205.381 66.3228 205.271 66.5027C205.162 66.6826 205.001 66.8261 204.81 66.9156C204.62 67.005 204.407 67.0364 204.198 67.0057C203.99 66.975 203.795 66.8837 203.638 66.7431C203.481 66.6025 203.369 66.4188 203.316 66.2149C203.262 66.0111 203.27 65.796 203.338 65.5966C203.406 65.3971 203.531 65.2221 203.698 65.0932C203.865 64.9644 204.066 64.8875 204.276 64.872C204.565 64.8573 204.849 64.9575 205.064 65.1508C205.28 65.3441 205.411 65.6148 205.428 65.904Z" fill="#263238"/>
<path d="M199.656 64.3979L200.994 72.0059L205.014 70.4579L199.656 64.3979Z" fill="#9A4A4D"/>
<path d="M196.872 73.4519C196.763 74.0207 196.88 74.6096 197.197 75.0937C197.515 75.5777 198.009 75.9188 198.575 76.0445C199.14 76.1703 199.732 76.0707 200.225 75.767C200.719 75.4633 201.074 74.9793 201.216 74.4179L196.872 73.4519Z" fill="#9A4A4D"/>
<path d="M197.43 74.5681C197.935 74.4813 198.455 74.5782 198.895 74.8412C199.335 75.1042 199.667 75.516 199.83 76.0021C199.556 76.1097 199.263 76.1614 198.968 76.1543C198.674 76.1472 198.383 76.0814 198.115 75.9607C197.846 75.84 197.604 75.6668 197.403 75.4514C197.202 75.236 197.046 74.9826 196.944 74.7061C197.101 74.6436 197.264 74.5974 197.43 74.5681Z" fill="#F28F8F"/>
<path d="M199.452 93.0001C198.12 92.2381 195.48 90.5281 194.232 92.2081C192.984 93.8881 192.09 95.8081 191.136 95.5561C190.182 95.3041 186.618 92.9641 185.352 90.4441C184.738 89.2004 184.383 87.845 184.308 86.4601C184.969 85.4977 185.57 84.4958 186.108 83.4601C186.618 82.3921 186.45 81.8761 187.308 81.7981L187.368 84.4621C188.383 85.5547 189.502 86.5455 190.71 87.4201C193.026 89.0101 197.664 89.3521 199.452 93.0001Z" fill="#EBEBEB"/>
<path d="M199.452 92.9999C200.214 92.2739 200.736 91.0259 202.02 91.3559C203.304 91.6859 205.2 94.5479 205.218 93.8639C205.236 93.1799 204.294 88.3499 203.292 86.9399C202.29 85.5299 200.832 82.8239 199.962 82.8959V85.6559C199.962 85.6559 200.946 87.7439 200.796 88.8959C200.646 90.0479 199.584 91.8779 199.452 92.9999Z" fill="#EBEBEB"/>
</svg>
